CooperHewittInterpol1-ThinItalic.ufo
<glyph name="quotedbl" format="1">
  <advance width="280"/>
  <unicode hex="0022"/>
  <outline>
    <contour>
      <point x="233" y="780" type="line" smooth="yes"/>
      <point x="205" y="530" type="line" smooth="yes"/>
      <point x="215" y="530" type="line" smooth="yes"/>
      <point x="253" y="780" type="line" smooth="yes"/>
    </contour>
    <contour>
      <point x="133" y="780" type="line" smooth="yes"/>
      <point x="105" y="530" type="line" smooth="yes"/>
      <point x="115" y="530" type="line" smooth="yes"/>
      <point x="153" y="780" type="line" smooth="yes"/>
    </contour>
  </outline>
</glyph>
<glyph name="dollar" format="1">
  <advance width="597"/>
  <unicode hex="0024"/>
  <outline>
    <contour>
      <point x="259" y="80" type="line" smooth="yes"/>
      <point x="225" y="82" type="line" smooth="yes"/>
      <point x="195" y="86" type="line" smooth="yes"/>
      <point x="308" y="390" type="line" smooth="yes"/>
      <point x="443" y="351" type="line" smooth="yes"/>
      <point x="488" y="257" type="line" smooth="yes"/>
      <point x="419" y="127" type="line" smooth="yes"/>
      <point x="262" y="80" type="line" smooth="yes"/>
    </contour>
    <contour>
      <point x="475" y="840" type="line" smooth="yes"/>
      <point x="455" y="840" type="line" smooth="yes"/>
      <point x="408" y="714" type="line" smooth="yes"/>
      <point x="378" y="719" type="line" smooth="yes"/>
      <point x="344" y="720" type="line" smooth="yes"/>
      <point x="183" y="675" type="line" smooth="yes"/>
      <point x="103" y="553" type="line" smooth="yes"/>
      <point x="102" y="545" type="line" smooth="yes"/>
      <point x="136" y="444" type="line" smooth="yes"/>
      <point x="289" y="392" type="line" smooth="yes"/>
      <point x="177" y="91" type="line" smooth="yes"/>
      <point x="94" y="157" type="line" smooth="yes"/>
      <point x="81" y="271" type="line" smooth="yes"/>
      <point x="61" y="271" type="line" smooth="yes"/>
      <point x="59" y="255" type="line" smooth="yes"/>
      <point x="77" y="146" type="line" smooth="yes"/>
      <point x="170" y="72" type="line" smooth="yes"/>
      <point x="121" y="-60" type="line" smooth="yes"/>
      <point x="141" y="-60" type="line" smooth="yes"/>
      <point x="188" y="67" type="line" smooth="yes"/>
      <point x="221" y="62" type="line" smooth="yes"/>
      <point x="258" y="60" type="line" smooth="yes"/>
      <point x="424" y="105" type="line" smooth="yes"/>
      <point x="506" y="233" type="line" smooth="yes"/>
      <point x="507" y="241" type="line" smooth="yes"/>
      <point x="471" y="355" type="line" smooth="yes"/>
      <point x="315" y="409" type="line" smooth="yes"/>
      <point x="419" y="690" type="line" smooth="yes"/>
      <point x="504" y="629" type="line" smooth="yes"/>
      <point x="516" y="498" type="line" smooth="yes"/>
      <point x="536" y="498" type="line" smooth="yes"/>
      <point x="539" y="522" type="line" smooth="yes"/>
      <point x="521" y="642" type="line" smooth="yes"/>
      <point x="426" y="709" type="line" smooth="yes"/>
    </contour>
    <contour>
      <point x="296" y="411" type="line" smooth="yes"/>
      <point x="163" y="449" type="line" smooth="yes"/>
      <point x="122" y="527" type="line" smooth="yes"/>
      <point x="194" y="657" type="line" smooth="yes"/>
      <point x="341" y="700" type="line" smooth="yes"/>
      <point x="344" y="700" type="line" smooth="yes"/>
      <point x="374" y="699" type="line" smooth="yes"/>
      <point x="401" y="695" type="line" smooth="yes"/>
    </contour>
  </outline>
</glyph>
<glyph name="percent" format="1">
  <advance width="898"/>
  <unicode hex="0025"/>
  <outline>
    <contour>
      <point x="361" y="616" type="line" smooth="yes"/>
      <point x="315" y="514" type="line" smooth="yes"/>
      <point x="219" y="474" type="line" smooth="yes"/>
      <point x="213" y="474" type="line" smooth="yes"/>
      <point x="126" y="512" type="line" smooth="yes"/>
      <point x="105" y="616" type="line" smooth="yes"/>
      <point x="106" y="624" type="line" smooth="yes"/>
      <point x="152" y="726" type="line" smooth="yes"/>
      <point x="248" y="766" type="line" smooth="yes"/>
      <point x="254" y="766" type="line" smooth="yes"/>
      <point x="341" y="728" type="line" smooth="yes"/>
      <point x="362" y="624" type="line" smooth="yes"/>
    </contour>
    <contour>
      <point x="652" y="-6" type="line" smooth="yes"/>
      <point x="763" y="37" type="line" smooth="yes"/>
      <point x="817" y="156" type="line" smooth="yes"/>
      <point x="818" y="164" type="line" smooth="yes"/>
      <point x="792" y="283" type="line" smooth="yes"/>
      <point x="687" y="326" type="line" smooth="yes"/>
      <point x="576" y="283" type="line" smooth="yes"/>
      <point x="522" y="164" type="line" smooth="yes"/>
      <point x="521" y="156" type="line" smooth="yes"/>
      <point x="548" y="37" type="line" smooth="yes"/>
    </contour>
    <contour>
      <point x="649" y="14" type="line" smooth="yes"/>
      <point x="562" y="52" type="line" smooth="yes"/>
      <point x="541" y="156" type="line" smooth="yes"/>
      <point x="542" y="164" type="line" smooth="yes"/>
      <point x="588" y="266" type="line" smooth="yes"/>
      <point x="684" y="306" type="line" smooth="yes"/>
      <point x="690" y="306" type="line" smooth="yes"/>
      <point x="777" y="268" type="line" smooth="yes"/>
      <point x="798" y="164" type="line" smooth="yes"/>
      <point x="797" y="156" type="line" smooth="yes"/>
      <point x="751" y="54" type="line" smooth="yes"/>
      <point x="655" y="14" type="line" smooth="yes"/>
    </contour>
    <contour>
      <point x="382" y="624" type="line" smooth="yes"/>
      <point x="380" y="692" type="line" smooth="yes"/>
      <point x="354" y="745" type="line" smooth="yes"/>
      <point x="412" y="735" type="line" smooth="yes"/>
      <point x="490" y="730" type="line" smooth="yes"/>
      <point x="595" y="741" type="line" smooth="yes"/>
      <point x="639" y="752" type="line" smooth="yes"/>
      <point x="228" y="0" type="line" smooth="yes"/>
      <point x="250" y="0" type="line" smooth="yes"/>
      <point x="668" y="765" type="line" smooth="yes"/>
      <point x="670" y="780" type="line" smooth="yes"/>
      <point x="594" y="761" type="line" smooth="yes"/>
      <point x="490" y="750" type="line" smooth="yes"/>
      <point x="397" y="756" type="line" smooth="yes"/>
      <point x="302" y="779" type="line" smooth="yes"/>
      <point x="277" y="784" type="line" smooth="yes"/>
      <point x="251" y="786" type="line" smooth="yes"/>
      <point x="140" y="743" type="line" smooth="yes"/>
      <point x="86" y="624" type="line" smooth="yes"/>
      <point x="85" y="616" type="line" smooth="yes"/>
      <point x="112" y="497" type="line" smooth="yes"/>
      <point x="216" y="454" type="line" smooth="yes"/>
      <point x="327" y="497" type="line" smooth="yes"/>
      <point x="381" y="616" type="line" smooth="yes"/>
    </contour>
  </outline>
</glyph>
<glyph name="ampersand" format="1">
  <advance width="640"/>
  <unicode hex="0026"/>
  <outline>
    <contour>
      <point x="140" y="639" type="line" smooth="yes"/>
      <point x="185" y="729" type="line" smooth="yes"/>
      <point x="292" y="766" type="line" smooth="yes"/>
      <point x="298" y="766" type="line" smooth="yes"/>
      <point x="402" y="729" type="line" smooth="yes"/>
      <point x="430" y="639" type="line" smooth="yes"/>
      <point x="429" y="631" type="line" smooth="yes"/>
      <point x="359" y="521" type="line" smooth="yes"/>
      <point x="226" y="434" type="line" smooth="yes"/>
      <point x="156" y="533" type="line" smooth="yes"/>
      <point x="139" y="631" type="line" smooth="yes"/>
    </contour>
    <contour>
      <point x="224" y="14" type="line" smooth="yes"/>
      <point x="88" y="66" type="line" smooth="yes"/>
      <point x="56" y="206" type="line" smooth="yes"/>
      <point x="57" y="214" type="line" smooth="yes"/>
      <point x="114" y="328" type="line" smooth="yes"/>
      <point x="221" y="410" type="line" smooth="yes"/>
      <point x="453" y="126" type="line" smooth="yes"/>
      <point x="345" y="38" type="line" smooth="yes"/>
      <point x="230" y="14" type="line" smooth="yes"/>
    </contour>
    <contour>
      <point x="227" y="-6" type="line" smooth="yes"/>
      <point x="353" y="20" type="line" smooth="yes"/>
      <point x="466" y="110" type="line" smooth="yes"/>
      <point x="556" y="0" type="line" smooth="yes"/>
      <point x="581" y="0" type="line" smooth="yes"/>
      <point x="477" y="127" type="line" smooth="yes"/>
      <point x="532" y="237" type="line" smooth="yes"/>
      <point x="568" y="395" type="line" smooth="yes"/>
      <point x="548" y="395" type="line" smooth="yes"/>
      <point x="547" y="387" type="line" smooth="yes"/>
      <point x="515" y="246" type="line" smooth="yes"/>
      <point x="464" y="143" type="line" smooth="yes"/>
      <point x="238" y="420" type="line" smooth="yes"/>
      <point x="375" y="512" type="line" smooth="yes"/>
      <point x="449" y="631" type="line" smooth="yes"/>
      <point x="450" y="639" type="line" smooth="yes"/>
      <point x="418" y="744" type="line" smooth="yes"/>
      <point x="295" y="786" type="line" smooth="yes"/>
      <point x="170" y="743" type="line" smooth="yes"/>
      <point x="120" y="639" type="line" smooth="yes"/>
      <point x="119" y="631" type="line" smooth="yes"/>
      <point x="137" y="526" type="line" smooth="yes"/>
      <point x="209" y="424" type="line" smooth="yes"/>
      <point x="98" y="338" type="line" smooth="yes"/>
      <point x="37" y="214" type="line" smooth="yes"/>
      <point x="36" y="206" type="line" smooth="yes"/>
      <point x="75" y="49" type="line" smooth="yes"/>
    </contour>
  </outline>
</glyph>
<glyph name="parenright" format="1">
  <advance width="292"/>
  <unicode hex="0029"/>
  <outline>
    <contour>
      <point x="234" y="372" type="line" smooth="yes"/>
      <point x="222" y="651" type="line" smooth="yes"/>
      <point x="134" y="840" type="line" smooth="yes"/>
      <point x="111" y="840" type="line" smooth="yes"/>
      <point x="202" y="644" type="line" smooth="yes"/>
      <point x="214" y="372" type="line" smooth="yes"/>
      <point x="211" y="348" type="line" smooth="yes"/>
      <point x="128" y="75" type="line" smooth="yes"/>
      <point x="-15" y="-120" type="line" smooth="yes"/>
      <point x="8" y="-120" type="line" smooth="yes"/>
      <point x="146" y="67" type="line" smooth="yes"/>
      <point x="231" y="348" type="line" smooth="yes"/>
    </contour>
  </outline>
</glyph>
<glyph name="zero" format="1">
  <advance width="596"/>
  <unicode hex="0030"/>
  <outline>
    <contour>
      <point x="257" y="-6" type="line" smooth="yes"/>
      <point x="434" y="53" type="line" smooth="yes"/>
      <point x="512" y="237" type="line" smooth="yes"/>
      <point x="553" y="552" type="line" smooth="yes"/>
      <point x="516" y="725" type="line" smooth="yes"/>
      <point x="347" y="786" type="line" smooth="yes"/>
      <point x="170" y="728" type="line" smooth="yes"/>
      <point x="92" y="543" type="line" smooth="yes"/>
      <point x="51" y="228" type="line" smooth="yes"/>
      <point x="88" y="55" type="line" smooth="yes"/>
    </contour>
    <contour>
      <point x="254" y="14" type="line" smooth="yes"/>
      <point x="106" y="66" type="line" smooth="yes"/>
      <point x="71" y="229" type="line" smooth="yes"/>
      <point x="111" y="536" type="line" smooth="yes"/>
      <point x="189" y="717" type="line" smooth="yes"/>
      <point x="344" y="766" type="line" smooth="yes"/>
      <point x="350" y="766" type="line" smooth="yes"/>
      <point x="499" y="714" type="line" smooth="yes"/>
      <point x="533" y="551" type="line" smooth="yes"/>
      <point x="493" y="244" type="line" smooth="yes"/>
      <point x="415" y="63" type="line" smooth="yes"/>
      <point x="260" y="14" type="line" smooth="yes"/>
    </contour>
  </outline>
</glyph>
<glyph name="three" format="1">
  <advance width="598"/>
  <unicode hex="0033"/>
  <outline>
    <contour>
      <point x="538" y="568" type="line" smooth="yes"/>
      <point x="471" y="449" type="line" smooth="yes"/>
      <point x="325" y="408" type="line" smooth="yes"/>
      <point x="204" y="408" type="line" smooth="yes"/>
      <point x="201" y="388" type="line" smooth="yes"/>
      <point x="325" y="388" type="line" smooth="yes"/>
      <point x="464" y="344" type="line" smooth="yes"/>
      <point x="497" y="212" type="line" smooth="yes"/>
      <point x="494" y="188" type="line" smooth="yes"/>
      <point x="418" y="58" type="line" smooth="yes"/>
      <point x="261" y="14" type="line" smooth="yes"/>
      <point x="253" y="14" type="line" smooth="yes"/>
      <point x="94" y="71" type="line" smooth="yes"/>
      <point x="63" y="250" type="line" smooth="yes"/>
      <point x="43" y="250" type="line" smooth="yes"/>
      <point x="40" y="226" type="line" smooth="yes"/>
      <point x="80" y="55" type="line" smooth="yes"/>
      <point x="257" y="-6" type="line" smooth="yes"/>
      <point x="430" y="40" type="line" smooth="yes"/>
      <point x="515" y="188" type="line" smooth="yes"/>
      <point x="518" y="212" type="line" smooth="yes"/>
      <point x="489" y="343" type="line" smooth="yes"/>
      <point x="380" y="398" type="line" smooth="yes"/>
      <point x="500" y="450" type="line" smooth="yes"/>
      <point x="559" y="568" type="line" smooth="yes"/>
      <point x="562" y="592" type="line" smooth="yes"/>
      <point x="510" y="735" type="line" smooth="yes"/>
      <point x="349" y="786" type="line" smooth="yes"/>
      <point x="163" y="723" type="line" smooth="yes"/>
      <point x="87" y="544" type="line" smooth="yes"/>
      <point x="84" y="520" type="line" smooth="yes"/>
      <point x="104" y="520" type="line" smooth="yes"/>
      <point x="170" y="703" type="line" smooth="yes"/>
      <point x="345" y="766" type="line" smooth="yes"/>
      <point x="353" y="766" type="line" smooth="yes"/>
      <point x="494" y="718" type="line" smooth="yes"/>
      <point x="541" y="592" type="line" smooth="yes"/>
    </contour>
  </outline>
</glyph>
<glyph name="five" format="1">
  <advance width="600"/>
  <unicode hex="0035"/>
  <outline>
    <contour>
      <point x="312" y="466" type="line" smooth="yes"/>
      <point x="460" y="409" type="line" smooth="yes"/>
      <point x="503" y="252" type="line" smooth="yes"/>
      <point x="500" y="228" type="line" smooth="yes"/>
      <point x="421" y="72" type="line" smooth="yes"/>
      <point x="261" y="14" type="line" smooth="yes"/>
      <point x="253" y="14" type="line" smooth="yes"/>
      <point x="94" y="71" type="line" smooth="yes"/>
      <point x="63" y="250" type="line" smooth="yes"/>
      <point x="43" y="250" type="line" smooth="yes"/>
      <point x="40" y="226" type="line" smooth="yes"/>
      <point x="80" y="55" type="line" smooth="yes"/>
      <point x="257" y="-6" type="line" smooth="yes"/>
      <point x="433" y="55" type="line" smooth="yes"/>
      <point x="521" y="228" type="line" smooth="yes"/>
      <point x="524" y="252" type="line" smooth="yes"/>
      <point x="474" y="425" type="line" smooth="yes"/>
      <point x="308" y="486" type="line" smooth="yes"/>
      <point x="172" y="457" type="line" smooth="yes"/>
      <point x="89" y="380" type="line" smooth="yes"/>
      <point x="155" y="760" type="line" smooth="yes"/>
      <point x="580" y="760" type="line" smooth="yes"/>
      <point x="583" y="780" type="line" smooth="yes"/>
      <point x="138" y="780" type="line" smooth="yes"/>
      <point x="61" y="339" type="line" smooth="yes"/>
      <point x="80" y="333" type="line" smooth="yes"/>
      <point x="167" y="433" type="line" smooth="yes"/>
      <point x="304" y="466" type="line" smooth="yes"/>
    </contour>
  </outline>
</glyph>
<glyph name="six" format="1">
  <advance width="600"/>
  <unicode hex="0036"/>
  <outline>
    <contour>
      <point x="79" y="314" type="line" smooth="yes"/>
      <point x="174" y="421" type="line" smooth="yes"/>
      <point x="314" y="466" type="line" smooth="yes"/>
      <point x="322" y="466" type="line" smooth="yes"/>
      <point x="468" y="409" type="line" smooth="yes"/>
      <point x="508" y="252" type="line" smooth="yes"/>
      <point x="505" y="228" type="line" smooth="yes"/>
      <point x="426" y="72" type="line" smooth="yes"/>
      <point x="266" y="14" type="line" smooth="yes"/>
      <point x="258" y="14" type="line" smooth="yes"/>
      <point x="120" y="66" type="line" smooth="yes"/>
      <point x="66" y="210" type="line" smooth="yes"/>
      <point x="71" y="270" type="line" smooth="yes"/>
    </contour>
    <contour>
      <point x="564" y="786" type="line" smooth="yes"/>
      <point x="378" y="748" type="line" smooth="yes"/>
      <point x="203" y="617" type="line" smooth="yes"/>
      <point x="95" y="443" type="line" smooth="yes"/>
      <point x="50" y="265" type="line" smooth="yes"/>
      <point x="49" y="257" type="line" smooth="yes"/>
      <point x="96" y="62" type="line" smooth="yes"/>
      <point x="262" y="-6" type="line" smooth="yes"/>
      <point x="438" y="55" type="line" smooth="yes"/>
      <point x="526" y="228" type="line" smooth="yes"/>
      <point x="529" y="252" type="line" smooth="yes"/>
      <point x="481" y="425" type="line" smooth="yes"/>
      <point x="318" y="486" type="line" smooth="yes"/>
      <point x="183" y="450" type="line" smooth="yes"/>
      <point x="88" y="360" type="line" smooth="yes"/>
      <point x="136" y="483" type="line" smooth="yes"/>
      <point x="217" y="605" type="line" smooth="yes"/>
      <point x="382" y="728" type="line" smooth="yes"/>
      <point x="561" y="766" type="line" smooth="yes"/>
    </contour>
  </outline>
</glyph>
<glyph name="eight" format="1">
  <advance width="598"/>
  <unicode hex="0038"/>
  <outline>
    <contour>
      <point x="348" y="766" type="line" smooth="yes"/>
      <point x="492" y="720" type="line" smooth="yes"/>
      <point x="541" y="592" type="line" smooth="yes"/>
      <point x="538" y="568" type="line" smooth="yes"/>
      <point x="471" y="449" type="line" smooth="yes"/>
      <point x="325" y="408" type="line" smooth="yes"/>
      <point x="281" y="408" type="line" smooth="yes"/>
      <point x="147" y="451" type="line" smooth="yes"/>
      <point x="112" y="574" type="line" smooth="yes"/>
      <point x="115" y="598" type="line" smooth="yes"/>
      <point x="187" y="721" type="line" smooth="yes"/>
      <point x="340" y="766" type="line" smooth="yes"/>
    </contour>
    <contour>
      <point x="279" y="388" type="line" smooth="yes"/>
      <point x="325" y="388" type="line" smooth="yes"/>
      <point x="464" y="344" type="line" smooth="yes"/>
      <point x="497" y="212" type="line" smooth="yes"/>
      <point x="494" y="188" type="line" smooth="yes"/>
      <point x="418" y="58" type="line" smooth="yes"/>
      <point x="261" y="14" type="line" smooth="yes"/>
      <point x="253" y="14" type="line" smooth="yes"/>
      <point x="103" y="60" type="line" smooth="yes"/>
      <point x="57" y="195" type="line" smooth="yes"/>
      <point x="60" y="219" type="line" smooth="yes"/>
      <point x="129" y="347" type="line" smooth="yes"/>
    </contour>
    <contour>
      <point x="562" y="592" type="line" smooth="yes"/>
      <point x="508" y="735" type="line" smooth="yes"/>
      <point x="344" y="786" type="line" smooth="yes"/>
      <point x="174" y="738" type="line" smooth="yes"/>
      <point x="94" y="598" type="line" smooth="yes"/>
      <point x="91" y="574" type="line" smooth="yes"/>
      <point x="116" y="456" type="line" smooth="yes"/>
      <point x="211" y="398" type="line" smooth="yes"/>
      <point x="95" y="344" type="line" smooth="yes"/>
      <point x="39" y="219" type="line" smooth="yes"/>
      <point x="36" y="195" type="line" smooth="yes"/>
      <point x="90" y="44" type="line" smooth="yes"/>
      <point x="257" y="-6" type="line" smooth="yes"/>
      <point x="430" y="40" type="line" smooth="yes"/>
      <point x="515" y="188" type="line" smooth="yes"/>
      <point x="518" y="212" type="line" smooth="yes"/>
      <point x="489" y="343" type="line" smooth="yes"/>
      <point x="380" y="398" type="line" smooth="yes"/>
      <point x="500" y="450" type="line" smooth="yes"/>
      <point x="559" y="568" type="line" smooth="yes"/>
    </contour>
  </outline>
</glyph>
<glyph name="nine" format="1">
  <advance width="597"/>
  <unicode hex="0039"/>
  <outline>
    <contour>
      <point x="525" y="466" type="line" smooth="yes"/>
      <point x="430" y="359" type="line" smooth="yes"/>
      <point x="290" y="314" type="line" smooth="yes"/>
      <point x="282" y="314" type="line" smooth="yes"/>
      <point x="136" y="371" type="line" smooth="yes"/>
      <point x="96" y="528" type="line" smooth="yes"/>
      <point x="99" y="552" type="line" smooth="yes"/>
      <point x="178" y="709" type="line" smooth="yes"/>
      <point x="338" y="766" type="line" smooth="yes"/>
      <point x="346" y="766" type="line" smooth="yes"/>
      <point x="484" y="714" type="line" smooth="yes"/>
      <point x="538" y="570" type="line" smooth="yes"/>
      <point x="533" y="510" type="line" smooth="yes"/>
    </contour>
    <contour>
      <point x="40" y="-6" type="line" smooth="yes"/>
      <point x="226" y="32" type="line" smooth="yes"/>
      <point x="401" y="163" type="line" smooth="yes"/>
      <point x="509" y="337" type="line" smooth="yes"/>
      <point x="554" y="515" type="line" smooth="yes"/>
      <point x="555" y="523" type="line" smooth="yes"/>
      <point x="508" y="718" type="line" smooth="yes"/>
      <point x="342" y="786" type="line" smooth="yes"/>
      <point x="167" y="725" type="line" smooth="yes"/>
      <point x="78" y="552" type="line" smooth="yes"/>
      <point x="75" y="528" type="line" smooth="yes"/>
      <point x="123" y="355" type="line" smooth="yes"/>
      <point x="286" y="294" type="line" smooth="yes"/>
      <point x="421" y="330" type="line" smooth="yes"/>
      <point x="516" y="420" type="line" smooth="yes"/>
      <point x="468" y="297" type="line" smooth="yes"/>
      <point x="387" y="175" type="line" smooth="yes"/>
      <point x="222" y="52" type="line" smooth="yes"/>
      <point x="43" y="14" type="line" smooth="yes"/>
    </contour>
  </outline>
</glyph>
<glyph name="semicolon" format="1">
  <advance width="180"/>
  <unicode hex="003B"/>
  <outline>
    <contour>
      <point x="66" y="40" type="line" smooth="yes"/>
      <point x="26" y="40" type="line" smooth="yes"/>
      <point x="21" y="0" type="line" smooth="yes"/>
      <point x="41" y="0" type="line" smooth="yes"/>
      <point x="12" y="-67" type="line" smooth="yes"/>
      <point x="-36" y="-85" type="line" smooth="yes"/>
      <point x="-38" y="-105" type="line" smooth="yes"/>
      <point x="27" y="-77" type="line" smooth="yes"/>
      <point x="62" y="8" type="line" smooth="yes"/>
    </contour>
    <contour>
      <point x="114" y="410" type="line" smooth="yes"/>
      <point x="74" y="410" type="line" smooth="yes"/>
      <point x="69" y="370" type="line" smooth="yes"/>
      <point x="109" y="370" type="line" smooth="yes"/>
    </contour>
  </outline>
</glyph>
<glyph name="less" format="1">
  <advance width="600"/>
  <unicode hex="003C"/>
  <outline>
    <contour>
      <point x="52" y="399" type="line" smooth="yes"/>
      <point x="50" y="381" type="line" smooth="yes"/>
      <point x="517" y="134" type="line" smooth="yes"/>
      <point x="520" y="155" type="line" smooth="yes"/>
      <point x="71" y="389" type="line" smooth="yes"/>
      <point x="582" y="623" type="line" smooth="yes"/>
      <point x="585" y="646" type="line" smooth="yes"/>
    </contour>
  </outline>
</glyph>
<glyph name="greater" format="1">
  <advance width="600"/>
  <unicode hex="003E"/>
  <outline>
    <contour>
      <point x="550" y="381" type="line" smooth="yes"/>
      <point x="552" y="399" type="line" smooth="yes"/>
      <point x="85" y="646" type="line" smooth="yes"/>
      <point x="82" y="625" type="line" smooth="yes"/>
      <point x="531" y="391" type="line" smooth="yes"/>
      <point x="20" y="157" type="line" smooth="yes"/>
      <point x="17" y="134" type="line" smooth="yes"/>
    </contour>
  </outline>
</glyph>
<glyph name="question" format="1">
  <advance width="440"/>
  <unicode hex="003F"/>
  <outline>
    <contour>
      <point x="196" y="40" type="line" smooth="yes"/>
      <point x="156" y="40" type="line" smooth="yes"/>
      <point x="151" y="0" type="line" smooth="yes"/>
      <point x="191" y="0" type="line" smooth="yes"/>
    </contour>
    <contour>
      <point x="270" y="786" type="line" smooth="yes"/>
      <point x="120" y="713" type="line" smooth="yes"/>
      <point x="52" y="524" type="line" smooth="yes"/>
      <point x="49" y="500" type="line" smooth="yes"/>
      <point x="69" y="500" type="line" smooth="yes"/>
      <point x="133" y="695" type="line" smooth="yes"/>
      <point x="270" y="766" type="line" smooth="yes"/>
      <point x="380" y="720" type="line" smooth="yes"/>
      <point x="411" y="615" type="line" smooth="yes"/>
      <point x="308" y="403" type="line" smooth="yes"/>
      <point x="187" y="175" type="line" smooth="yes"/>
      <point x="201" y="175" type="line" smooth="yes"/>
      <point x="327" y="397" type="line" smooth="yes"/>
      <point x="432" y="614" type="line" smooth="yes"/>
      <point x="395" y="735" type="line" smooth="yes"/>
    </contour>
  </outline>
</glyph>
<glyph name="at" format="1">
  <advance width="926"/>
  <unicode hex="0040"/>
  <outline>
    <contour>
      <point x="619" y="423" type="line" smooth="yes"/>
      <point x="585" y="171" type="line" smooth="yes"/>
      <point x="516" y="103" type="line" smooth="yes"/>
      <point x="414" y="74" type="line" smooth="yes"/>
      <point x="291" y="123" type="line" smooth="yes"/>
      <point x="255" y="283" type="line" smooth="yes"/>
      <point x="258" y="307" type="line" smooth="yes"/>
      <point x="334" y="467" type="line" smooth="yes"/>
      <point x="464" y="516" type="line" smooth="yes"/>
      <point x="566" y="485" type="line" smooth="yes"/>
    </contour>
    <contour>
      <point x="418" y="-186" type="line" smooth="yes"/>
      <point x="124" y="-61" type="line" smooth="yes"/>
      <point x="42" y="278" type="line" smooth="yes"/>
      <point x="45" y="302" type="line" smooth="yes"/>
      <point x="202" y="641" type="line" smooth="yes"/>
      <point x="517" y="766" type="line" smooth="yes"/>
      <point x="523" y="766" type="line" smooth="yes"/>
      <point x="790" y="670" type="line" smooth="yes"/>
      <point x="876" y="382" type="line" smooth="yes"/>
      <point x="873" y="358" type="line" smooth="yes"/>
      <point x="775" y="134" type="line" smooth="yes"/>
      <point x="598" y="80" type="line" smooth="yes"/>
      <point x="607" y="180" type="line" smooth="yes"/>
      <point x="637" y="408" type="line" smooth="yes"/>
      <point x="658" y="530" type="line" smooth="yes"/>
      <point x="643" y="530" type="line" smooth="yes"/>
      <point x="625" y="447" type="line" smooth="yes"/>
      <point x="569" y="507" type="line" smooth="yes"/>
      <point x="464" y="536" type="line" smooth="yes"/>
      <point x="320" y="482" type="line" smooth="yes"/>
      <point x="238" y="307" type="line" smooth="yes"/>
      <point x="235" y="283" type="line" smooth="yes"/>
      <point x="275" y="108" type="line" smooth="yes"/>
      <point x="414" y="54" type="line" smooth="yes"/>
      <point x="522" y="84" type="line" smooth="yes"/>
      <point x="585" y="144" type="line" smooth="yes"/>
      <point x="581" y="60" type="line" smooth="yes"/>
      <point x="586" y="60" type="line" smooth="yes"/>
      <point x="786" y="119" type="line" smooth="yes"/>
      <point x="893" y="358" type="line" smooth="yes"/>
      <point x="896" y="382" type="line" smooth="yes"/>
      <point x="806" y="682" type="line" smooth="yes"/>
      <point x="520" y="786" type="line" smooth="yes"/>
      <point x="191" y="658" type="line" smooth="yes"/>
      <point x="25" y="302" type="line" smooth="yes"/>
      <point x="22" y="278" type="line" smooth="yes"/>
      <point x="109" y="-73" type="line" smooth="yes"/>
      <point x="421" y="-206" type="line" smooth="yes"/>
      <point x="594" y="-186" type="line" smooth="yes"/>
      <point x="771" y="-103" type="line" smooth="yes"/>
      <point x="761" y="-87" type="line" smooth="yes"/>
      <point x="594" y="-165" type="line" smooth="yes"/>
      <point x="424" y="-186" type="line" smooth="yes"/>
    </contour>
  </outline>
</glyph>
<glyph name="B" format="1">
  <advance width="549"/>
  <unicode hex="0042"/>
  <outline>
    <contour>
      <point x="310" y="760" type="line" smooth="yes"/>
      <point x="433" y="730" type="line" smooth="yes"/>
      <point x="481" y="592" type="line" smooth="yes"/>
      <point x="478" y="568" type="line" smooth="yes"/>
      <point x="404" y="435" type="line" smooth="yes"/>
      <point x="277" y="408" type="line" smooth="yes"/>
      <point x="105" y="408" type="line" smooth="yes"/>
      <point x="151" y="760" type="line" smooth="yes"/>
    </contour>
    <contour>
      <point x="277" y="388" type="line" smooth="yes"/>
      <point x="402" y="358" type="line" smooth="yes"/>
      <point x="452" y="212" type="line" smooth="yes"/>
      <point x="449" y="188" type="line" smooth="yes"/>
      <point x="368" y="46" type="line" smooth="yes"/>
      <point x="230" y="20" type="line" smooth="yes"/>
      <point x="54" y="20" type="line" smooth="yes"/>
      <point x="102" y="388" type="line" smooth="yes"/>
    </contour>
    <contour>
      <point x="133" y="780" type="line" smooth="yes"/>
      <point x="31" y="0" type="line" smooth="yes"/>
      <point x="230" y="0" type="line" smooth="yes"/>
      <point x="386" y="33" type="line" smooth="yes"/>
      <point x="470" y="188" type="line" smooth="yes"/>
      <point x="473" y="212" type="line" smooth="yes"/>
      <point x="444" y="349" type="line" smooth="yes"/>
      <point x="344" y="398" type="line" smooth="yes"/>
      <point x="443" y="441" type="line" smooth="yes"/>
      <point x="499" y="568" type="line" smooth="yes"/>
      <point x="502" y="592" type="line" smooth="yes"/>
      <point x="453" y="743" type="line" smooth="yes"/>
      <point x="310" y="780" type="line" smooth="yes"/>
    </contour>
  </outline>
</glyph>
<glyph name="D" format="1">
  <advance width="608"/>
  <unicode hex="0044"/>
  <outline>
    <contour>
      <point x="54" y="20" type="line" smooth="yes"/>
      <point x="151" y="760" type="line" smooth="yes"/>
      <point x="321" y="760" type="line" smooth="yes"/>
      <point x="501" y="679" type="line" smooth="yes"/>
      <point x="537" y="402" type="line" smooth="yes"/>
      <point x="534" y="378" type="line" smooth="yes"/>
      <point x="422" y="100" type="line" smooth="yes"/>
      <point x="215" y="20" type="line" smooth="yes"/>
    </contour>
    <contour>
      <point x="558" y="402" type="line" smooth="yes"/>
      <point x="515" y="696" type="line" smooth="yes"/>
      <point x="321" y="780" type="line" smooth="yes"/>
      <point x="133" y="780" type="line" smooth="yes"/>
      <point x="31" y="0" type="line" smooth="yes"/>
      <point x="215" y="0" type="line" smooth="yes"/>
      <point x="434" y="84" type="line" smooth="yes"/>
      <point x="555" y="378" type="line" smooth="yes"/>
    </contour>
  </outline>
</glyph>
<glyph name="J" format="1">
  <advance width="470"/>
  <unicode hex="004A"/>
  <outline>
    <contour>
      <point x="426" y="780" type="line" smooth="yes"/>
      <point x="356" y="245" type="line" smooth="yes"/>
      <point x="300" y="71" type="line" smooth="yes"/>
      <point x="167" y="14" type="line" smooth="yes"/>
      <point x="47" y="74" type="line" smooth="yes"/>
      <point x="36" y="247" type="line" smooth="yes"/>
      <point x="16" y="247" type="line" smooth="yes"/>
      <point x="13" y="223" type="line" smooth="yes"/>
      <point x="33" y="58" type="line" smooth="yes"/>
      <point x="167" y="-6" type="line" smooth="yes"/>
      <point x="314" y="56" type="line" smooth="yes"/>
      <point x="373" y="223" type="line" smooth="yes"/>
      <point x="446" y="780" type="line" smooth="yes"/>
    </contour>
  </outline>
</glyph>
<glyph name="K" format="1">
  <advance width="518"/>
  <unicode hex="004B"/>
  <outline>
    <contour>
      <point x="153" y="780" type="line" smooth="yes"/>
      <point x="133" y="780" type="line" smooth="yes"/>
      <point x="31" y="0" type="line" smooth="yes"/>
      <point x="51" y="0" type="line" smooth="yes"/>
      <point x="83" y="245" type="line" smooth="yes"/>
      <point x="234" y="424" type="line" smooth="yes"/>
      <point x="408" y="0" type="line" smooth="yes"/>
      <point x="431" y="0" type="line" smooth="yes"/>
      <point x="248" y="441" type="line" smooth="yes"/>
      <point x="533" y="780" type="line" smooth="yes"/>
      <point x="505" y="780" type="line" smooth="yes"/>
      <point x="87" y="279" type="line" smooth="yes"/>
    </contour>
  </outline>
</glyph>
<glyph name="O" format="1">
  <advance width="621"/>
  <unicode hex="004F"/>
  <outline>
    <contour>
      <point x="361" y="786" type="line" smooth="yes"/>
      <point x="166" y="698" type="line" smooth="yes"/>
      <point x="68" y="402" type="line" smooth="yes"/>
      <point x="65" y="378" type="line" smooth="yes"/>
      <point x="93" y="85" type="line" smooth="yes"/>
      <point x="272" y="-6" type="line" smooth="yes"/>
      <point x="467" y="82" type="line" smooth="yes"/>
      <point x="565" y="378" type="line" smooth="yes"/>
      <point x="568" y="402" type="line" smooth="yes"/>
      <point x="540" y="695" type="line" smooth="yes"/>
    </contour>
    <contour>
      <point x="269" y="14" type="line" smooth="yes"/>
      <point x="109" y="99" type="line" smooth="yes"/>
      <point x="86" y="378" type="line" smooth="yes"/>
      <point x="89" y="402" type="line" smooth="yes"/>
      <point x="179" y="683" type="line" smooth="yes"/>
      <point x="358" y="766" type="line" smooth="yes"/>
      <point x="364" y="766" type="line" smooth="yes"/>
      <point x="525" y="682" type="line" smooth="yes"/>
      <point x="547" y="402" type="line" smooth="yes"/>
      <point x="544" y="378" type="line" smooth="yes"/>
      <point x="454" y="97" type="line" smooth="yes"/>
      <point x="275" y="14" type="line" smooth="yes"/>
    </contour>
  </outline>
</glyph>
<glyph name="Q" format="1">
  <advance width="617"/>
  <unicode hex="0051"/>
  <outline>
    <contour>
      <point x="269" y="14" type="line" smooth="yes"/>
      <point x="109" y="99" type="line" smooth="yes"/>
      <point x="86" y="378" type="line" smooth="yes"/>
      <point x="89" y="402" type="line" smooth="yes"/>
      <point x="179" y="683" type="line" smooth="yes"/>
      <point x="358" y="766" type="line" smooth="yes"/>
      <point x="364" y="766" type="line" smooth="yes"/>
      <point x="525" y="682" type="line" smooth="yes"/>
      <point x="547" y="402" type="line" smooth="yes"/>
      <point x="544" y="378" type="line" smooth="yes"/>
      <point x="476" y="132" type="line" smooth="yes"/>
      <point x="351" y="24" type="line" smooth="yes"/>
      <point x="307" y="205" type="line" smooth="yes"/>
      <point x="287" y="205" type="line" smooth="yes"/>
      <point x="332" y="20" type="line" smooth="yes"/>
      <point x="304" y="16" type="line" smooth="yes"/>
      <point x="275" y="14" type="line" smooth="yes"/>
    </contour>
    <contour>
      <point x="361" y="786" type="line" smooth="yes"/>
      <point x="166" y="698" type="line" smooth="yes"/>
      <point x="68" y="402" type="line" smooth="yes"/>
      <point x="65" y="378" type="line" smooth="yes"/>
      <point x="93" y="85" type="line" smooth="yes"/>
      <point x="272" y="-6" type="line" smooth="yes"/>
      <point x="306" y="-5" type="line" smooth="yes"/>
      <point x="337" y="0" type="line" smooth="yes"/>
      <point x="362" y="-100" type="line" smooth="yes"/>
      <point x="382" y="-100" type="line" smooth="yes"/>
      <point x="356" y="5" type="line" smooth="yes"/>
      <point x="492" y="119" type="line" smooth="yes"/>
      <point x="565" y="378" type="line" smooth="yes"/>
      <point x="568" y="402" type="line" smooth="yes"/>
      <point x="540" y="695" type="line" smooth="yes"/>
    </contour>
  </outline>
</glyph>
<glyph name="R" format="1">
  <advance width="550"/>
  <unicode hex="0052"/>
  <outline>
    <contour>
      <point x="98" y="360" type="line" smooth="yes"/>
      <point x="150" y="760" type="line" smooth="yes"/>
      <point x="320" y="760" type="line" smooth="yes"/>
      <point x="448" y="725" type="line" smooth="yes"/>
      <point x="499" y="569" type="line" smooth="yes"/>
      <point x="496" y="545" type="line" smooth="yes"/>
      <point x="406" y="391" type="line" smooth="yes"/>
      <point x="270" y="360" type="line" smooth="yes"/>
    </contour>
    <contour>
      <point x="96" y="340" type="line" smooth="yes"/>
      <point x="270" y="340" type="line" smooth="yes"/>
      <point x="299" y="341" type="line" smooth="yes"/>
      <point x="328" y="344" type="line" smooth="yes"/>
      <point x="425" y="0" type="line" smooth="yes"/>
      <point x="445" y="0" type="line" smooth="yes"/>
      <point x="347" y="348" type="line" smooth="yes"/>
      <point x="456" y="406" type="line" smooth="yes"/>
      <point x="517" y="545" type="line" smooth="yes"/>
      <point x="520" y="569" type="line" smooth="yes"/>
      <point x="470" y="735" type="line" smooth="yes"/>
      <point x="320" y="780" type="line" smooth="yes"/>
      <point x="133" y="780" type="line" smooth="yes"/>
      <point x="31" y="0" type="line" smooth="yes"/>
      <point x="51" y="0" type="line" smooth="yes"/>
    </contour>
  </outline>
</glyph>
<glyph name="V" format="1">
  <advance width="590"/>
  <unicode hex="0056"/>
  <outline>
    <contour>
      <point x="254" y="-10" type="line" smooth="yes"/>
      <point x="608" y="780" type="line" smooth="yes"/>
      <point x="586" y="780" type="line" smooth="yes"/>
      <point x="247" y="20" type="line" smooth="yes"/>
      <point x="108" y="780" type="line" smooth="yes"/>
      <point x="88" y="780" type="line" smooth="yes"/>
      <point x="234" y="-10" type="line" smooth="yes"/>
    </contour>
  </outline>
</glyph>
<glyph name="X" format="1">
  <advance width="580"/>
  <unicode hex="0058"/>
  <outline>
    <contour>
      <point x="290" y="371" type="line" smooth="yes"/>
      <point x="480" y="0" type="line" smooth="yes"/>
      <point x="503" y="0" type="line" smooth="yes"/>
      <point x="304" y="389" type="line" smooth="yes"/>
      <point x="605" y="780" type="line" smooth="yes"/>
      <point x="579" y="780" type="line" smooth="yes"/>
      <point x="294" y="409" type="line" smooth="yes"/>
      <point x="104" y="780" type="line" smooth="yes"/>
      <point x="81" y="780" type="line" smooth="yes"/>
      <point x="280" y="391" type="line" smooth="yes"/>
      <point x="-21" y="0" type="line" smooth="yes"/>
      <point x="5" y="0" type="line" smooth="yes"/>
    </contour>
  </outline>
</glyph>
<glyph name="Z" format="1">
  <advance width="550"/>
  <unicode hex="005A"/>
  <outline>
    <contour>
      <point x="-7" y="14" type="line" smooth="yes"/>
      <point x="-9" y="0" type="line" smooth="yes"/>
      <point x="461" y="0" type="line" smooth="yes"/>
      <point x="464" y="20" type="line" smooth="yes"/>
      <point x="133" y="20" type="line" smooth="yes"/>
      <point x="21" y="19" type="line" smooth="yes"/>
      <point x="551" y="766" type="line" smooth="yes"/>
      <point x="553" y="780" type="line" smooth="yes"/>
      <point x="103" y="780" type="line" smooth="yes"/>
      <point x="100" y="760" type="line" smooth="yes"/>
      <point x="411" y="760" type="line" smooth="yes"/>
      <point x="523" y="761" type="line" smooth="yes"/>
    </contour>
  </outline>
</glyph>
<glyph name="backslash" format="1">
  <advance width="300"/>
  <unicode hex="005C"/>
  <outline>
    <contour>
      <point x="190" y="-120" type="line" smooth="yes"/>
      <point x="210" y="-120" type="line" smooth="yes"/>
      <point x="106" y="840" type="line" smooth="yes"/>
      <point x="86" y="840" type="line" smooth="yes"/>
    </contour>
  </outline>
</glyph>
<glyph name="b" format="1">
  <advance width="506"/>
  <unicode hex="0062"/>
  <outline>
    <contour>
      <point x="96" y="419" type="line" smooth="yes"/>
      <point x="166" y="487" type="line" smooth="yes"/>
      <point x="269" y="516" type="line" smooth="yes"/>
      <point x="398" y="452" type="line" smooth="yes"/>
      <point x="422" y="277" type="line" smooth="yes"/>
      <point x="419" y="253" type="line" smooth="yes"/>
      <point x="352" y="78" type="line" smooth="yes"/>
      <point x="208" y="14" type="line" smooth="yes"/>
      <point x="107" y="45" type="line" smooth="yes"/>
      <point x="55" y="107" type="line" smooth="yes"/>
    </contour>
    <contour>
      <point x="146" y="800" type="line" smooth="yes"/>
      <point x="126" y="800" type="line" smooth="yes"/>
      <point x="37" y="122" type="line" smooth="yes"/>
      <point x="16" y="0" type="line" smooth="yes"/>
      <point x="31" y="0" type="line" smooth="yes"/>
      <point x="49" y="83" type="line" smooth="yes"/>
      <point x="104" y="23" type="line" smooth="yes"/>
      <point x="208" y="-6" type="line" smooth="yes"/>
      <point x="366" y="63" type="line" smooth="yes"/>
      <point x="439" y="253" type="line" smooth="yes"/>
      <point x="442" y="277" type="line" smooth="yes"/>
      <point x="413" y="467" type="line" smooth="yes"/>
      <point x="269" y="536" type="line" smooth="yes"/>
      <point x="164" y="508" type="line" smooth="yes"/>
      <point x="100" y="450" type="line" smooth="yes"/>
    </contour>
  </outline>
</glyph>
<glyph name="c" format="1">
  <advance width="503"/>
  <unicode hex="0063"/>
  <outline>
    <contour>
      <point x="39" y="253" type="line" smooth="yes"/>
      <point x="72" y="63" type="line" smooth="yes"/>
      <point x="220" y="-6" type="line" smooth="yes"/>
      <point x="369" y="48" type="line" smooth="yes"/>
      <point x="422" y="159" type="line" smooth="yes"/>
      <point x="424" y="175" type="line" smooth="yes"/>
      <point x="404" y="175" type="line" smooth="yes"/>
      <point x="352" y="59" type="line" smooth="yes"/>
      <point x="220" y="14" type="line" smooth="yes"/>
      <point x="87" y="78" type="line" smooth="yes"/>
      <point x="59" y="253" type="line" smooth="yes"/>
      <point x="62" y="277" type="line" smooth="yes"/>
      <point x="131" y="452" type="line" smooth="yes"/>
      <point x="278" y="516" type="line" smooth="yes"/>
      <point x="405" y="468" type="line" smooth="yes"/>
      <point x="426" y="345" type="line" smooth="yes"/>
      <point x="446" y="345" type="line" smooth="yes"/>
      <point x="448" y="361" type="line" smooth="yes"/>
      <point x="423" y="480" type="line" smooth="yes"/>
      <point x="278" y="536" type="line" smooth="yes"/>
      <point x="117" y="467" type="line" smooth="yes"/>
      <point x="42" y="277" type="line" smooth="yes"/>
    </contour>
  </outline>
</glyph>
<glyph name="d" format="1">
  <advance width="510"/>
  <unicode hex="0064"/>
  <outline>
    <contour>
      <point x="426" y="423" type="line" smooth="yes"/>
      <point x="385" y="111" type="line" smooth="yes"/>
      <point x="315" y="43" type="line" smooth="yes"/>
      <point x="212" y="14" type="line" smooth="yes"/>
      <point x="83" y="78" type="line" smooth="yes"/>
      <point x="59" y="253" type="line" smooth="yes"/>
      <point x="62" y="277" type="line" smooth="yes"/>
      <point x="129" y="452" type="line" smooth="yes"/>
      <point x="273" y="516" type="line" smooth="yes"/>
      <point x="374" y="485" type="line" smooth="yes"/>
    </contour>
    <contour>
      <point x="273" y="536" type="line" smooth="yes"/>
      <point x="115" y="467" type="line" smooth="yes"/>
      <point x="42" y="277" type="line" smooth="yes"/>
      <point x="39" y="253" type="line" smooth="yes"/>
      <point x="68" y="63" type="line" smooth="yes"/>
      <point x="212" y="-6" type="line" smooth="yes"/>
      <point x="318" y="23" type="line" smooth="yes"/>
      <point x="385" y="86" type="line" smooth="yes"/>
      <point x="380" y="0" type="line" smooth="yes"/>
      <point x="396" y="0" type="line" smooth="yes"/>
      <point x="406" y="118" type="line" smooth="yes"/>
      <point x="495" y="800" type="line" smooth="yes"/>
      <point x="475" y="800" type="line" smooth="yes"/>
      <point x="429" y="452" type="line" smooth="yes"/>
      <point x="376" y="508" type="line" smooth="yes"/>
    </contour>
  </outline>
</glyph>
<glyph name="f" format="1">
  <advance width="340"/>
  <unicode hex="0066"/>
  <outline>
    <contour>
      <point x="174" y="672" type="line" smooth="yes"/>
      <point x="217" y="764" type="line" smooth="yes"/>
      <point x="298" y="786" type="line" smooth="yes"/>
      <point x="340" y="781" type="line" smooth="yes"/>
      <point x="362" y="773" type="line" smooth="yes"/>
      <point x="365" y="793" type="line" smooth="yes"/>
      <point x="343" y="800" type="line" smooth="yes"/>
      <point x="298" y="806" type="line" smooth="yes"/>
      <point x="208" y="783" type="line" smooth="yes"/>
      <point x="156" y="685" type="line" smooth="yes"/>
      <point x="135" y="530" type="line" smooth="yes"/>
      <point x="50" y="530" type="line" smooth="yes"/>
      <point x="47" y="510" type="line" smooth="yes"/>
      <point x="133" y="510" type="line" smooth="yes"/>
      <point x="66" y="0" type="line" smooth="yes"/>
      <point x="86" y="0" type="line" smooth="yes"/>
      <point x="153" y="510" type="line" smooth="yes"/>
      <point x="317" y="510" type="line" smooth="yes"/>
      <point x="320" y="530" type="line" smooth="yes"/>
      <point x="155" y="530" type="line" smooth="yes"/>
    </contour>
  </outline>
</glyph>
<glyph name="h" format="1">
  <advance width="488"/>
  <unicode hex="0068"/>
  <outline>
    <contour>
      <point x="21" y="0" type="line" smooth="yes"/>
      <point x="41" y="0" type="line" smooth="yes"/>
      <point x="96" y="419" type="line" smooth="yes"/>
      <point x="166" y="484" type="line" smooth="yes"/>
      <point x="283" y="516" type="line" smooth="yes"/>
      <point x="384" y="484" type="line" smooth="yes"/>
      <point x="410" y="374" type="line" smooth="yes"/>
      <point x="361" y="0" type="line" smooth="yes"/>
      <point x="381" y="0" type="line" smooth="yes"/>
      <point x="431" y="381" type="line" smooth="yes"/>
      <point x="400" y="499" type="line" smooth="yes"/>
      <point x="283" y="536" type="line" smooth="yes"/>
      <point x="169" y="508" type="line" smooth="yes"/>
      <point x="100" y="449" type="line" smooth="yes"/>
      <point x="146" y="800" type="line" smooth="yes"/>
      <point x="126" y="800" type="line" smooth="yes"/>
    </contour>
  </outline>
</glyph>
<glyph name="o" format="1">
  <advance width="522"/>
  <unicode hex="006F"/>
  <outline>
    <contour>
      <point x="220" y="14" type="line" smooth="yes"/>
      <point x="87" y="78" type="line" smooth="yes"/>
      <point x="59" y="253" type="line" smooth="yes"/>
      <point x="62" y="277" type="line" smooth="yes"/>
      <point x="131" y="452" type="line" smooth="yes"/>
      <point x="278" y="516" type="line" smooth="yes"/>
      <point x="411" y="452" type="line" smooth="yes"/>
      <point x="439" y="277" type="line" smooth="yes"/>
      <point x="436" y="253" type="line" smooth="yes"/>
      <point x="367" y="78" type="line" smooth="yes"/>
    </contour>
    <contour>
      <point x="220" y="-6" type="line" smooth="yes"/>
      <point x="381" y="63" type="line" smooth="yes"/>
      <point x="456" y="253" type="line" smooth="yes"/>
      <point x="459" y="277" type="line" smooth="yes"/>
      <point x="426" y="467" type="line" smooth="yes"/>
      <point x="278" y="536" type="line" smooth="yes"/>
      <point x="117" y="467" type="line" smooth="yes"/>
      <point x="42" y="277" type="line" smooth="yes"/>
      <point x="39" y="253" type="line" smooth="yes"/>
      <point x="72" y="63" type="line" smooth="yes"/>
    </contour>
  </outline>
</glyph>
<glyph name="s" format="1">
  <advance width="478"/>
  <unicode hex="0073"/>
  <outline>
    <contour>
      <point x="213" y="261" type="line" smooth="yes"/>
      <point x="342" y="231" type="line" smooth="yes"/>
      <point x="380" y="154" type="line" smooth="yes"/>
      <point x="331" y="53" type="line" smooth="yes"/>
      <point x="200" y="14" type="line" smooth="yes"/>
      <point x="64" y="54" type="line" smooth="yes"/>
      <point x="42" y="160" type="line" smooth="yes"/>
      <point x="22" y="160" type="line" smooth="yes"/>
      <point x="20" y="144" type="line" smooth="yes"/>
      <point x="50" y="39" type="line" smooth="yes"/>
      <point x="200" y="-6" type="line" smooth="yes"/>
      <point x="340" y="33" type="line" smooth="yes"/>
      <point x="398" y="133" type="line" smooth="yes"/>
      <point x="399" y="141" type="line" smooth="yes"/>
      <point x="372" y="235" type="line" smooth="yes"/>
      <point x="237" y="278" type="line" smooth="yes"/>
      <point x="110" y="307" type="line" smooth="yes"/>
      <point x="76" y="375" type="line" smooth="yes"/>
      <point x="122" y="479" type="line" smooth="yes"/>
      <point x="250" y="516" type="line" smooth="yes"/>
      <point x="381" y="476" type="line" smooth="yes"/>
      <point x="403" y="360" type="line" smooth="yes"/>
      <point x="423" y="360" type="line" smooth="yes"/>
      <point x="425" y="376" type="line" smooth="yes"/>
      <point x="396" y="491" type="line" smooth="yes"/>
      <point x="250" y="536" type="line" smooth="yes"/>
      <point x="117" y="499" type="line" smooth="yes"/>
      <point x="58" y="400" type="line" smooth="yes"/>
      <point x="57" y="392" type="line" smooth="yes"/>
      <point x="80" y="306" type="line" smooth="yes"/>
    </contour>
  </outline>
</glyph>
<glyph name="w" format="1">
  <advance width="670"/>
  <unicode hex="0077"/>
  <outline>
    <contour>
      <point x="352" y="504" type="line" smooth="yes"/>
      <point x="438" y="0" type="line" smooth="yes"/>
      <point x="462" y="0" type="line" smooth="yes"/>
      <point x="657" y="530" type="line" smooth="yes"/>
      <point x="635" y="530" type="line" smooth="yes"/>
      <point x="452" y="24" type="line" smooth="yes"/>
      <point x="367" y="530" type="line" smooth="yes"/>
      <point x="343" y="530" type="line" smooth="yes"/>
      <point x="126" y="26" type="line" smooth="yes"/>
      <point x="74" y="530" type="line" smooth="yes"/>
      <point x="53" y="530" type="line" smooth="yes"/>
      <point x="110" y="0" type="line" smooth="yes"/>
      <point x="134" y="0" type="line" smooth="yes"/>
    </contour>
  </outline>
</glyph>
<glyph name="braceleft" format="1">
  <advance width="300"/>
  <unicode hex="007B"/>
  <outline>
    <contour>
      <point x="311" y="840" type="line" smooth="yes"/>
      <point x="307" y="840" type="line" smooth="yes"/>
      <point x="219" y="818" type="line" smooth="yes"/>
      <point x="170" y="715" type="line" smooth="yes"/>
      <point x="137" y="464" type="line" smooth="yes"/>
      <point x="102" y="387" type="line" smooth="yes"/>
      <point x="34" y="370" type="line" smooth="yes"/>
      <point x="31" y="350" type="line" smooth="yes"/>
      <point x="95" y="334" type="line" smooth="yes"/>
      <point x="110" y="258" type="line" smooth="yes"/>
      <point x="77" y="7" type="line" smooth="yes"/>
      <point x="99" y="-96" type="line" smooth="yes"/>
      <point x="181" y="-120" type="line" smooth="yes"/>
      <point x="185" y="-120" type="line" smooth="yes"/>
      <point x="188" y="-100" type="line" smooth="yes"/>
      <point x="114" y="-80" type="line" smooth="yes"/>
      <point x="97" y="10" type="line" smooth="yes"/>
      <point x="129" y="257" type="line" smooth="yes"/>
      <point x="122" y="329" type="line" smooth="yes"/>
      <point x="83" y="360" type="line" smooth="yes"/>
      <point x="130" y="390" type="line" smooth="yes"/>
      <point x="156" y="463" type="line" smooth="yes"/>
      <point x="189" y="710" type="line" smooth="yes"/>
      <point x="230" y="801" type="line" smooth="yes"/>
      <point x="308" y="820" type="line" smooth="yes"/>
    </contour>
  </outline>
</glyph>
<glyph name="bar" format="1">
  <advance width="180"/>
  <unicode hex="007C"/>
  <outline>
    <contour>
      <point x="15" y="-120" type="line" smooth="yes"/>
      <point x="35" y="-120" type="line" smooth="yes"/>
      <point x="161" y="840" type="line" smooth="yes"/>
      <point x="141" y="840" type="line" smooth="yes"/>
    </contour>
  </outline>
</glyph>
<glyph name="braceright" format="1">
  <advance width="300"/>
  <unicode hex="007D"/>
  <outline>
    <contour>
      <point x="-15" y="-120" type="line" smooth="yes"/>
      <point x="-11" y="-120" type="line" smooth="yes"/>
      <point x="77" y="-98" type="line" smooth="yes"/>
      <point x="126" y="5" type="line" smooth="yes"/>
      <point x="159" y="256" type="line" smooth="yes"/>
      <point x="194" y="333" type="line" smooth="yes"/>
      <point x="262" y="350" type="line" smooth="yes"/>
      <point x="265" y="370" type="line" smooth="yes"/>
      <point x="202" y="386" type="line" smooth="yes"/>
      <point x="186" y="462" type="line" smooth="yes"/>
      <point x="219" y="713" type="line" smooth="yes"/>
      <point x="197" y="816" type="line" smooth="yes"/>
      <point x="115" y="840" type="line" smooth="yes"/>
      <point x="111" y="840" type="line" smooth="yes"/>
      <point x="108" y="820" type="line" smooth="yes"/>
      <point x="182" y="800" type="line" smooth="yes"/>
      <point x="199" y="710" type="line" smooth="yes"/>
      <point x="167" y="463" type="line" smooth="yes"/>
      <point x="174" y="391" type="line" smooth="yes"/>
      <point x="213" y="360" type="line" smooth="yes"/>
      <point x="166" y="330" type="line" smooth="yes"/>
      <point x="140" y="257" type="line" smooth="yes"/>
      <point x="107" y="10" type="line" smooth="yes"/>
      <point x="66" y="-81" type="line" smooth="yes"/>
      <point x="-12" y="-100" type="line" smooth="yes"/>
    </contour>
  </outline>
</glyph>
<glyph name="asciitilde" format="1">
  <advance width="600"/>
  <unicode hex="007E"/>
  <outline>
    <contour>
      <point x="424" y="354" type="line" smooth="yes"/>
      <point x="303" y="395" type="line" smooth="yes"/>
      <point x="177" y="436" type="line" smooth="yes"/>
      <point x="89" y="409" type="line" smooth="yes"/>
      <point x="43" y="370" type="line" smooth="yes"/>
      <point x="57" y="356" type="line" smooth="yes"/>
      <point x="101" y="393" type="line" smooth="yes"/>
      <point x="177" y="416" type="line" smooth="yes"/>
      <point x="298" y="375" type="line" smooth="yes"/>
      <point x="424" y="334" type="line" smooth="yes"/>
      <point x="512" y="361" type="line" smooth="yes"/>
      <point x="558" y="400" type="line" smooth="yes"/>
      <point x="544" y="414" type="line" smooth="yes"/>
      <point x="501" y="377" type="line" smooth="yes"/>
    </contour>
  </outline>
</glyph>
<glyph name="cent" format="1">
  <advance width="597"/>
  <unicode hex="00A2"/>
  <outline>
    <contour>
      <point x="97" y="402" type="line" smooth="yes"/>
      <point x="183" y="627" type="line" smooth="yes"/>
      <point x="355" y="700" type="line" smooth="yes"/>
      <point x="361" y="700" type="line" smooth="yes"/>
      <point x="382" y="699" type="line" smooth="yes"/>
      <point x="401" y="697" type="line" smooth="yes"/>
      <point x="180" y="100" type="line" smooth="yes"/>
      <point x="103" y="198" type="line" smooth="yes"/>
      <point x="94" y="378" type="line" smooth="yes"/>
    </contour>
    <contour>
      <point x="475" y="840" type="line" smooth="yes"/>
      <point x="455" y="840" type="line" smooth="yes"/>
      <point x="409" y="716" type="line" smooth="yes"/>
      <point x="384" y="719" type="line" smooth="yes"/>
      <point x="358" y="720" type="line" smooth="yes"/>
      <point x="168" y="640" type="line" smooth="yes"/>
      <point x="77" y="402" type="line" smooth="yes"/>
      <point x="74" y="378" type="line" smooth="yes"/>
      <point x="84" y="185" type="line" smooth="yes"/>
      <point x="172" y="80" type="line" smooth="yes"/>
      <point x="121" y="-60" type="line" smooth="yes"/>
      <point x="141" y="-60" type="line" smooth="yes"/>
      <point x="190" y="73" type="line" smooth="yes"/>
      <point x="230" y="63" type="line" smooth="yes"/>
      <point x="275" y="60" type="line" smooth="yes"/>
      <point x="442" y="114" type="line" smooth="yes"/>
      <point x="510" y="254" type="line" smooth="yes"/>
      <point x="513" y="278" type="line" smooth="yes"/>
      <point x="493" y="278" type="line" smooth="yes"/>
      <point x="425" y="126" type="line" smooth="yes"/>
      <point x="278" y="80" type="line" smooth="yes"/>
      <point x="272" y="80" type="line" smooth="yes"/>
      <point x="232" y="83" type="line" smooth="yes"/>
      <point x="197" y="92" type="line" smooth="yes"/>
      <point x="420" y="693" type="line" smooth="yes"/>
      <point x="510" y="625" type="line" smooth="yes"/>
      <point x="520" y="481" type="line" smooth="yes"/>
      <point x="540" y="481" type="line" smooth="yes"/>
      <point x="543" y="505" type="line" smooth="yes"/>
      <point x="526" y="642" type="line" smooth="yes"/>
      <point x="427" y="712" type="line" smooth="yes"/>
    </contour>
  </outline>
</glyph>
<glyph name="sterling" format="1">
  <advance width="596"/>
  <unicode hex="00A3"/>
  <outline>
    <contour>
      <point x="378" y="766" type="line" smooth="yes"/>
      <point x="512" y="701" type="line" smooth="yes"/>
      <point x="536" y="500" type="line" smooth="yes"/>
      <point x="556" y="500" type="line" smooth="yes"/>
      <point x="559" y="524" type="line" smooth="yes"/>
      <point x="527" y="717" type="line" smooth="yes"/>
      <point x="378" y="786" type="line" smooth="yes"/>
      <point x="204" y="707" type="line" smooth="yes"/>
      <point x="151" y="530" type="line" smooth="yes"/>
      <point x="154" y="461" type="line" smooth="yes"/>
      <point x="161" y="400" type="line" smooth="yes"/>
      <point x="63" y="400" type="line" smooth="yes"/>
      <point x="60" y="380" type="line" smooth="yes"/>
      <point x="164" y="380" type="line" smooth="yes"/>
      <point x="188" y="205" type="line" smooth="yes"/>
      <point x="190" y="20" type="line" smooth="yes"/>
      <point x="14" y="20" type="line" smooth="yes"/>
      <point x="11" y="0" type="line" smooth="yes"/>
      <point x="491" y="0" type="line" smooth="yes"/>
      <point x="494" y="20" type="line" smooth="yes"/>
      <point x="210" y="20" type="line" smooth="yes"/>
      <point x="210" y="203" type="line" smooth="yes"/>
      <point x="186" y="380" type="line" smooth="yes"/>
      <point x="400" y="380" type="line" smooth="yes"/>
      <point x="403" y="400" type="line" smooth="yes"/>
      <point x="183" y="400" type="line" smooth="yes"/>
      <point x="175" y="463" type="line" smooth="yes"/>
      <point x="171" y="530" type="line" smooth="yes"/>
      <point x="217" y="689" type="line" smooth="yes"/>
    </contour>
  </outline>
</glyph>
<glyph name="section" format="1">
  <advance width="498"/>
  <unicode hex="00A7"/>
  <outline>
    <contour>
      <point x="51" y="388" type="line" smooth="yes"/>
      <point x="77" y="292" type="line" smooth="yes"/>
      <point x="214" y="247" type="line" smooth="yes"/>
      <point x="340" y="219" type="line" smooth="yes"/>
      <point x="375" y="151" type="line" smooth="yes"/>
      <point x="329" y="48" type="line" smooth="yes"/>
      <point x="201" y="10" type="line" smooth="yes"/>
      <point x="70" y="50" type="line" smooth="yes"/>
      <point x="48" y="166" type="line" smooth="yes"/>
      <point x="28" y="166" type="line" smooth="yes"/>
      <point x="26" y="150" type="line" smooth="yes"/>
      <point x="55" y="36" type="line" smooth="yes"/>
      <point x="201" y="-10" type="line" smooth="yes"/>
      <point x="334" y="27" type="line" smooth="yes"/>
      <point x="393" y="126" type="line" smooth="yes"/>
      <point x="394" y="134" type="line" smooth="yes"/>
      <point x="382" y="206" type="line" smooth="yes"/>
      <point x="302" y="252" type="line" smooth="yes"/>
      <point x="406" y="298" type="line" smooth="yes"/>
      <point x="452" y="382" type="line" smooth="yes"/>
      <point x="453" y="388" type="line" smooth="yes"/>
      <point x="427" y="484" type="line" smooth="yes"/>
      <point x="290" y="529" type="line" smooth="yes"/>
      <point x="164" y="557" type="line" smooth="yes"/>
      <point x="129" y="625" type="line" smooth="yes"/>
      <point x="175" y="729" type="line" smooth="yes"/>
      <point x="303" y="766" type="line" smooth="yes"/>
      <point x="434" y="726" type="line" smooth="yes"/>
      <point x="456" y="610" type="line" smooth="yes"/>
      <point x="476" y="610" type="line" smooth="yes"/>
      <point x="478" y="626" type="line" smooth="yes"/>
      <point x="449" y="741" type="line" smooth="yes"/>
      <point x="303" y="786" type="line" smooth="yes"/>
      <point x="170" y="749" type="line" smooth="yes"/>
      <point x="111" y="650" type="line" smooth="yes"/>
      <point x="110" y="642" type="line" smooth="yes"/>
      <point x="122" y="570" type="line" smooth="yes"/>
      <point x="202" y="524" type="line" smooth="yes"/>
      <point x="99" y="479" type="line" smooth="yes"/>
      <point x="52" y="394" type="line" smooth="yes"/>
    </contour>
    <contour>
      <point x="70" y="366" type="line" smooth="yes"/>
      <point x="120" y="472" type="line" smooth="yes"/>
      <point x="258" y="512" type="line" smooth="yes"/>
      <point x="268" y="512" type="line" smooth="yes"/>
      <point x="393" y="485" type="line" smooth="yes"/>
      <point x="435" y="410" type="line" smooth="yes"/>
      <point x="385" y="304" type="line" smooth="yes"/>
      <point x="247" y="264" type="line" smooth="yes"/>
      <point x="237" y="264" type="line" smooth="yes"/>
      <point x="112" y="291" type="line" smooth="yes"/>
    </contour>
  </outline>
</glyph>
<glyph name="copyright" format="1">
  <advance width="900"/>
  <unicode hex="00A9"/>
  <outline>
    <contour>
      <point x="450" y="149" type="line" smooth="yes"/>
      <point x="589" y="197" type="line" smooth="yes"/>
      <point x="630" y="290" type="line" smooth="yes"/>
      <point x="630" y="300" type="line" smooth="yes"/>
      <point x="610" y="300" type="line" smooth="yes"/>
      <point x="571" y="208" type="line" smooth="yes"/>
      <point x="450" y="169" type="line" smooth="yes"/>
      <point x="314" y="228" type="line" smooth="yes"/>
      <point x="267" y="380" type="line" smooth="yes"/>
      <point x="267" y="400" type="line" smooth="yes"/>
      <point x="314" y="552" type="line" smooth="yes"/>
      <point x="450" y="611" type="line" smooth="yes"/>
      <point x="571" y="574" type="line" smooth="yes"/>
      <point x="610" y="470" type="line" smooth="yes"/>
      <point x="630" y="470" type="line" smooth="yes"/>
      <point x="630" y="480" type="line" smooth="yes"/>
      <point x="589" y="586" type="line" smooth="yes"/>
      <point x="450" y="631" type="line" smooth="yes"/>
      <point x="299" y="566" type="line" smooth="yes"/>
      <point x="247" y="400" type="line" smooth="yes"/>
      <point x="247" y="380" type="line" smooth="yes"/>
      <point x="299" y="214" type="line" smooth="yes"/>
    </contour>
    <contour>
      <point x="74" y="390" type="line" smooth="yes"/>
      <point x="184" y="656" type="line" smooth="yes"/>
      <point x="450" y="766" type="line" smooth="yes"/>
      <point x="716" y="656" type="line" smooth="yes"/>
      <point x="826" y="390" type="line" smooth="yes"/>
      <point x="716" y="124" type="line" smooth="yes"/>
      <point x="450" y="14" type="line" smooth="yes"/>
      <point x="184" y="124" type="line" smooth="yes"/>
    </contour>
    <contour>
      <point x="54" y="390" type="line" smooth="yes"/>
      <point x="170" y="110" type="line" smooth="yes"/>
      <point x="450" y="-6" type="line" smooth="yes"/>
      <point x="730" y="110" type="line" smooth="yes"/>
      <point x="846" y="390" type="line" smooth="yes"/>
      <point x="730" y="670" type="line" smooth="yes"/>
      <point x="450" y="786" type="line" smooth="yes"/>
      <point x="170" y="670" type="line" smooth="yes"/>
    </contour>
  </outline>
</glyph>
<glyph name="ordfeminine" format="1">
  <advance width="374"/>
  <unicode hex="00AA"/>
  <outline>
    <contour>
      <point x="30" y="230" type="line" smooth="yes"/>
      <point x="302" y="230" type="line" smooth="yes"/>
      <point x="305" y="250" type="line" smooth="yes"/>
      <point x="33" y="250" type="line" smooth="yes"/>
    </contour>
    <contour>
      <point x="157" y="400" type="line" smooth="yes"/>
      <point x="91" y="425" type="line" smooth="yes"/>
      <point x="76" y="482" type="line" smooth="yes"/>
      <point x="77" y="490" type="line" smooth="yes"/>
      <point x="115" y="559" type="line" smooth="yes"/>
      <point x="189" y="585" type="line" smooth="yes"/>
      <point x="329" y="606" type="line" smooth="yes"/>
      <point x="313" y="479" type="line" smooth="yes"/>
      <point x="263" y="430" type="line" smooth="yes"/>
    </contour>
    <contour>
      <point x="56" y="482" type="line" smooth="yes"/>
      <point x="78" y="407" type="line" smooth="yes"/>
      <point x="157" y="380" type="line" smooth="yes"/>
      <point x="254" y="403" type="line" smooth="yes"/>
      <point x="312" y="450" type="line" smooth="yes"/>
      <point x="308" y="388" type="line" smooth="yes"/>
      <point x="325" y="388" type="line" smooth="yes"/>
      <point x="333" y="485" type="line" smooth="yes"/>
      <point x="355" y="649" type="line" smooth="yes"/>
      <point x="340" y="746" type="line" smooth="yes"/>
      <point x="238" y="786" type="line" smooth="yes"/>
      <point x="131" y="744" type="line" smooth="yes"/>
      <point x="96" y="654" type="line" smooth="yes"/>
      <point x="95" y="646" type="line" smooth="yes"/>
      <point x="115" y="646" type="line" smooth="yes"/>
      <point x="144" y="730" type="line" smooth="yes"/>
      <point x="238" y="766" type="line" smooth="yes"/>
      <point x="323" y="732" type="line" smooth="yes"/>
      <point x="334" y="644" type="line" smooth="yes"/>
      <point x="332" y="626" type="line" smooth="yes"/>
      <point x="195" y="605" type="line" smooth="yes"/>
      <point x="108" y="577" type="line" smooth="yes"/>
      <point x="57" y="490" type="line" smooth="yes"/>
    </contour>
  </outline>
</glyph>
<glyph name="registered" format="1">
  <advance width="330"/>
  <unicode hex="00AE"/>
  <outline>
    <contour>
      <point x="204" y="703" type="line" smooth="yes"/>
      <point x="204" y="697" type="line" smooth="yes"/>
      <point x="194" y="672" type="line" smooth="yes"/>
      <point x="163" y="665" type="line" smooth="yes"/>
      <point x="127" y="665" type="line" smooth="yes"/>
      <point x="127" y="735" type="line" smooth="yes"/>
      <point x="163" y="735" type="line" smooth="yes"/>
      <point x="194" y="728" type="line" smooth="yes"/>
    </contour>
    <contour>
      <point x="219" y="696" type="line" smooth="yes"/>
      <point x="219" y="704" type="line" smooth="yes"/>
      <point x="205" y="739" type="line" smooth="yes"/>
      <point x="166" y="751" type="line" smooth="yes"/>
      <point x="111" y="751" type="line" smooth="yes"/>
      <point x="111" y="579" type="line" smooth="yes"/>
      <point x="127" y="579" type="line" smooth="yes"/>
      <point x="127" y="649" type="line" smooth="yes"/>
      <point x="170" y="649" type="line" smooth="yes"/>
      <point x="202" y="579" type="line" smooth="yes"/>
      <point x="219" y="579" type="line" smooth="yes"/>
      <point x="187" y="652" type="line" smooth="yes"/>
      <point x="211" y="667" type="line" smooth="yes"/>
    </contour>
    <contour>
      <point x="40" y="665" type="line" smooth="yes"/>
      <point x="77" y="753" type="line" smooth="yes"/>
      <point x="165" y="790" type="line" smooth="yes"/>
      <point x="253" y="753" type="line" smooth="yes"/>
      <point x="290" y="665" type="line" smooth="yes"/>
      <point x="253" y="577" type="line" smooth="yes"/>
      <point x="165" y="540" type="line" smooth="yes"/>
      <point x="77" y="577" type="line" smooth="yes"/>
    </contour>
    <contour>
      <point x="24" y="665" type="line" smooth="yes"/>
      <point x="65" y="565" type="line" smooth="yes"/>
      <point x="165" y="524" type="line" smooth="yes"/>
      <point x="265" y="565" type="line" smooth="yes"/>
      <point x="306" y="665" type="line" smooth="yes"/>
      <point x="265" y="765" type="line" smooth="yes"/>
      <point x="165" y="806" type="line" smooth="yes"/>
      <point x="65" y="765" type="line" smooth="yes"/>
    </contour>
  </outline>
</glyph>
<glyph name="degree" format="1">
  <advance width="398"/>
  <unicode hex="00B0"/>
  <outline>
    <contour>
      <point x="247" y="786" type="line" smooth="yes"/>
      <point x="143" y="749" type="line" smooth="yes"/>
      <point x="89" y="644" type="line" smooth="yes"/>
      <point x="88" y="636" type="line" smooth="yes"/>
      <point x="119" y="532" type="line" smooth="yes"/>
      <point x="222" y="494" type="line" smooth="yes"/>
      <point x="327" y="531" type="line" smooth="yes"/>
      <point x="380" y="636" type="line" smooth="yes"/>
      <point x="381" y="644" type="line" smooth="yes"/>
      <point x="350" y="748" type="line" smooth="yes"/>
    </contour>
    <contour>
      <point x="219" y="514" type="line" smooth="yes"/>
      <point x="133" y="546" type="line" smooth="yes"/>
      <point x="108" y="636" type="line" smooth="yes"/>
      <point x="109" y="644" type="line" smooth="yes"/>
      <point x="155" y="733" type="line" smooth="yes"/>
      <point x="244" y="766" type="line" smooth="yes"/>
      <point x="250" y="766" type="line" smooth="yes"/>
      <point x="336" y="734" type="line" smooth="yes"/>
      <point x="361" y="644" type="line" smooth="yes"/>
      <point x="360" y="636" type="line" smooth="yes"/>
      <point x="314" y="547" type="line" smooth="yes"/>
      <point x="225" y="514" type="line" smooth="yes"/>
    </contour>
  </outline>
</glyph>
<glyph name="plusminus" format="1">
  <advance width="600"/>
  <unicode hex="00B1"/>
  <outline>
    <contour>
      <point x="23" y="180" type="line" smooth="yes"/>
      <point x="522" y="180" type="line" smooth="yes"/>
      <point x="525" y="200" type="line" smooth="yes"/>
      <point x="26" y="200" type="line" smooth="yes"/>
    </contour>
    <contour>
      <point x="324" y="640" type="line" smooth="yes"/>
      <point x="303" y="480" type="line" smooth="yes"/>
      <point x="62" y="480" type="line" smooth="yes"/>
      <point x="59" y="460" type="line" smooth="yes"/>
      <point x="300" y="460" type="line" smooth="yes"/>
      <point x="279" y="300" type="line" smooth="yes"/>
      <point x="299" y="300" type="line" smooth="yes"/>
      <point x="320" y="460" type="line" smooth="yes"/>
      <point x="559" y="460" type="line" smooth="yes"/>
      <point x="562" y="480" type="line" smooth="yes"/>
      <point x="323" y="480" type="line" smooth="yes"/>
      <point x="344" y="640" type="line" smooth="yes"/>
    </contour>
  </outline>
</glyph>
<glyph name="threesuperior" format="1">
  <advance width="300"/>
  <unicode hex="00B3"/>
  <outline>
    <contour>
      <point x="154" y="404" type="line" smooth="yes"/>
      <point x="81" y="429" type="line" smooth="yes"/>
      <point x="65" y="515" type="line" smooth="yes"/>
      <point x="45" y="515" type="line" smooth="yes"/>
      <point x="44" y="505" type="line" smooth="yes"/>
      <point x="66" y="418" type="line" smooth="yes"/>
      <point x="157" y="385" type="line" smooth="yes"/>
      <point x="244" y="411" type="line" smooth="yes"/>
      <point x="287" y="486" type="line" smooth="yes"/>
      <point x="288" y="496" type="line" smooth="yes"/>
      <point x="275" y="558" type="line" smooth="yes"/>
      <point x="228" y="588" type="line" smooth="yes"/>
      <point x="284" y="618" type="line" smooth="yes"/>
      <point x="309" y="676" type="line" smooth="yes"/>
      <point x="310" y="686" type="line" smooth="yes"/>
      <point x="285" y="759" type="line" smooth="yes"/>
      <point x="200" y="785" type="line" smooth="yes"/>
      <point x="105" y="751" type="line" smooth="yes"/>
      <point x="67" y="660" type="line" smooth="yes"/>
      <point x="66" y="650" type="line" smooth="yes"/>
      <point x="86" y="650" type="line" smooth="yes"/>
      <point x="120" y="739" type="line" smooth="yes"/>
      <point x="197" y="766" type="line" smooth="yes"/>
      <point x="203" y="766" type="line" smooth="yes"/>
      <point x="270" y="744" type="line" smooth="yes"/>
      <point x="289" y="685" type="line" smooth="yes"/>
      <point x="288" y="675" type="line" smooth="yes"/>
      <point x="254" y="617" type="line" smooth="yes"/>
      <point x="185" y="598" type="line" smooth="yes"/>
      <point x="129" y="598" type="line" smooth="yes"/>
      <point x="126" y="578" type="line" smooth="yes"/>
      <point x="185" y="578" type="line" smooth="yes"/>
      <point x="248" y="558" type="line" smooth="yes"/>
      <point x="267" y="496" type="line" smooth="yes"/>
      <point x="266" y="486" type="line" smooth="yes"/>
      <point x="230" y="424" type="line" smooth="yes"/>
      <point x="160" y="404" type="line" smooth="yes"/>
    </contour>
  </outline>
</glyph>
<glyph name="cedilla" format="1">
  <advance width="602"/>
  <unicode hex="00B8"/>
  <outline>
    <contour>
      <point x="98" y="-186" type="line" smooth="yes"/>
      <point x="136" y="-201" type="line" smooth="yes"/>
      <point x="179" y="-206" type="line" smooth="yes"/>
      <point x="245" y="-189" type="line" smooth="yes"/>
      <point x="275" y="-126" type="line" smooth="yes"/>
      <point x="250" y="-77" type="line" smooth="yes"/>
      <point x="197" y="-64" type="line" smooth="yes"/>
      <point x="187" y="-64" type="line" smooth="yes"/>
      <point x="178" y="-65" type="line" smooth="yes"/>
      <point x="210" y="0" type="line" smooth="yes"/>
      <point x="191" y="0" type="line" smooth="yes"/>
      <point x="155" y="-73" type="line" smooth="yes"/>
      <point x="164" y="-84" type="line" smooth="yes"/>
      <point x="172" y="-83" type="line" smooth="yes"/>
      <point x="190" y="-82" type="line" smooth="yes"/>
      <point x="237" y="-89" type="line" smooth="yes"/>
      <point x="257" y="-126" type="line" smooth="yes"/>
      <point x="232" y="-176" type="line" smooth="yes"/>
      <point x="179" y="-188" type="line" smooth="yes"/>
      <point x="139" y="-183" type="line" smooth="yes"/>
      <point x="106" y="-170" type="line" smooth="yes"/>
    </contour>
  </outline>
</glyph>
<glyph name="ordmasculine" format="1">
  <advance width="407"/>
  <unicode hex="00BA"/>
  <outline>
    <contour>
      <point x="393" y="595" type="line" smooth="yes"/>
      <point x="357" y="748" type="line" smooth="yes"/>
      <point x="259" y="786" type="line" smooth="yes"/>
      <point x="150" y="750" type="line" smooth="yes"/>
      <point x="74" y="595" type="line" smooth="yes"/>
      <point x="71" y="571" type="line" smooth="yes"/>
      <point x="107" y="419" type="line" smooth="yes"/>
      <point x="205" y="380" type="line" smooth="yes"/>
      <point x="314" y="416" type="line" smooth="yes"/>
      <point x="390" y="571" type="line" smooth="yes"/>
    </contour>
    <contour>
      <point x="370" y="571" type="line" smooth="yes"/>
      <point x="313" y="441" type="line" smooth="yes"/>
      <point x="205" y="400" type="line" smooth="yes"/>
      <point x="115" y="440" type="line" smooth="yes"/>
      <point x="91" y="571" type="line" smooth="yes"/>
      <point x="94" y="595" type="line" smooth="yes"/>
      <point x="151" y="725" type="line" smooth="yes"/>
      <point x="259" y="766" type="line" smooth="yes"/>
      <point x="349" y="726" type="line" smooth="yes"/>
      <point x="373" y="595" type="line" smooth="yes"/>
    </contour>
    <contour>
      <point x="37" y="230" type="line" smooth="yes"/>
      <point x="335" y="230" type="line" smooth="yes"/>
      <point x="338" y="250" type="line" smooth="yes"/>
      <point x="40" y="250" type="line" smooth="yes"/>
    </contour>
  </outline>
</glyph>
<glyph name="threequarters" format="1">
  <advance width="800"/>
  <unicode hex="00BE"/>
  <outline>
    <contour>
      <point x="687" y="352" type="line" smooth="yes"/>
      <point x="658" y="130" type="line" smooth="yes"/>
      <point x="563" y="130" type="line" smooth="yes"/>
      <point x="511" y="129" type="line" smooth="yes"/>
    </contour>
    <contour>
      <point x="661" y="0" type="line" smooth="yes"/>
      <point x="675" y="110" type="line" smooth="yes"/>
      <point x="747" y="110" type="line" smooth="yes"/>
      <point x="750" y="130" type="line" smooth="yes"/>
      <point x="678" y="130" type="line" smooth="yes"/>
      <point x="712" y="390" type="line" smooth="yes"/>
      <point x="693" y="390" type="line" smooth="yes"/>
      <point x="484" y="125" type="line" smooth="yes"/>
      <point x="482" y="110" type="line" smooth="yes"/>
      <point x="655" y="110" type="line" smooth="yes"/>
      <point x="641" y="0" type="line" smooth="yes"/>
    </contour>
    <contour>
      <point x="77" y="0" type="line" smooth="yes"/>
      <point x="753" y="780" type="line" smooth="yes"/>
      <point x="727" y="780" type="line" smooth="yes"/>
      <point x="51" y="0" type="line" smooth="yes"/>
    </contour>
    <contour>
      <point x="154" y="404" type="line" smooth="yes"/>
      <point x="81" y="429" type="line" smooth="yes"/>
      <point x="65" y="515" type="line" smooth="yes"/>
      <point x="45" y="515" type="line" smooth="yes"/>
      <point x="44" y="505" type="line" smooth="yes"/>
      <point x="66" y="418" type="line" smooth="yes"/>
      <point x="157" y="385" type="line" smooth="yes"/>
      <point x="244" y="411" type="line" smooth="yes"/>
      <point x="287" y="486" type="line" smooth="yes"/>
      <point x="288" y="496" type="line" smooth="yes"/>
      <point x="275" y="558" type="line" smooth="yes"/>
      <point x="228" y="588" type="line" smooth="yes"/>
      <point x="284" y="618" type="line" smooth="yes"/>
      <point x="309" y="676" type="line" smooth="yes"/>
      <point x="310" y="686" type="line" smooth="yes"/>
      <point x="285" y="759" type="line" smooth="yes"/>
      <point x="200" y="785" type="line" smooth="yes"/>
      <point x="105" y="751" type="line" smooth="yes"/>
      <point x="67" y="660" type="line" smooth="yes"/>
      <point x="66" y="650" type="line" smooth="yes"/>
      <point x="86" y="650" type="line" smooth="yes"/>
      <point x="120" y="739" type="line" smooth="yes"/>
      <point x="197" y="766" type="line" smooth="yes"/>
      <point x="203" y="766" type="line" smooth="yes"/>
      <point x="270" y="744" type="line" smooth="yes"/>
      <point x="289" y="685" type="line" smooth="yes"/>
      <point x="288" y="675" type="line" smooth="yes"/>
      <point x="254" y="617" type="line" smooth="yes"/>
      <point x="185" y="598" type="line" smooth="yes"/>
      <point x="129" y="598" type="line" smooth="yes"/>
      <point x="126" y="578" type="line" smooth="yes"/>
      <point x="185" y="578" type="line" smooth="yes"/>
      <point x="248" y="558" type="line" smooth="yes"/>
      <point x="267" y="496" type="line" smooth="yes"/>
      <point x="266" y="486" type="line" smooth="yes"/>
      <point x="230" y="424" type="line" smooth="yes"/>
      <point x="160" y="404" type="line" smooth="yes"/>
    </contour>
  </outline>
</glyph>
<glyph name="questiondown" format="1">
  <advance width="440"/>
  <unicode hex="00BF"/>
  <outline>
    <contour>
      <point x="215" y="490" type="line" smooth="yes"/>
      <point x="255" y="490" type="line" smooth="yes"/>
      <point x="260" y="530" type="line" smooth="yes"/>
      <point x="220" y="530" type="line" smooth="yes"/>
    </contour>
    <contour>
      <point x="141" y="-206" type="line" smooth="yes"/>
      <point x="293" y="-140" type="line" smooth="yes"/>
      <point x="362" y="36" type="line" smooth="yes"/>
      <point x="365" y="60" type="line" smooth="yes"/>
      <point x="345" y="60" type="line" smooth="yes"/>
      <point x="281" y="-121" type="line" smooth="yes"/>
      <point x="141" y="-186" type="line" smooth="yes"/>
      <point x="31" y="-143" type="line" smooth="yes"/>
      <point x="0" y="-45" type="line" smooth="yes"/>
      <point x="103" y="143" type="line" smooth="yes"/>
      <point x="224" y="355" type="line" smooth="yes"/>
      <point x="210" y="355" type="line" smooth="yes"/>
      <point x="84" y="151" type="line" smooth="yes"/>
      <point x="-21" y="-44" type="line" smooth="yes"/>
      <point x="16" y="-158" type="line" smooth="yes"/>
    </contour>
  </outline>
</glyph>
<glyph name="Acircumflex" format="1">
  <advance width="590"/>
  <unicode hex="00C2"/>
  <outline>
    <contour>
      <point x="271" y="840" type="line" smooth="yes"/>
      <point x="370" y="935" type="line" smooth="yes"/>
      <point x="443" y="840" type="line" smooth="yes"/>
      <point x="466" y="840" type="line" smooth="yes"/>
      <point x="381" y="950" type="line" smooth="yes"/>
      <point x="361" y="950" type="line" smooth="yes"/>
      <point x="246" y="840" type="line" smooth="yes"/>
    </contour>
    <contour>
      <point x="347" y="760" type="line" smooth="yes"/>
      <point x="440" y="250" type="line" smooth="yes"/>
      <point x="119" y="250" type="line" smooth="yes"/>
    </contour>
    <contour>
      <point x="340" y="790" type="line" smooth="yes"/>
      <point x="-14" y="0" type="line" smooth="yes"/>
      <point x="8" y="0" type="line" smooth="yes"/>
      <point x="110" y="230" type="line" smooth="yes"/>
      <point x="444" y="230" type="line" smooth="yes"/>
      <point x="486" y="0" type="line" smooth="yes"/>
      <point x="506" y="0" type="line" smooth="yes"/>
      <point x="360" y="790" type="line" smooth="yes"/>
    </contour>
  </outline>
</glyph>
<glyph name="Atilde" format="1">
  <advance width="590"/>
  <unicode hex="00C3"/>
  <outline>
    <contour>
      <point x="485" y="927" type="line" smooth="yes"/>
      <point x="464" y="884" type="line" smooth="yes"/>
      <point x="431" y="875" type="line" smooth="yes"/>
      <point x="365" y="904" type="line" smooth="yes"/>
      <point x="296" y="933" type="line" smooth="yes"/>
      <point x="251" y="919" type="line" smooth="yes"/>
      <point x="224" y="863" type="line" smooth="yes"/>
      <point x="242" y="863" type="line" smooth="yes"/>
      <point x="263" y="906" type="line" smooth="yes"/>
      <point x="296" y="915" type="line" smooth="yes"/>
      <point x="362" y="886" type="line" smooth="yes"/>
      <point x="431" y="857" type="line" smooth="yes"/>
      <point x="476" y="871" type="line" smooth="yes"/>
      <point x="503" y="927" type="line" smooth="yes"/>
    </contour>
    <contour>
      <point x="347" y="760" type="line" smooth="yes"/>
      <point x="440" y="250" type="line" smooth="yes"/>
      <point x="119" y="250" type="line" smooth="yes"/>
    </contour>
    <contour>
      <point x="340" y="790" type="line" smooth="yes"/>
      <point x="-14" y="0" type="line" smooth="yes"/>
      <point x="8" y="0" type="line" smooth="yes"/>
      <point x="110" y="230" type="line" smooth="yes"/>
      <point x="444" y="230" type="line" smooth="yes"/>
      <point x="486" y="0" type="line" smooth="yes"/>
      <point x="506" y="0" type="line" smooth="yes"/>
      <point x="360" y="790" type="line" smooth="yes"/>
    </contour>
  </outline>
</glyph>
<glyph name="Adieresis" format="1">
  <advance width="590"/>
  <unicode hex="00C4"/>
  <outline>
    <contour>
      <point x="456" y="915" type="line" smooth="yes"/>
      <point x="416" y="915" type="line" smooth="yes"/>
      <point x="411" y="875" type="line" smooth="yes"/>
      <point x="451" y="875" type="line" smooth="yes"/>
    </contour>
    <contour>
      <point x="316" y="915" type="line" smooth="yes"/>
      <point x="276" y="915" type="line" smooth="yes"/>
      <point x="271" y="875" type="line" smooth="yes"/>
      <point x="311" y="875" type="line" smooth="yes"/>
    </contour>
    <contour>
      <point x="347" y="760" type="line" smooth="yes"/>
      <point x="440" y="250" type="line" smooth="yes"/>
      <point x="119" y="250" type="line" smooth="yes"/>
    </contour>
    <contour>
      <point x="340" y="790" type="line" smooth="yes"/>
      <point x="-14" y="0" type="line" smooth="yes"/>
      <point x="8" y="0" type="line" smooth="yes"/>
      <point x="110" y="230" type="line" smooth="yes"/>
      <point x="444" y="230" type="line" smooth="yes"/>
      <point x="486" y="0" type="line" smooth="yes"/>
      <point x="506" y="0" type="line" smooth="yes"/>
      <point x="360" y="790" type="line" smooth="yes"/>
    </contour>
  </outline>
</glyph>
<glyph name="Aring" format="1">
  <advance width="590"/>
  <unicode hex="00C5"/>
  <outline>
    <contour>
      <point x="367" y="956" type="line" smooth="yes"/>
      <point x="301" y="929" type="line" smooth="yes"/>
      <point x="272" y="862" type="line" smooth="yes"/>
      <point x="290" y="809" type="line" smooth="yes"/>
      <point x="338" y="785" type="line" smooth="yes"/>
      <point x="-14" y="0" type="line" smooth="yes"/>
      <point x="8" y="0" type="line" smooth="yes"/>
      <point x="110" y="230" type="line" smooth="yes"/>
      <point x="444" y="230" type="line" smooth="yes"/>
      <point x="486" y="0" type="line" smooth="yes"/>
      <point x="506" y="0" type="line" smooth="yes"/>
      <point x="361" y="784" type="line" smooth="yes"/>
      <point x="421" y="815" type="line" smooth="yes"/>
      <point x="447" y="878" type="line" smooth="yes"/>
      <point x="425" y="935" type="line" smooth="yes"/>
    </contour>
    <contour>
      <point x="367" y="938" type="line" smooth="yes"/>
      <point x="411" y="923" type="line" smooth="yes"/>
      <point x="428" y="878" type="line" smooth="yes"/>
      <point x="406" y="823" type="line" smooth="yes"/>
      <point x="352" y="802" type="line" smooth="yes"/>
      <point x="308" y="817" type="line" smooth="yes"/>
      <point x="291" y="862" type="line" smooth="yes"/>
      <point x="313" y="917" type="line" smooth="yes"/>
    </contour>
    <contour>
      <point x="347" y="760" type="line" smooth="yes"/>
      <point x="440" y="250" type="line" smooth="yes"/>
      <point x="119" y="250" type="line" smooth="yes"/>
    </contour>
  </outline>
</glyph>
<glyph name="Ccedilla" format="1">
  <advance width="587"/>
  <unicode hex="00C7"/>
  <outline>
    <contour>
      <point x="164" y="-186" type="line" smooth="yes"/>
      <point x="202" y="-201" type="line" smooth="yes"/>
      <point x="245" y="-206" type="line" smooth="yes"/>
      <point x="311" y="-189" type="line" smooth="yes"/>
      <point x="341" y="-126" type="line" smooth="yes"/>
      <point x="316" y="-77" type="line" smooth="yes"/>
      <point x="263" y="-64" type="line" smooth="yes"/>
      <point x="253" y="-64" type="line" smooth="yes"/>
      <point x="244" y="-65" type="line" smooth="yes"/>
      <point x="273" y="-6" type="line" smooth="yes"/>
      <point x="444" y="57" type="line" smooth="yes"/>
      <point x="516" y="226" type="line" smooth="yes"/>
      <point x="519" y="250" type="line" smooth="yes"/>
      <point x="499" y="250" type="line" smooth="yes"/>
      <point x="422" y="66" type="line" smooth="yes"/>
      <point x="270" y="14" type="line" smooth="yes"/>
      <point x="264" y="14" type="line" smooth="yes"/>
      <point x="106" y="99" type="line" smooth="yes"/>
      <point x="86" y="378" type="line" smooth="yes"/>
      <point x="89" y="402" type="line" smooth="yes"/>
      <point x="182" y="683" type="line" smooth="yes"/>
      <point x="363" y="766" type="line" smooth="yes"/>
      <point x="369" y="766" type="line" smooth="yes"/>
      <point x="512" y="710" type="line" smooth="yes"/>
      <point x="531" y="500" type="line" smooth="yes"/>
      <point x="551" y="500" type="line" smooth="yes"/>
      <point x="554" y="524" type="line" smooth="yes"/>
      <point x="526" y="726" type="line" smooth="yes"/>
      <point x="366" y="786" type="line" smooth="yes"/>
      <point x="168" y="698" type="line" smooth="yes"/>
      <point x="68" y="402" type="line" smooth="yes"/>
      <point x="65" y="378" type="line" smooth="yes"/>
      <point x="88" y="90" type="line" smooth="yes"/>
      <point x="254" y="-6" type="line" smooth="yes"/>
      <point x="221" y="-73" type="line" smooth="yes"/>
      <point x="230" y="-84" type="line" smooth="yes"/>
      <point x="238" y="-83" type="line" smooth="yes"/>
      <point x="256" y="-82" type="line" smooth="yes"/>
      <point x="303" y="-89" type="line" smooth="yes"/>
      <point x="323" y="-126" type="line" smooth="yes"/>
      <point x="298" y="-176" type="line" smooth="yes"/>
      <point x="245" y="-188" type="line" smooth="yes"/>
      <point x="205" y="-183" type="line" smooth="yes"/>
      <point x="172" y="-170" type="line" smooth="yes"/>
    </contour>
  </outline>
</glyph>
<glyph name="Eth" format="1">
  <advance width="663"/>
  <unicode hex="00D0"/>
  <outline>
    <contour>
      <point x="109" y="20" type="line" smooth="yes"/>
      <point x="157" y="388" type="line" smooth="yes"/>
      <point x="387" y="388" type="line" smooth="yes"/>
      <point x="390" y="408" type="line" smooth="yes"/>
      <point x="160" y="408" type="line" smooth="yes"/>
      <point x="206" y="760" type="line" smooth="yes"/>
      <point x="376" y="760" type="line" smooth="yes"/>
      <point x="556" y="679" type="line" smooth="yes"/>
      <point x="592" y="402" type="line" smooth="yes"/>
      <point x="589" y="378" type="line" smooth="yes"/>
      <point x="477" y="100" type="line" smooth="yes"/>
      <point x="270" y="20" type="line" smooth="yes"/>
    </contour>
    <contour>
      <point x="27" y="388" type="line" smooth="yes"/>
      <point x="137" y="388" type="line" smooth="yes"/>
      <point x="86" y="0" type="line" smooth="yes"/>
      <point x="270" y="0" type="line" smooth="yes"/>
      <point x="489" y="84" type="line" smooth="yes"/>
      <point x="610" y="378" type="line" smooth="yes"/>
      <point x="613" y="402" type="line" smooth="yes"/>
      <point x="570" y="696" type="line" smooth="yes"/>
      <point x="376" y="780" type="line" smooth="yes"/>
      <point x="188" y="780" type="line" smooth="yes"/>
      <point x="139" y="408" type="line" smooth="yes"/>
      <point x="30" y="408" type="line" smooth="yes"/>
    </contour>
  </outline>
</glyph>
<glyph name="Ntilde" format="1">
  <advance width="640"/>
  <unicode hex="00D1"/>
  <outline>
    <contour>
      <point x="510" y="927" type="line" smooth="yes"/>
      <point x="489" y="884" type="line" smooth="yes"/>
      <point x="456" y="875" type="line" smooth="yes"/>
      <point x="390" y="904" type="line" smooth="yes"/>
      <point x="321" y="933" type="line" smooth="yes"/>
      <point x="276" y="919" type="line" smooth="yes"/>
      <point x="249" y="863" type="line" smooth="yes"/>
      <point x="267" y="863" type="line" smooth="yes"/>
      <point x="288" y="906" type="line" smooth="yes"/>
      <point x="321" y="915" type="line" smooth="yes"/>
      <point x="387" y="886" type="line" smooth="yes"/>
      <point x="456" y="857" type="line" smooth="yes"/>
      <point x="501" y="871" type="line" smooth="yes"/>
      <point x="528" y="927" type="line" smooth="yes"/>
    </contour>
    <contour>
      <point x="496" y="32" type="line" smooth="yes"/>
      <point x="155" y="780" type="line" smooth="yes"/>
      <point x="133" y="780" type="line" smooth="yes"/>
      <point x="31" y="0" type="line" smooth="yes"/>
      <point x="51" y="0" type="line" smooth="yes"/>
      <point x="130" y="605" type="line" smooth="yes"/>
      <point x="148" y="748" type="line" smooth="yes"/>
      <point x="489" y="0" type="line" smooth="yes"/>
      <point x="511" y="0" type="line" smooth="yes"/>
      <point x="613" y="780" type="line" smooth="yes"/>
      <point x="593" y="780" type="line" smooth="yes"/>
      <point x="514" y="175" type="line" smooth="yes"/>
    </contour>
  </outline>
</glyph>
<glyph name="Oslash" format="1">
  <advance width="626"/>
  <unicode hex="00D8"/>
  <outline>
    <contour>
      <point x="544" y="378" type="line" smooth="yes"/>
      <point x="454" y="97" type="line" smooth="yes"/>
      <point x="275" y="14" type="line" smooth="yes"/>
      <point x="269" y="14" type="line" smooth="yes"/>
      <point x="173" y="34" type="line" smooth="yes"/>
      <point x="110" y="96" type="line" smooth="yes"/>
      <point x="532" y="665" type="line" smooth="yes"/>
      <point x="555" y="556" type="line" smooth="yes"/>
      <point x="547" y="402" type="line" smooth="yes"/>
    </contour>
    <contour>
      <point x="39" y="0" type="line" smooth="yes"/>
      <point x="97" y="78" type="line" smooth="yes"/>
      <point x="168" y="15" type="line" smooth="yes"/>
      <point x="272" y="-6" type="line" smooth="yes"/>
      <point x="467" y="82" type="line" smooth="yes"/>
      <point x="565" y="378" type="line" smooth="yes"/>
      <point x="568" y="402" type="line" smooth="yes"/>
      <point x="574" y="568" type="line" smooth="yes"/>
      <point x="546" y="684" type="line" smooth="yes"/>
      <point x="617" y="780" type="line" smooth="yes"/>
      <point x="594" y="780" type="line" smooth="yes"/>
      <point x="536" y="702" type="line" smooth="yes"/>
      <point x="465" y="765" type="line" smooth="yes"/>
      <point x="361" y="786" type="line" smooth="yes"/>
      <point x="166" y="698" type="line" smooth="yes"/>
      <point x="68" y="402" type="line" smooth="yes"/>
      <point x="65" y="378" type="line" smooth="yes"/>
      <point x="59" y="212" type="line" smooth="yes"/>
      <point x="87" y="96" type="line" smooth="yes"/>
      <point x="16" y="0" type="line" smooth="yes"/>
    </contour>
    <contour>
      <point x="86" y="378" type="line" smooth="yes"/>
      <point x="89" y="402" type="line" smooth="yes"/>
      <point x="179" y="683" type="line" smooth="yes"/>
      <point x="358" y="766" type="line" smooth="yes"/>
      <point x="364" y="766" type="line" smooth="yes"/>
      <point x="460" y="746" type="line" smooth="yes"/>
      <point x="523" y="684" type="line" smooth="yes"/>
      <point x="101" y="115" type="line" smooth="yes"/>
      <point x="79" y="224" type="line" smooth="yes"/>
    </contour>
  </outline>
</glyph>
<glyph name="Udieresis" format="1">
  <advance width="620"/>
  <unicode hex="00DC"/>
  <outline>
    <contour>
      <point x="471" y="915" type="line" smooth="yes"/>
      <point x="431" y="915" type="line" smooth="yes"/>
      <point x="426" y="875" type="line" smooth="yes"/>
      <point x="466" y="875" type="line" smooth="yes"/>
    </contour>
    <contour>
      <point x="331" y="915" type="line" smooth="yes"/>
      <point x="291" y="915" type="line" smooth="yes"/>
      <point x="286" y="875" type="line" smooth="yes"/>
      <point x="326" y="875" type="line" smooth="yes"/>
    </contour>
    <contour>
      <point x="267" y="-6" type="line" smooth="yes"/>
      <point x="439" y="44" type="line" smooth="yes"/>
      <point x="525" y="239" type="line" smooth="yes"/>
      <point x="596" y="780" type="line" smooth="yes"/>
      <point x="576" y="780" type="line" smooth="yes"/>
      <point x="506" y="245" type="line" smooth="yes"/>
      <point x="428" y="62" type="line" smooth="yes"/>
      <point x="267" y="14" type="line" smooth="yes"/>
      <point x="114" y="61" type="line" smooth="yes"/>
      <point x="80" y="244" type="line" smooth="yes"/>
      <point x="150" y="780" type="line" smooth="yes"/>
      <point x="130" y="780" type="line" smooth="yes"/>
      <point x="59" y="239" type="line" smooth="yes"/>
      <point x="101" y="44" type="line" smooth="yes"/>
    </contour>
  </outline>
</glyph>
<glyph name="Yacute" format="1">
  <advance width="540"/>
  <unicode hex="00DD"/>
  <outline>
    <contour>
      <point x="392" y="950" type="line" smooth="yes"/>
      <point x="315" y="840" type="line" smooth="yes"/>
      <point x="337" y="840" type="line" smooth="yes"/>
      <point x="414" y="950" type="line" smooth="yes"/>
    </contour>
    <contour>
      <point x="248" y="253" type="line" smooth="yes"/>
      <point x="89" y="780" type="line" smooth="yes"/>
      <point x="68" y="780" type="line" smooth="yes"/>
      <point x="236" y="230" type="line" smooth="yes"/>
      <point x="206" y="0" type="line" smooth="yes"/>
      <point x="226" y="0" type="line" smooth="yes"/>
      <point x="256" y="230" type="line" smooth="yes"/>
      <point x="568" y="780" type="line" smooth="yes"/>
      <point x="545" y="780" type="line" smooth="yes"/>
    </contour>
  </outline>
</glyph>
<glyph name="germandbls" format="1">
  <advance width="548"/>
  <unicode hex="00DF"/>
  <outline>
    <contour>
      <point x="261" y="393" type="line" smooth="yes"/>
      <point x="312" y="356" type="line" smooth="yes"/>
      <point x="420" y="272" type="line" smooth="yes"/>
      <point x="463" y="176" type="line" smooth="yes"/>
      <point x="420" y="58" type="line" smooth="yes"/>
      <point x="305" y="14" type="line" smooth="yes"/>
      <point x="198" y="57" type="line" smooth="yes"/>
      <point x="182" y="160" type="line" smooth="yes"/>
      <point x="162" y="160" type="line" smooth="yes"/>
      <point x="160" y="144" type="line" smooth="yes"/>
      <point x="184" y="42" type="line" smooth="yes"/>
      <point x="305" y="-6" type="line" smooth="yes"/>
      <point x="432" y="43" type="line" smooth="yes"/>
      <point x="480" y="149" type="line" smooth="yes"/>
      <point x="481" y="157" type="line" smooth="yes"/>
      <point x="450" y="266" type="line" smooth="yes"/>
      <point x="333" y="365" type="line" smooth="yes"/>
      <point x="285" y="399" type="line" smooth="yes"/>
      <point x="414" y="492" type="line" smooth="yes"/>
      <point x="470" y="606" type="line" smooth="yes"/>
      <point x="471" y="614" type="line" smooth="yes"/>
      <point x="447" y="751" type="line" smooth="yes"/>
      <point x="310" y="806" type="line" smooth="yes"/>
      <point x="170" y="754" type="line" smooth="yes"/>
      <point x="111" y="614" type="line" smooth="yes"/>
      <point x="31" y="0" type="line" smooth="yes"/>
      <point x="51" y="0" type="line" smooth="yes"/>
      <point x="131" y="610" type="line" smooth="yes"/>
      <point x="183" y="740" type="line" smooth="yes"/>
      <point x="310" y="786" type="line" smooth="yes"/>
      <point x="420" y="750" type="line" smooth="yes"/>
      <point x="454" y="648" type="line" smooth="yes"/>
      <point x="404" y="507" type="line" smooth="yes"/>
      <point x="263" y="408" type="line" smooth="yes"/>
    </contour>
  </outline>
</glyph>
<glyph name="agrave" format="1">
  <advance width="482"/>
  <unicode hex="00E0"/>
  <outline>
    <contour>
      <point x="197" y="780" type="line" smooth="yes"/>
      <point x="266" y="620" type="line" smooth="yes"/>
      <point x="288" y="620" type="line" smooth="yes"/>
      <point x="219" y="780" type="line" smooth="yes"/>
    </contour>
    <contour>
      <point x="158" y="14" type="line" smooth="yes"/>
      <point x="62" y="47" type="line" smooth="yes"/>
      <point x="38" y="128" type="line" smooth="yes"/>
      <point x="40" y="144" type="line" smooth="yes"/>
      <point x="93" y="236" type="line" smooth="yes"/>
      <point x="193" y="267" type="line" smooth="yes"/>
      <point x="384" y="296" type="line" smooth="yes"/>
      <point x="360" y="111" type="line" smooth="yes"/>
      <point x="297" y="51" type="line" smooth="yes"/>
    </contour>
    <contour>
      <point x="18" y="128" type="line" smooth="yes"/>
      <point x="52" y="27" type="line" smooth="yes"/>
      <point x="158" y="-6" type="line" smooth="yes"/>
      <point x="290" y="25" type="line" smooth="yes"/>
      <point x="360" y="86" type="line" smooth="yes"/>
      <point x="355" y="0" type="line" smooth="yes"/>
      <point x="371" y="0" type="line" smooth="yes"/>
      <point x="381" y="118" type="line" smooth="yes"/>
      <point x="413" y="364" type="line" smooth="yes"/>
      <point x="394" y="485" type="line" smooth="yes"/>
      <point x="263" y="536" type="line" smooth="yes"/>
      <point x="119" y="484" type="line" smooth="yes"/>
      <point x="74" y="366" type="line" smooth="yes"/>
      <point x="72" y="350" type="line" smooth="yes"/>
      <point x="92" y="350" type="line" smooth="yes"/>
      <point x="133" y="469" type="line" smooth="yes"/>
      <point x="263" y="516" type="line" smooth="yes"/>
      <point x="380" y="468" type="line" smooth="yes"/>
      <point x="392" y="354" type="line" smooth="yes"/>
      <point x="387" y="316" type="line" smooth="yes"/>
      <point x="203" y="288" type="line" smooth="yes"/>
      <point x="83" y="252" type="line" smooth="yes"/>
      <point x="20" y="144" type="line" smooth="yes"/>
    </contour>
  </outline>
</glyph>
<glyph name="atilde" format="1">
  <advance width="485"/>
  <unicode hex="00E3"/>
  <outline>
    <contour>
      <point x="409" y="732" type="line" smooth="yes"/>
      <point x="388" y="689" type="line" smooth="yes"/>
      <point x="355" y="680" type="line" smooth="yes"/>
      <point x="289" y="709" type="line" smooth="yes"/>
      <point x="220" y="738" type="line" smooth="yes"/>
      <point x="175" y="724" type="line" smooth="yes"/>
      <point x="148" y="668" type="line" smooth="yes"/>
      <point x="166" y="668" type="line" smooth="yes"/>
      <point x="187" y="711" type="line" smooth="yes"/>
      <point x="220" y="720" type="line" smooth="yes"/>
      <point x="286" y="691" type="line" smooth="yes"/>
      <point x="355" y="662" type="line" smooth="yes"/>
      <point x="400" y="676" type="line" smooth="yes"/>
      <point x="427" y="732" type="line" smooth="yes"/>
    </contour>
    <contour>
      <point x="158" y="14" type="line" smooth="yes"/>
      <point x="62" y="47" type="line" smooth="yes"/>
      <point x="38" y="128" type="line" smooth="yes"/>
      <point x="40" y="144" type="line" smooth="yes"/>
      <point x="93" y="236" type="line" smooth="yes"/>
      <point x="193" y="267" type="line" smooth="yes"/>
      <point x="384" y="296" type="line" smooth="yes"/>
      <point x="360" y="111" type="line" smooth="yes"/>
      <point x="297" y="51" type="line" smooth="yes"/>
    </contour>
    <contour>
      <point x="18" y="128" type="line" smooth="yes"/>
      <point x="52" y="27" type="line" smooth="yes"/>
      <point x="158" y="-6" type="line" smooth="yes"/>
      <point x="290" y="25" type="line" smooth="yes"/>
      <point x="360" y="86" type="line" smooth="yes"/>
      <point x="355" y="0" type="line" smooth="yes"/>
      <point x="371" y="0" type="line" smooth="yes"/>
      <point x="381" y="118" type="line" smooth="yes"/>
      <point x="413" y="364" type="line" smooth="yes"/>
      <point x="394" y="485" type="line" smooth="yes"/>
      <point x="263" y="536" type="line" smooth="yes"/>
      <point x="119" y="484" type="line" smooth="yes"/>
      <point x="74" y="366" type="line" smooth="yes"/>
      <point x="72" y="350" type="line" smooth="yes"/>
      <point x="92" y="350" type="line" smooth="yes"/>
      <point x="133" y="469" type="line" smooth="yes"/>
      <point x="263" y="516" type="line" smooth="yes"/>
      <point x="380" y="468" type="line" smooth="yes"/>
      <point x="392" y="354" type="line" smooth="yes"/>
      <point x="387" y="316" type="line" smooth="yes"/>
      <point x="203" y="288" type="line" smooth="yes"/>
      <point x="83" y="252" type="line" smooth="yes"/>
      <point x="20" y="144" type="line" smooth="yes"/>
    </contour>
  </outline>
</glyph>
<glyph name="aring" format="1">
  <advance width="482"/>
  <unicode hex="00E5"/>
  <outline>
    <contour>
      <point x="295" y="786" type="line" smooth="yes"/>
      <point x="229" y="759" type="line" smooth="yes"/>
      <point x="200" y="692" type="line" smooth="yes"/>
      <point x="222" y="635" type="line" smooth="yes"/>
      <point x="280" y="614" type="line" smooth="yes"/>
      <point x="346" y="642" type="line" smooth="yes"/>
      <point x="375" y="708" type="line" smooth="yes"/>
      <point x="353" y="765" type="line" smooth="yes"/>
    </contour>
    <contour>
      <point x="295" y="768" type="line" smooth="yes"/>
      <point x="339" y="753" type="line" smooth="yes"/>
      <point x="356" y="708" type="line" smooth="yes"/>
      <point x="334" y="653" type="line" smooth="yes"/>
      <point x="280" y="632" type="line" smooth="yes"/>
      <point x="236" y="647" type="line" smooth="yes"/>
      <point x="219" y="692" type="line" smooth="yes"/>
      <point x="241" y="747" type="line" smooth="yes"/>
    </contour>
    <contour>
      <point x="158" y="14" type="line" smooth="yes"/>
      <point x="62" y="47" type="line" smooth="yes"/>
      <point x="38" y="128" type="line" smooth="yes"/>
      <point x="40" y="144" type="line" smooth="yes"/>
      <point x="93" y="236" type="line" smooth="yes"/>
      <point x="193" y="267" type="line" smooth="yes"/>
      <point x="384" y="296" type="line" smooth="yes"/>
      <point x="360" y="111" type="line" smooth="yes"/>
      <point x="297" y="51" type="line" smooth="yes"/>
    </contour>
    <contour>
      <point x="18" y="128" type="line" smooth="yes"/>
      <point x="52" y="27" type="line" smooth="yes"/>
      <point x="158" y="-6" type="line" smooth="yes"/>
      <point x="290" y="25" type="line" smooth="yes"/>
      <point x="360" y="86" type="line" smooth="yes"/>
      <point x="355" y="0" type="line" smooth="yes"/>
      <point x="371" y="0" type="line" smooth="yes"/>
      <point x="381" y="118" type="line" smooth="yes"/>
      <point x="413" y="364" type="line" smooth="yes"/>
      <point x="394" y="485" type="line" smooth="yes"/>
      <point x="263" y="536" type="line" smooth="yes"/>
      <point x="119" y="484" type="line" smooth="yes"/>
      <point x="74" y="366" type="line" smooth="yes"/>
      <point x="72" y="350" type="line" smooth="yes"/>
      <point x="92" y="350" type="line" smooth="yes"/>
      <point x="133" y="469" type="line" smooth="yes"/>
      <point x="263" y="516" type="line" smooth="yes"/>
      <point x="380" y="468" type="line" smooth="yes"/>
      <point x="392" y="354" type="line" smooth="yes"/>
      <point x="387" y="316" type="line" smooth="yes"/>
      <point x="203" y="288" type="line" smooth="yes"/>
      <point x="83" y="252" type="line" smooth="yes"/>
      <point x="20" y="144" type="line" smooth="yes"/>
    </contour>
  </outline>
</glyph>
<glyph name="ae" format="1">
  <advance width="860"/>
  <unicode hex="00E6"/>
  <outline>
    <contour>
      <point x="622" y="516" type="line" smooth="yes"/>
      <point x="759" y="448" type="line" smooth="yes"/>
      <point x="782" y="275" type="line" smooth="yes"/>
      <point x="402" y="275" type="line" smooth="yes"/>
      <point x="473" y="452" type="line" smooth="yes"/>
    </contour>
    <contour>
      <point x="573" y="-6" type="line" smooth="yes"/>
      <point x="732" y="46" type="line" smooth="yes"/>
      <point x="786" y="154" type="line" smooth="yes"/>
      <point x="788" y="170" type="line" smooth="yes"/>
      <point x="768" y="170" type="line" smooth="yes"/>
      <point x="719" y="61" type="line" smooth="yes"/>
      <point x="573" y="14" type="line" smooth="yes"/>
      <point x="433" y="78" type="line" smooth="yes"/>
      <point x="399" y="255" type="line" smooth="yes"/>
      <point x="799" y="255" type="line" smooth="yes"/>
      <point x="801" y="271" type="line" smooth="yes"/>
      <point x="777" y="461" type="line" smooth="yes"/>
      <point x="622" y="536" type="line" smooth="yes"/>
      <point x="501" y="502" type="line" smooth="yes"/>
      <point x="414" y="392" type="line" smooth="yes"/>
      <point x="388" y="493" type="line" smooth="yes"/>
      <point x="263" y="536" type="line" smooth="yes"/>
      <point x="119" y="484" type="line" smooth="yes"/>
      <point x="74" y="366" type="line" smooth="yes"/>
      <point x="72" y="350" type="line" smooth="yes"/>
      <point x="92" y="350" type="line" smooth="yes"/>
      <point x="133" y="469" type="line" smooth="yes"/>
      <point x="263" y="516" type="line" smooth="yes"/>
      <point x="380" y="469" type="line" smooth="yes"/>
      <point x="392" y="354" type="line" smooth="yes"/>
      <point x="387" y="316" type="line" smooth="yes"/>
      <point x="203" y="288" type="line" smooth="yes"/>
      <point x="83" y="256" type="line" smooth="yes"/>
      <point x="20" y="144" type="line" smooth="yes"/>
      <point x="18" y="128" type="line" smooth="yes"/>
      <point x="52" y="27" type="line" smooth="yes"/>
      <point x="158" y="-6" type="line" smooth="yes"/>
      <point x="308" y="36" type="line" smooth="yes"/>
      <point x="388" y="122" type="line" smooth="yes"/>
      <point x="452" y="30" type="line" smooth="yes"/>
    </contour>
    <contour>
      <point x="158" y="14" type="line" smooth="yes"/>
      <point x="62" y="47" type="line" smooth="yes"/>
      <point x="38" y="128" type="line" smooth="yes"/>
      <point x="40" y="144" type="line" smooth="yes"/>
      <point x="93" y="237" type="line" smooth="yes"/>
      <point x="193" y="267" type="line" smooth="yes"/>
      <point x="384" y="296" type="line" smooth="yes"/>
      <point x="379" y="253" type="line" smooth="yes"/>
      <point x="376" y="197" type="line" smooth="yes"/>
      <point x="382" y="143" type="line" smooth="yes"/>
      <point x="305" y="57" type="line" smooth="yes"/>
    </contour>
  </outline>
</glyph>
<glyph name="ccedilla" format="1">
  <advance width="503"/>
  <unicode hex="00E7"/>
  <outline>
    <contour>
      <point x="116" y="-186" type="line" smooth="yes"/>
      <point x="154" y="-201" type="line" smooth="yes"/>
      <point x="197" y="-206" type="line" smooth="yes"/>
      <point x="263" y="-189" type="line" smooth="yes"/>
      <point x="293" y="-126" type="line" smooth="yes"/>
      <point x="268" y="-77" type="line" smooth="yes"/>
      <point x="215" y="-64" type="line" smooth="yes"/>
      <point x="205" y="-64" type="line" smooth="yes"/>
      <point x="196" y="-65" type="line" smooth="yes"/>
      <point x="225" y="-6" type="line" smooth="yes"/>
      <point x="370" y="49" type="line" smooth="yes"/>
      <point x="422" y="159" type="line" smooth="yes"/>
      <point x="424" y="175" type="line" smooth="yes"/>
      <point x="404" y="175" type="line" smooth="yes"/>
      <point x="352" y="59" type="line" smooth="yes"/>
      <point x="220" y="14" type="line" smooth="yes"/>
      <point x="87" y="78" type="line" smooth="yes"/>
      <point x="59" y="253" type="line" smooth="yes"/>
      <point x="62" y="277" type="line" smooth="yes"/>
      <point x="131" y="452" type="line" smooth="yes"/>
      <point x="278" y="516" type="line" smooth="yes"/>
      <point x="405" y="468" type="line" smooth="yes"/>
      <point x="426" y="345" type="line" smooth="yes"/>
      <point x="446" y="345" type="line" smooth="yes"/>
      <point x="448" y="361" type="line" smooth="yes"/>
      <point x="423" y="480" type="line" smooth="yes"/>
      <point x="278" y="536" type="line" smooth="yes"/>
      <point x="117" y="467" type="line" smooth="yes"/>
      <point x="42" y="277" type="line" smooth="yes"/>
      <point x="39" y="253" type="line" smooth="yes"/>
      <point x="68" y="67" type="line" smooth="yes"/>
      <point x="206" y="-6" type="line" smooth="yes"/>
      <point x="173" y="-73" type="line" smooth="yes"/>
      <point x="182" y="-84" type="line" smooth="yes"/>
      <point x="190" y="-83" type="line" smooth="yes"/>
      <point x="208" y="-82" type="line" smooth="yes"/>
      <point x="255" y="-89" type="line" smooth="yes"/>
      <point x="275" y="-126" type="line" smooth="yes"/>
      <point x="250" y="-176" type="line" smooth="yes"/>
      <point x="197" y="-188" type="line" smooth="yes"/>
      <point x="157" y="-183" type="line" smooth="yes"/>
      <point x="124" y="-170" type="line" smooth="yes"/>
    </contour>
  </outline>
</glyph>
<glyph name="idieresis" format="1">
  <advance width="180"/>
  <unicode hex="00EF"/>
  <outline>
    <contour>
      <point x="225" y="720" type="line" smooth="yes"/>
      <point x="185" y="720" type="line" smooth="yes"/>
      <point x="180" y="680" type="line" smooth="yes"/>
      <point x="220" y="680" type="line" smooth="yes"/>
    </contour>
    <contour>
      <point x="85" y="720" type="line" smooth="yes"/>
      <point x="45" y="720" type="line" smooth="yes"/>
      <point x="40" y="680" type="line" smooth="yes"/>
      <point x="80" y="680" type="line" smooth="yes"/>
    </contour>
    <contour>
      <point x="31" y="0" type="line" smooth="yes"/>
      <point x="51" y="0" type="line" smooth="yes"/>
      <point x="120" y="530" type="line" smooth="yes"/>
      <point x="100" y="530" type="line" smooth="yes"/>
    </contour>
  </outline>
</glyph>
<glyph name="eth" format="1">
  <advance width="521"/>
  <unicode hex="00F0"/>
  <outline>
    <contour>
      <point x="423" y="806" type="line" smooth="yes"/>
      <point x="294" y="736" type="line" smooth="yes"/>
      <point x="205" y="783" type="line" smooth="yes"/>
      <point x="113" y="806" type="line" smooth="yes"/>
      <point x="110" y="786" type="line" smooth="yes"/>
      <point x="188" y="766" type="line" smooth="yes"/>
      <point x="273" y="724" type="line" smooth="yes"/>
      <point x="131" y="646" type="line" smooth="yes"/>
      <point x="127" y="622" type="line" smooth="yes"/>
      <point x="291" y="711" type="line" smooth="yes"/>
      <point x="337" y="672" type="line" smooth="yes"/>
      <point x="379" y="623" type="line" smooth="yes"/>
      <point x="425" y="529" type="line" smooth="yes"/>
      <point x="445" y="425" type="line" smooth="yes"/>
      <point x="385" y="507" type="line" smooth="yes"/>
      <point x="278" y="536" type="line" smooth="yes"/>
      <point x="117" y="467" type="line" smooth="yes"/>
      <point x="42" y="277" type="line" smooth="yes"/>
      <point x="39" y="253" type="line" smooth="yes"/>
      <point x="72" y="63" type="line" smooth="yes"/>
      <point x="220" y="-6" type="line" smooth="yes"/>
      <point x="381" y="63" type="line" smooth="yes"/>
      <point x="456" y="253" type="line" smooth="yes"/>
      <point x="459" y="277" type="line" smooth="yes"/>
      <point x="461" y="462" type="line" smooth="yes"/>
      <point x="393" y="637" type="line" smooth="yes"/>
      <point x="354" y="684" type="line" smooth="yes"/>
      <point x="312" y="723" type="line" smooth="yes"/>
      <point x="419" y="782" type="line" smooth="yes"/>
    </contour>
    <contour>
      <point x="220" y="14" type="line" smooth="yes"/>
      <point x="87" y="78" type="line" smooth="yes"/>
      <point x="59" y="253" type="line" smooth="yes"/>
      <point x="62" y="277" type="line" smooth="yes"/>
      <point x="131" y="452" type="line" smooth="yes"/>
      <point x="278" y="516" type="line" smooth="yes"/>
      <point x="411" y="452" type="line" smooth="yes"/>
      <point x="439" y="277" type="line" smooth="yes"/>
      <point x="436" y="253" type="line" smooth="yes"/>
      <point x="367" y="78" type="line" smooth="yes"/>
    </contour>
  </outline>
</glyph>
<glyph name="ntilde" format="1">
  <advance width="489"/>
  <unicode hex="00F1"/>
  <outline>
    <contour>
      <point x="414" y="732" type="line" smooth="yes"/>
      <point x="393" y="689" type="line" smooth="yes"/>
      <point x="360" y="680" type="line" smooth="yes"/>
      <point x="294" y="709" type="line" smooth="yes"/>
      <point x="225" y="738" type="line" smooth="yes"/>
      <point x="180" y="724" type="line" smooth="yes"/>
      <point x="153" y="668" type="line" smooth="yes"/>
      <point x="171" y="668" type="line" smooth="yes"/>
      <point x="192" y="711" type="line" smooth="yes"/>
      <point x="225" y="720" type="line" smooth="yes"/>
      <point x="291" y="691" type="line" smooth="yes"/>
      <point x="360" y="662" type="line" smooth="yes"/>
      <point x="405" y="676" type="line" smooth="yes"/>
      <point x="432" y="732" type="line" smooth="yes"/>
    </contour>
    <contour>
      <point x="381" y="0" type="line" smooth="yes"/>
      <point x="431" y="381" type="line" smooth="yes"/>
      <point x="400" y="499" type="line" smooth="yes"/>
      <point x="283" y="536" type="line" smooth="yes"/>
      <point x="165" y="506" type="line" smooth="yes"/>
      <point x="96" y="444" type="line" smooth="yes"/>
      <point x="101" y="530" type="line" smooth="yes"/>
      <point x="85" y="530" type="line" smooth="yes"/>
      <point x="75" y="412" type="line" smooth="yes"/>
      <point x="21" y="0" type="line" smooth="yes"/>
      <point x="41" y="0" type="line" smooth="yes"/>
      <point x="96" y="419" type="line" smooth="yes"/>
      <point x="166" y="484" type="line" smooth="yes"/>
      <point x="283" y="516" type="line" smooth="yes"/>
      <point x="384" y="484" type="line" smooth="yes"/>
      <point x="410" y="374" type="line" smooth="yes"/>
      <point x="361" y="0" type="line" smooth="yes"/>
    </contour>
  </outline>
</glyph>
<glyph name="ocircumflex" format="1">
  <advance width="522"/>
  <unicode hex="00F4"/>
  <outline>
    <contour>
      <point x="430" y="620" type="line" smooth="yes"/>
      <point x="326" y="780" type="line" smooth="yes"/>
      <point x="306" y="780" type="line" smooth="yes"/>
      <point x="160" y="620" type="line" smooth="yes"/>
      <point x="186" y="620" type="line" smooth="yes"/>
      <point x="315" y="762" type="line" smooth="yes"/>
      <point x="406" y="620" type="line" smooth="yes"/>
    </contour>
    <contour>
      <point x="220" y="14" type="line" smooth="yes"/>
      <point x="87" y="78" type="line" smooth="yes"/>
      <point x="59" y="253" type="line" smooth="yes"/>
      <point x="62" y="277" type="line" smooth="yes"/>
      <point x="131" y="452" type="line" smooth="yes"/>
      <point x="278" y="516" type="line" smooth="yes"/>
      <point x="411" y="452" type="line" smooth="yes"/>
      <point x="439" y="277" type="line" smooth="yes"/>
      <point x="436" y="253" type="line" smooth="yes"/>
      <point x="367" y="78" type="line" smooth="yes"/>
    </contour>
    <contour>
      <point x="220" y="-6" type="line" smooth="yes"/>
      <point x="381" y="63" type="line" smooth="yes"/>
      <point x="456" y="253" type="line" smooth="yes"/>
      <point x="459" y="277" type="line" smooth="yes"/>
      <point x="426" y="467" type="line" smooth="yes"/>
      <point x="278" y="536" type="line" smooth="yes"/>
      <point x="117" y="467" type="line" smooth="yes"/>
      <point x="42" y="277" type="line" smooth="yes"/>
      <point x="39" y="253" type="line" smooth="yes"/>
      <point x="72" y="63" type="line" smooth="yes"/>
    </contour>
  </outline>
</glyph>
<glyph name="oslash" format="1">
  <advance width="526"/>
  <unicode hex="00F8"/>
  <outline>
    <contour>
      <point x="436" y="253" type="line" smooth="yes"/>
      <point x="367" y="78" type="line" smooth="yes"/>
      <point x="220" y="14" type="line" smooth="yes"/>
      <point x="145" y="28" type="line" smooth="yes"/>
      <point x="92" y="70" type="line" smooth="yes"/>
      <point x="417" y="444" type="line" smooth="yes"/>
      <point x="440" y="371" type="line" smooth="yes"/>
      <point x="439" y="277" type="line" smooth="yes"/>
    </contour>
    <contour>
      <point x="31" y="0" type="line" smooth="yes"/>
      <point x="78" y="54" type="line" smooth="yes"/>
      <point x="138" y="9" type="line" smooth="yes"/>
      <point x="220" y="-6" type="line" smooth="yes"/>
      <point x="381" y="63" type="line" smooth="yes"/>
      <point x="456" y="253" type="line" smooth="yes"/>
      <point x="459" y="277" type="line" smooth="yes"/>
      <point x="459" y="381" type="line" smooth="yes"/>
      <point x="431" y="460" type="line" smooth="yes"/>
      <point x="492" y="530" type="line" smooth="yes"/>
      <point x="467" y="530" type="line" smooth="yes"/>
      <point x="420" y="476" type="line" smooth="yes"/>
      <point x="360" y="521" type="line" smooth="yes"/>
      <point x="278" y="536" type="line" smooth="yes"/>
      <point x="117" y="467" type="line" smooth="yes"/>
      <point x="42" y="277" type="line" smooth="yes"/>
      <point x="39" y="253" type="line" smooth="yes"/>
      <point x="39" y="149" type="line" smooth="yes"/>
      <point x="67" y="70" type="line" smooth="yes"/>
      <point x="6" y="0" type="line" smooth="yes"/>
    </contour>
    <contour>
      <point x="59" y="253" type="line" smooth="yes"/>
      <point x="62" y="277" type="line" smooth="yes"/>
      <point x="131" y="452" type="line" smooth="yes"/>
      <point x="278" y="516" type="line" smooth="yes"/>
      <point x="353" y="502" type="line" smooth="yes"/>
      <point x="406" y="460" type="line" smooth="yes"/>
      <point x="81" y="86" type="line" smooth="yes"/>
      <point x="58" y="159" type="line" smooth="yes"/>
    </contour>
  </outline>
</glyph>
<glyph name="uacute" format="1">
  <advance width="490"/>
  <unicode hex="00FA"/>
  <outline>
    <contour>
      <point x="372" y="780" type="line" smooth="yes"/>
      <point x="261" y="620" type="line" smooth="yes"/>
      <point x="283" y="620" type="line" smooth="yes"/>
      <point x="394" y="780" type="line" smooth="yes"/>
    </contour>
    <contour>
      <point x="80" y="530" type="line" smooth="yes"/>
      <point x="30" y="149" type="line" smooth="yes"/>
      <point x="61" y="31" type="line" smooth="yes"/>
      <point x="178" y="-6" type="line" smooth="yes"/>
      <point x="296" y="24" type="line" smooth="yes"/>
      <point x="365" y="86" type="line" smooth="yes"/>
      <point x="360" y="0" type="line" smooth="yes"/>
      <point x="376" y="0" type="line" smooth="yes"/>
      <point x="386" y="118" type="line" smooth="yes"/>
      <point x="440" y="530" type="line" smooth="yes"/>
      <point x="420" y="530" type="line" smooth="yes"/>
      <point x="365" y="111" type="line" smooth="yes"/>
      <point x="295" y="46" type="line" smooth="yes"/>
      <point x="178" y="14" type="line" smooth="yes"/>
      <point x="77" y="46" type="line" smooth="yes"/>
      <point x="51" y="156" type="line" smooth="yes"/>
      <point x="100" y="530" type="line" smooth="yes"/>
    </contour>
  </outline>
</glyph>
<glyph name="thorn" format="1">
  <advance width="506"/>
  <unicode hex="00FE"/>
  <outline>
    <contour>
      <point x="95" y="419" type="line" smooth="yes"/>
      <point x="165" y="487" type="line" smooth="yes"/>
      <point x="268" y="516" type="line" smooth="yes"/>
      <point x="397" y="452" type="line" smooth="yes"/>
      <point x="421" y="277" type="line" smooth="yes"/>
      <point x="418" y="253" type="line" smooth="yes"/>
      <point x="351" y="78" type="line" smooth="yes"/>
      <point x="207" y="14" type="line" smooth="yes"/>
      <point x="106" y="45" type="line" smooth="yes"/>
      <point x="54" y="107" type="line" smooth="yes"/>
    </contour>
    <contour>
      <point x="125" y="800" type="line" smooth="yes"/>
      <point x="-6" y="-200" type="line" smooth="yes"/>
      <point x="14" y="-200" type="line" smooth="yes"/>
      <point x="51" y="78" type="line" smooth="yes"/>
      <point x="104" y="22" type="line" smooth="yes"/>
      <point x="207" y="-6" type="line" smooth="yes"/>
      <point x="365" y="63" type="line" smooth="yes"/>
      <point x="438" y="253" type="line" smooth="yes"/>
      <point x="441" y="277" type="line" smooth="yes"/>
      <point x="412" y="467" type="line" smooth="yes"/>
      <point x="268" y="536" type="line" smooth="yes"/>
      <point x="163" y="508" type="line" smooth="yes"/>
      <point x="99" y="450" type="line" smooth="yes"/>
      <point x="145" y="800" type="line" smooth="yes"/>
    </contour>
  </outline>
</glyph>
<glyph name="Aogonek" format="1">
  <advance width="590"/>
  <unicode hex="0104"/>
  <outline>
    <contour>
      <point x="521" y="-170" type="line" smooth="yes"/>
      <point x="490" y="-182" type="line" smooth="yes"/>
      <point x="446" y="-188" type="line" smooth="yes"/>
      <point x="401" y="-175" type="line" smooth="yes"/>
      <point x="382" y="-129" type="line" smooth="yes"/>
      <point x="425" y="-40" type="line" smooth="yes"/>
      <point x="506" y="0" type="line" smooth="yes"/>
      <point x="360" y="790" type="line" smooth="yes"/>
      <point x="340" y="790" type="line" smooth="yes"/>
      <point x="-14" y="0" type="line" smooth="yes"/>
      <point x="8" y="0" type="line" smooth="yes"/>
      <point x="110" y="230" type="line" smooth="yes"/>
      <point x="444" y="230" type="line" smooth="yes"/>
      <point x="484" y="10" type="line" smooth="yes"/>
      <point x="402" y="-37" type="line" smooth="yes"/>
      <point x="364" y="-129" type="line" smooth="yes"/>
      <point x="388" y="-187" type="line" smooth="yes"/>
      <point x="446" y="-206" type="line" smooth="yes"/>
      <point x="493" y="-200" type="line" smooth="yes"/>
      <point x="525" y="-187" type="line" smooth="yes"/>
    </contour>
    <contour>
      <point x="347" y="760" type="line" smooth="yes"/>
      <point x="440" y="250" type="line" smooth="yes"/>
      <point x="119" y="250" type="line" smooth="yes"/>
    </contour>
  </outline>
</glyph>
<glyph name="ccircumflex" format="1">
  <advance width="503"/>
  <unicode hex="0109"/>
  <outline>
    <contour>
      <point x="435" y="620" type="line" smooth="yes"/>
      <point x="331" y="780" type="line" smooth="yes"/>
      <point x="311" y="780" type="line" smooth="yes"/>
      <point x="165" y="620" type="line" smooth="yes"/>
      <point x="191" y="620" type="line" smooth="yes"/>
      <point x="320" y="762" type="line" smooth="yes"/>
      <point x="411" y="620" type="line" smooth="yes"/>
    </contour>
    <contour>
      <point x="39" y="253" type="line" smooth="yes"/>
      <point x="72" y="63" type="line" smooth="yes"/>
      <point x="220" y="-6" type="line" smooth="yes"/>
      <point x="369" y="48" type="line" smooth="yes"/>
      <point x="422" y="159" type="line" smooth="yes"/>
      <point x="424" y="175" type="line" smooth="yes"/>
      <point x="404" y="175" type="line" smooth="yes"/>
      <point x="352" y="59" type="line" smooth="yes"/>
      <point x="220" y="14" type="line" smooth="yes"/>
      <point x="87" y="78" type="line" smooth="yes"/>
      <point x="59" y="253" type="line" smooth="yes"/>
      <point x="62" y="277" type="line" smooth="yes"/>
      <point x="131" y="452" type="line" smooth="yes"/>
      <point x="278" y="516" type="line" smooth="yes"/>
      <point x="405" y="468" type="line" smooth="yes"/>
      <point x="426" y="345" type="line" smooth="yes"/>
      <point x="446" y="345" type="line" smooth="yes"/>
      <point x="448" y="361" type="line" smooth="yes"/>
      <point x="423" y="480" type="line" smooth="yes"/>
      <point x="278" y="536" type="line" smooth="yes"/>
      <point x="117" y="467" type="line" smooth="yes"/>
      <point x="42" y="277" type="line" smooth="yes"/>
    </contour>
  </outline>
</glyph>
<glyph name="Cdotaccent" format="1">
  <advance width="587"/>
  <unicode hex="010A"/>
  <outline>
    <contour>
      <point x="406" y="915" type="line" smooth="yes"/>
      <point x="366" y="915" type="line" smooth="yes"/>
      <point x="361" y="875" type="line" smooth="yes"/>
      <point x="401" y="875" type="line" smooth="yes"/>
    </contour>
    <contour>
      <point x="65" y="378" type="line" smooth="yes"/>
      <point x="91" y="85" type="line" smooth="yes"/>
      <point x="267" y="-6" type="line" smooth="yes"/>
      <point x="443" y="56" type="line" smooth="yes"/>
      <point x="516" y="226" type="line" smooth="yes"/>
      <point x="519" y="250" type="line" smooth="yes"/>
      <point x="499" y="250" type="line" smooth="yes"/>
      <point x="422" y="66" type="line" smooth="yes"/>
      <point x="270" y="14" type="line" smooth="yes"/>
      <point x="264" y="14" type="line" smooth="yes"/>
      <point x="106" y="99" type="line" smooth="yes"/>
      <point x="86" y="378" type="line" smooth="yes"/>
      <point x="89" y="402" type="line" smooth="yes"/>
      <point x="182" y="683" type="line" smooth="yes"/>
      <point x="363" y="766" type="line" smooth="yes"/>
      <point x="369" y="766" type="line" smooth="yes"/>
      <point x="512" y="710" type="line" smooth="yes"/>
      <point x="531" y="500" type="line" smooth="yes"/>
      <point x="551" y="500" type="line" smooth="yes"/>
      <point x="554" y="524" type="line" smooth="yes"/>
      <point x="526" y="726" type="line" smooth="yes"/>
      <point x="366" y="786" type="line" smooth="yes"/>
      <point x="168" y="698" type="line" smooth="yes"/>
      <point x="68" y="402" type="line" smooth="yes"/>
    </contour>
  </outline>
</glyph>
<glyph name="ebreve" format="1">
  <advance width="530"/>
  <unicode hex="0115"/>
  <outline>
    <contour>
      <point x="297" y="614" type="line" smooth="yes"/>
      <point x="417" y="663" type="line" smooth="yes"/>
      <point x="468" y="780" type="line" smooth="yes"/>
      <point x="449" y="780" type="line" smooth="yes"/>
      <point x="404" y="676" type="line" smooth="yes"/>
      <point x="297" y="632" type="line" smooth="yes"/>
      <point x="203" y="676" type="line" smooth="yes"/>
      <point x="185" y="780" type="line" smooth="yes"/>
      <point x="168" y="780" type="line" smooth="yes"/>
      <point x="190" y="663" type="line" smooth="yes"/>
    </contour>
    <contour>
      <point x="282" y="516" type="line" smooth="yes"/>
      <point x="419" y="448" type="line" smooth="yes"/>
      <point x="442" y="275" type="line" smooth="yes"/>
      <point x="62" y="275" type="line" smooth="yes"/>
      <point x="133" y="452" type="line" smooth="yes"/>
    </contour>
    <contour>
      <point x="459" y="255" type="line" smooth="yes"/>
      <point x="461" y="271" type="line" smooth="yes"/>
      <point x="437" y="461" type="line" smooth="yes"/>
      <point x="282" y="536" type="line" smooth="yes"/>
      <point x="119" y="467" type="line" smooth="yes"/>
      <point x="42" y="277" type="line" smooth="yes"/>
      <point x="39" y="253" type="line" smooth="yes"/>
      <point x="78" y="63" type="line" smooth="yes"/>
      <point x="233" y="-6" type="line" smooth="yes"/>
      <point x="392" y="46" type="line" smooth="yes"/>
      <point x="446" y="154" type="line" smooth="yes"/>
      <point x="448" y="170" type="line" smooth="yes"/>
      <point x="428" y="170" type="line" smooth="yes"/>
      <point x="379" y="61" type="line" smooth="yes"/>
      <point x="233" y="14" type="line" smooth="yes"/>
      <point x="93" y="78" type="line" smooth="yes"/>
      <point x="59" y="255" type="line" smooth="yes"/>
    </contour>
  </outline>
</glyph>
<glyph name="Eogonek" format="1">
  <advance width="540"/>
  <unicode hex="0118"/>
  <outline>
    <contour>
      <point x="456" y="-170" type="line" smooth="yes"/>
      <point x="425" y="-182" type="line" smooth="yes"/>
      <point x="381" y="-188" type="line" smooth="yes"/>
      <point x="336" y="-175" type="line" smooth="yes"/>
      <point x="317" y="-129" type="line" smooth="yes"/>
      <point x="360" y="-40" type="line" smooth="yes"/>
      <point x="441" y="0" type="line" smooth="yes"/>
      <point x="444" y="20" type="line" smooth="yes"/>
      <point x="54" y="20" type="line" smooth="yes"/>
      <point x="102" y="388" type="line" smooth="yes"/>
      <point x="441" y="388" type="line" smooth="yes"/>
      <point x="444" y="408" type="line" smooth="yes"/>
      <point x="105" y="408" type="line" smooth="yes"/>
      <point x="151" y="760" type="line" smooth="yes"/>
      <point x="540" y="760" type="line" smooth="yes"/>
      <point x="543" y="780" type="line" smooth="yes"/>
      <point x="133" y="780" type="line" smooth="yes"/>
      <point x="31" y="0" type="line" smooth="yes"/>
      <point x="393" y="0" type="line" smooth="yes"/>
      <point x="327" y="-47" type="line" smooth="yes"/>
      <point x="299" y="-129" type="line" smooth="yes"/>
      <point x="323" y="-187" type="line" smooth="yes"/>
      <point x="381" y="-206" type="line" smooth="yes"/>
      <point x="428" y="-200" type="line" smooth="yes"/>
      <point x="460" y="-187" type="line" smooth="yes"/>
    </contour>
  </outline>
</glyph>
<glyph name="gcircumflex" format="1">
  <advance width="510"/>
  <unicode hex="011D"/>
  <outline>
    <contour>
      <point x="424" y="620" type="line" smooth="yes"/>
      <point x="320" y="780" type="line" smooth="yes"/>
      <point x="300" y="780" type="line" smooth="yes"/>
      <point x="154" y="620" type="line" smooth="yes"/>
      <point x="180" y="620" type="line" smooth="yes"/>
      <point x="309" y="762" type="line" smooth="yes"/>
      <point x="400" y="620" type="line" smooth="yes"/>
    </contour>
    <contour>
      <point x="390" y="151" type="line" smooth="yes"/>
      <point x="321" y="83" type="line" smooth="yes"/>
      <point x="219" y="54" type="line" smooth="yes"/>
      <point x="91" y="108" type="line" smooth="yes"/>
      <point x="61" y="273" type="line" smooth="yes"/>
      <point x="64" y="297" type="line" smooth="yes"/>
      <point x="133" y="462" type="line" smooth="yes"/>
      <point x="271" y="516" type="line" smooth="yes"/>
      <point x="373" y="485" type="line" smooth="yes"/>
      <point x="426" y="423" type="line" smooth="yes"/>
    </contour>
    <contour>
      <point x="180" y="-206" type="line" smooth="yes"/>
      <point x="329" y="-152" type="line" smooth="yes"/>
      <point x="389" y="-13" type="line" smooth="yes"/>
      <point x="444" y="408" type="line" smooth="yes"/>
      <point x="465" y="530" type="line" smooth="yes"/>
      <point x="450" y="530" type="line" smooth="yes"/>
      <point x="432" y="447" type="line" smooth="yes"/>
      <point x="376" y="507" type="line" smooth="yes"/>
      <point x="271" y="536" type="line" smooth="yes"/>
      <point x="119" y="477" type="line" smooth="yes"/>
      <point x="44" y="297" type="line" smooth="yes"/>
      <point x="41" y="273" type="line" smooth="yes"/>
      <point x="76" y="93" type="line" smooth="yes"/>
      <point x="219" y="34" type="line" smooth="yes"/>
      <point x="324" y="62" type="line" smooth="yes"/>
      <point x="386" y="120" type="line" smooth="yes"/>
      <point x="371" y="0" type="line" smooth="yes"/>
      <point x="316" y="-136" type="line" smooth="yes"/>
      <point x="180" y="-186" type="line" smooth="yes"/>
      <point x="47" y="-140" type="line" smooth="yes"/>
      <point x="26" y="0" type="line" smooth="yes"/>
      <point x="6" y="0" type="line" smooth="yes"/>
      <point x="4" y="-16" type="line" smooth="yes"/>
      <point x="34" y="-155" type="line" smooth="yes"/>
    </contour>
  </outline>
</glyph>
<glyph name="Gdotaccent" format="1">
  <advance width="620"/>
  <unicode hex="0120"/>
  <outline>
    <contour>
      <point x="416" y="915" type="line" smooth="yes"/>
      <point x="376" y="915" type="line" smooth="yes"/>
      <point x="371" y="875" type="line" smooth="yes"/>
      <point x="411" y="875" type="line" smooth="yes"/>
    </contour>
    <contour>
      <point x="288" y="-6" type="line" smooth="yes"/>
      <point x="428" y="21" type="line" smooth="yes"/>
      <point x="511" y="77" type="line" smooth="yes"/>
      <point x="548" y="362" type="line" smooth="yes"/>
      <point x="369" y="362" type="line" smooth="yes"/>
      <point x="366" y="342" type="line" smooth="yes"/>
      <point x="526" y="342" type="line" smooth="yes"/>
      <point x="492" y="86" type="line" smooth="yes"/>
      <point x="416" y="38" type="line" smooth="yes"/>
      <point x="291" y="14" type="line" smooth="yes"/>
      <point x="285" y="14" type="line" smooth="yes"/>
      <point x="114" y="99" type="line" smooth="yes"/>
      <point x="86" y="378" type="line" smooth="yes"/>
      <point x="89" y="402" type="line" smooth="yes"/>
      <point x="186" y="683" type="line" smooth="yes"/>
      <point x="367" y="766" type="line" smooth="yes"/>
      <point x="373" y="766" type="line" smooth="yes"/>
      <point x="523" y="706" type="line" smooth="yes"/>
      <point x="546" y="500" type="line" smooth="yes"/>
      <point x="566" y="500" type="line" smooth="yes"/>
      <point x="569" y="524" type="line" smooth="yes"/>
      <point x="540" y="720" type="line" smooth="yes"/>
      <point x="370" y="786" type="line" smooth="yes"/>
      <point x="170" y="698" type="line" smooth="yes"/>
      <point x="68" y="402" type="line" smooth="yes"/>
      <point x="65" y="378" type="line" smooth="yes"/>
      <point x="97" y="85" type="line" smooth="yes"/>
    </contour>
  </outline>
</glyph>
<glyph name="hbar" format="1">
  <advance width="488"/>
  <unicode hex="0127"/>
  <outline>
    <contour>
      <point x="2" y="655" type="line" smooth="yes"/>
      <point x="107" y="655" type="line" smooth="yes"/>
      <point x="21" y="0" type="line" smooth="yes"/>
      <point x="41" y="0" type="line" smooth="yes"/>
      <point x="96" y="419" type="line" smooth="yes"/>
      <point x="166" y="484" type="line" smooth="yes"/>
      <point x="283" y="516" type="line" smooth="yes"/>
      <point x="384" y="484" type="line" smooth="yes"/>
      <point x="410" y="374" type="line" smooth="yes"/>
      <point x="361" y="0" type="line" smooth="yes"/>
      <point x="381" y="0" type="line" smooth="yes"/>
      <point x="431" y="381" type="line" smooth="yes"/>
      <point x="400" y="499" type="line" smooth="yes"/>
      <point x="283" y="536" type="line" smooth="yes"/>
      <point x="169" y="508" type="line" smooth="yes"/>
      <point x="100" y="449" type="line" smooth="yes"/>
      <point x="127" y="655" type="line" smooth="yes"/>
      <point x="292" y="655" type="line" smooth="yes"/>
      <point x="295" y="675" type="line" smooth="yes"/>
      <point x="130" y="675" type="line" smooth="yes"/>
      <point x="146" y="800" type="line" smooth="yes"/>
      <point x="126" y="800" type="line" smooth="yes"/>
      <point x="110" y="675" type="line" smooth="yes"/>
      <point x="5" y="675" type="line" smooth="yes"/>
    </contour>
  </outline>
</glyph>
<glyph name="itilde" format="1">
  <advance width="180"/>
  <unicode hex="0129"/>
  <outline>
    <contour>
      <point x="254" y="732" type="line" smooth="yes"/>
      <point x="233" y="689" type="line" smooth="yes"/>
      <point x="200" y="680" type="line" smooth="yes"/>
      <point x="134" y="709" type="line" smooth="yes"/>
      <point x="65" y="738" type="line" smooth="yes"/>
      <point x="20" y="724" type="line" smooth="yes"/>
      <point x="-7" y="668" type="line" smooth="yes"/>
      <point x="11" y="668" type="line" smooth="yes"/>
      <point x="32" y="711" type="line" smooth="yes"/>
      <point x="65" y="720" type="line" smooth="yes"/>
      <point x="131" y="691" type="line" smooth="yes"/>
      <point x="200" y="662" type="line" smooth="yes"/>
      <point x="245" y="676" type="line" smooth="yes"/>
      <point x="272" y="732" type="line" smooth="yes"/>
    </contour>
    <contour>
      <point x="31" y="0" type="line" smooth="yes"/>
      <point x="51" y="0" type="line" smooth="yes"/>
      <point x="120" y="530" type="line" smooth="yes"/>
      <point x="100" y="530" type="line" smooth="yes"/>
    </contour>
  </outline>
</glyph>
<glyph name="ibreve" format="1">
  <advance width="180"/>
  <unicode hex="012D"/>
  <outline>
    <contour>
      <point x="122" y="614" type="line" smooth="yes"/>
      <point x="242" y="663" type="line" smooth="yes"/>
      <point x="293" y="780" type="line" smooth="yes"/>
      <point x="274" y="780" type="line" smooth="yes"/>
      <point x="229" y="676" type="line" smooth="yes"/>
      <point x="122" y="632" type="line" smooth="yes"/>
      <point x="28" y="676" type="line" smooth="yes"/>
      <point x="10" y="780" type="line" smooth="yes"/>
      <point x="-7" y="780" type="line" smooth="yes"/>
      <point x="15" y="663" type="line" smooth="yes"/>
    </contour>
    <contour>
      <point x="31" y="0" type="line" smooth="yes"/>
      <point x="51" y="0" type="line" smooth="yes"/>
      <point x="120" y="530" type="line" smooth="yes"/>
      <point x="100" y="530" type="line" smooth="yes"/>
    </contour>
  </outline>
</glyph>
<glyph name="Iogonek" format="1">
  <advance width="190"/>
  <unicode hex="012E"/>
  <outline>
    <contour>
      <point x="71" y="-170" type="line" smooth="yes"/>
      <point x="40" y="-182" type="line" smooth="yes"/>
      <point x="-4" y="-188" type="line" smooth="yes"/>
      <point x="-49" y="-175" type="line" smooth="yes"/>
      <point x="-68" y="-129" type="line" smooth="yes"/>
      <point x="-25" y="-40" type="line" smooth="yes"/>
      <point x="56" y="0" type="line" smooth="yes"/>
      <point x="158" y="780" type="line" smooth="yes"/>
      <point x="138" y="780" type="line" smooth="yes"/>
      <point x="37" y="11" type="line" smooth="yes"/>
      <point x="-47" y="-36" type="line" smooth="yes"/>
      <point x="-86" y="-129" type="line" smooth="yes"/>
      <point x="-62" y="-187" type="line" smooth="yes"/>
      <point x="-4" y="-206" type="line" smooth="yes"/>
      <point x="43" y="-200" type="line" smooth="yes"/>
      <point x="75" y="-187" type="line" smooth="yes"/>
    </contour>
  </outline>
</glyph>
<glyph name="iogonek" format="1">
  <advance width="180"/>
  <unicode hex="012F"/>
  <outline>
    <contour>
      <point x="66" y="-170" type="line" smooth="yes"/>
      <point x="35" y="-182" type="line" smooth="yes"/>
      <point x="-9" y="-188" type="line" smooth="yes"/>
      <point x="-54" y="-175" type="line" smooth="yes"/>
      <point x="-73" y="-129" type="line" smooth="yes"/>
      <point x="-30" y="-40" type="line" smooth="yes"/>
      <point x="51" y="0" type="line" smooth="yes"/>
      <point x="120" y="530" type="line" smooth="yes"/>
      <point x="100" y="530" type="line" smooth="yes"/>
      <point x="32" y="11" type="line" smooth="yes"/>
      <point x="-52" y="-36" type="line" smooth="yes"/>
      <point x="-91" y="-129" type="line" smooth="yes"/>
      <point x="-67" y="-187" type="line" smooth="yes"/>
      <point x="-9" y="-206" type="line" smooth="yes"/>
      <point x="38" y="-200" type="line" smooth="yes"/>
      <point x="70" y="-187" type="line" smooth="yes"/>
    </contour>
    <contour>
      <point x="155" y="720" type="line" smooth="yes"/>
      <point x="115" y="720" type="line" smooth="yes"/>
      <point x="110" y="680" type="line" smooth="yes"/>
      <point x="150" y="680" type="line" smooth="yes"/>
    </contour>
  </outline>
</glyph>
<glyph name="IJ" format="1">
  <advance width="450"/>
  <unicode hex="0132"/>
  <outline>
    <contour>
      <point x="322" y="142" type="line" smooth="yes"/>
      <point x="277" y="40" type="line" smooth="yes"/>
      <point x="191" y="14" type="line" smooth="yes"/>
      <point x="155" y="18" type="line" smooth="yes"/>
      <point x="132" y="24" type="line" smooth="yes"/>
      <point x="130" y="4" type="line" smooth="yes"/>
      <point x="149" y="-2" type="line" smooth="yes"/>
      <point x="192" y="-6" type="line" smooth="yes"/>
      <point x="287" y="23" type="line" smooth="yes"/>
      <point x="341" y="136" type="line" smooth="yes"/>
      <point x="426" y="780" type="line" smooth="yes"/>
      <point x="406" y="780" type="line" smooth="yes"/>
    </contour>
    <contour>
      <point x="158" y="780" type="line" smooth="yes"/>
      <point x="138" y="780" type="line" smooth="yes"/>
      <point x="36" y="0" type="line" smooth="yes"/>
      <point x="56" y="0" type="line" smooth="yes"/>
    </contour>
  </outline>
</glyph>
<glyph name="Jcircumflex" format="1">
  <advance width="470"/>
  <unicode hex="0134"/>
  <outline>
    <contour>
      <point x="359" y="840" type="line" smooth="yes"/>
      <point x="458" y="935" type="line" smooth="yes"/>
      <point x="531" y="840" type="line" smooth="yes"/>
      <point x="554" y="840" type="line" smooth="yes"/>
      <point x="469" y="950" type="line" smooth="yes"/>
      <point x="449" y="950" type="line" smooth="yes"/>
      <point x="334" y="840" type="line" smooth="yes"/>
    </contour>
    <contour>
      <point x="426" y="780" type="line" smooth="yes"/>
      <point x="356" y="245" type="line" smooth="yes"/>
      <point x="300" y="71" type="line" smooth="yes"/>
      <point x="167" y="14" type="line" smooth="yes"/>
      <point x="47" y="74" type="line" smooth="yes"/>
      <point x="36" y="247" type="line" smooth="yes"/>
      <point x="16" y="247" type="line" smooth="yes"/>
      <point x="13" y="223" type="line" smooth="yes"/>
      <point x="33" y="58" type="line" smooth="yes"/>
      <point x="167" y="-6" type="line" smooth="yes"/>
      <point x="314" y="56" type="line" smooth="yes"/>
      <point x="373" y="223" type="line" smooth="yes"/>
      <point x="446" y="780" type="line" smooth="yes"/>
    </contour>
  </outline>
</glyph>
<glyph name="lacute" format="1">
  <advance width="180"/>
  <unicode hex="013A"/>
  <outline>
    <contour>
      <point x="217" y="950" type="line" smooth="yes"/>
      <point x="140" y="840" type="line" smooth="yes"/>
      <point x="162" y="840" type="line" smooth="yes"/>
      <point x="239" y="950" type="line" smooth="yes"/>
    </contour>
    <contour>
      <point x="31" y="0" type="line" smooth="yes"/>
      <point x="51" y="0" type="line" smooth="yes"/>
      <point x="156" y="800" type="line" smooth="yes"/>
      <point x="136" y="800" type="line" smooth="yes"/>
    </contour>
  </outline>
</glyph>
<glyph name="ncommaaccent" format="1">
  <advance width="488"/>
  <unicode hex="0146"/>
  <outline>
    <contour>
      <point x="211" y="-70" type="line" smooth="yes"/>
      <point x="171" y="-70" type="line" smooth="yes"/>
      <point x="166" y="-110" type="line" smooth="yes"/>
      <point x="186" y="-110" type="line" smooth="yes"/>
      <point x="156" y="-173" type="line" smooth="yes"/>
      <point x="115" y="-186" type="line" smooth="yes"/>
      <point x="113" y="-206" type="line" smooth="yes"/>
      <point x="172" y="-183" type="line" smooth="yes"/>
      <point x="207" y="-102" type="line" smooth="yes"/>
    </contour>
    <contour>
      <point x="381" y="0" type="line" smooth="yes"/>
      <point x="431" y="381" type="line" smooth="yes"/>
      <point x="400" y="499" type="line" smooth="yes"/>
      <point x="283" y="536" type="line" smooth="yes"/>
      <point x="165" y="506" type="line" smooth="yes"/>
      <point x="96" y="444" type="line" smooth="yes"/>
      <point x="101" y="530" type="line" smooth="yes"/>
      <point x="85" y="530" type="line" smooth="yes"/>
      <point x="75" y="412" type="line" smooth="yes"/>
      <point x="21" y="0" type="line" smooth="yes"/>
      <point x="41" y="0" type="line" smooth="yes"/>
      <point x="96" y="419" type="line" smooth="yes"/>
      <point x="166" y="484" type="line" smooth="yes"/>
      <point x="283" y="516" type="line" smooth="yes"/>
      <point x="384" y="484" type="line" smooth="yes"/>
      <point x="410" y="374" type="line" smooth="yes"/>
      <point x="361" y="0" type="line" smooth="yes"/>
    </contour>
  </outline>
</glyph>
<glyph name="ncaron" format="1">
  <advance width="490"/>
  <unicode hex="0148"/>
  <outline>
    <contour>
      <point x="168" y="780" type="line" smooth="yes"/>
      <point x="272" y="620" type="line" smooth="yes"/>
      <point x="292" y="620" type="line" smooth="yes"/>
      <point x="438" y="780" type="line" smooth="yes"/>
      <point x="412" y="780" type="line" smooth="yes"/>
      <point x="283" y="638" type="line" smooth="yes"/>
      <point x="192" y="780" type="line" smooth="yes"/>
    </contour>
    <contour>
      <point x="381" y="0" type="line" smooth="yes"/>
      <point x="431" y="381" type="line" smooth="yes"/>
      <point x="400" y="499" type="line" smooth="yes"/>
      <point x="283" y="536" type="line" smooth="yes"/>
      <point x="165" y="506" type="line" smooth="yes"/>
      <point x="96" y="444" type="line" smooth="yes"/>
      <point x="101" y="530" type="line" smooth="yes"/>
      <point x="85" y="530" type="line" smooth="yes"/>
      <point x="75" y="412" type="line" smooth="yes"/>
      <point x="21" y="0" type="line" smooth="yes"/>
      <point x="41" y="0" type="line" smooth="yes"/>
      <point x="96" y="419" type="line" smooth="yes"/>
      <point x="166" y="484" type="line" smooth="yes"/>
      <point x="283" y="516" type="line" smooth="yes"/>
      <point x="384" y="484" type="line" smooth="yes"/>
      <point x="410" y="374" type="line" smooth="yes"/>
      <point x="361" y="0" type="line" smooth="yes"/>
    </contour>
  </outline>
</glyph>
<glyph name="Eng" format="1">
  <advance width="640"/>
  <unicode hex="014A"/>
  <outline>
    <contour>
      <point x="491" y="-4" type="line" smooth="yes"/>
      <point x="483" y="-63" type="line" smooth="yes"/>
      <point x="438" y="-162" type="line" smooth="yes"/>
      <point x="352" y="-186" type="line" smooth="yes"/>
      <point x="316" y="-183" type="line" smooth="yes"/>
      <point x="293" y="-176" type="line" smooth="yes"/>
      <point x="291" y="-196" type="line" smooth="yes"/>
      <point x="310" y="-202" type="line" smooth="yes"/>
      <point x="353" y="-206" type="line" smooth="yes"/>
      <point x="448" y="-178" type="line" smooth="yes"/>
      <point x="502" y="-69" type="line" smooth="yes"/>
      <point x="613" y="780" type="line" smooth="yes"/>
      <point x="593" y="780" type="line" smooth="yes"/>
      <point x="514" y="175" type="line" smooth="yes"/>
      <point x="496" y="32" type="line" smooth="yes"/>
      <point x="155" y="780" type="line" smooth="yes"/>
      <point x="133" y="780" type="line" smooth="yes"/>
      <point x="31" y="0" type="line" smooth="yes"/>
      <point x="51" y="0" type="line" smooth="yes"/>
      <point x="130" y="605" type="line" smooth="yes"/>
      <point x="148" y="748" type="line" smooth="yes"/>
    </contour>
  </outline>
</glyph>
<glyph name="eng" format="1">
  <advance width="488"/>
  <unicode hex="014B"/>
  <outline>
    <contour>
      <point x="431" y="381" type="line" smooth="yes"/>
      <point x="400" y="499" type="line" smooth="yes"/>
      <point x="283" y="536" type="line" smooth="yes"/>
      <point x="165" y="506" type="line" smooth="yes"/>
      <point x="96" y="444" type="line" smooth="yes"/>
      <point x="101" y="530" type="line" smooth="yes"/>
      <point x="85" y="530" type="line" smooth="yes"/>
      <point x="75" y="412" type="line" smooth="yes"/>
      <point x="21" y="0" type="line" smooth="yes"/>
      <point x="41" y="0" type="line" smooth="yes"/>
      <point x="96" y="419" type="line" smooth="yes"/>
      <point x="166" y="484" type="line" smooth="yes"/>
      <point x="283" y="516" type="line" smooth="yes"/>
      <point x="384" y="484" type="line" smooth="yes"/>
      <point x="410" y="374" type="line" smooth="yes"/>
      <point x="353" y="-63" type="line" smooth="yes"/>
      <point x="308" y="-162" type="line" smooth="yes"/>
      <point x="222" y="-186" type="line" smooth="yes"/>
      <point x="186" y="-183" type="line" smooth="yes"/>
      <point x="163" y="-176" type="line" smooth="yes"/>
      <point x="161" y="-196" type="line" smooth="yes"/>
      <point x="180" y="-202" type="line" smooth="yes"/>
      <point x="223" y="-206" type="line" smooth="yes"/>
      <point x="318" y="-178" type="line" smooth="yes"/>
      <point x="372" y="-69" type="line" smooth="yes"/>
    </contour>
  </outline>
</glyph>
<glyph name="Obreve" format="1">
  <advance width="621"/>
  <unicode hex="014E"/>
  <outline>
    <contour>
      <point x="375" y="852" type="line" smooth="yes"/>
      <point x="297" y="879" type="line" smooth="yes"/>
      <point x="278" y="950" type="line" smooth="yes"/>
      <point x="261" y="950" type="line" smooth="yes"/>
      <point x="283" y="866" type="line" smooth="yes"/>
      <point x="376" y="834" type="line" smooth="yes"/>
      <point x="476" y="866" type="line" smooth="yes"/>
      <point x="521" y="950" type="line" smooth="yes"/>
      <point x="502" y="950" type="line" smooth="yes"/>
      <point x="462" y="879" type="line" smooth="yes"/>
    </contour>
    <contour>
      <point x="361" y="786" type="line" smooth="yes"/>
      <point x="166" y="698" type="line" smooth="yes"/>
      <point x="68" y="402" type="line" smooth="yes"/>
      <point x="65" y="378" type="line" smooth="yes"/>
      <point x="93" y="85" type="line" smooth="yes"/>
      <point x="272" y="-6" type="line" smooth="yes"/>
      <point x="467" y="82" type="line" smooth="yes"/>
      <point x="565" y="378" type="line" smooth="yes"/>
      <point x="568" y="402" type="line" smooth="yes"/>
      <point x="540" y="695" type="line" smooth="yes"/>
    </contour>
    <contour>
      <point x="269" y="14" type="line" smooth="yes"/>
      <point x="109" y="99" type="line" smooth="yes"/>
      <point x="86" y="378" type="line" smooth="yes"/>
      <point x="89" y="402" type="line" smooth="yes"/>
      <point x="179" y="683" type="line" smooth="yes"/>
      <point x="358" y="766" type="line" smooth="yes"/>
      <point x="364" y="766" type="line" smooth="yes"/>
      <point x="525" y="682" type="line" smooth="yes"/>
      <point x="547" y="402" type="line" smooth="yes"/>
      <point x="544" y="378" type="line" smooth="yes"/>
      <point x="454" y="97" type="line" smooth="yes"/>
      <point x="275" y="14" type="line" smooth="yes"/>
    </contour>
  </outline>
</glyph>
<glyph name="obreve" format="1">
  <advance width="526"/>
  <unicode hex="014F"/>
  <outline>
    <contour>
      <point x="295" y="614" type="line" smooth="yes"/>
      <point x="415" y="663" type="line" smooth="yes"/>
      <point x="466" y="780" type="line" smooth="yes"/>
      <point x="447" y="780" type="line" smooth="yes"/>
      <point x="402" y="676" type="line" smooth="yes"/>
      <point x="295" y="632" type="line" smooth="yes"/>
      <point x="201" y="676" type="line" smooth="yes"/>
      <point x="183" y="780" type="line" smooth="yes"/>
      <point x="166" y="780" type="line" smooth="yes"/>
      <point x="188" y="663" type="line" smooth="yes"/>
    </contour>
    <contour>
      <point x="220" y="14" type="line" smooth="yes"/>
      <point x="87" y="78" type="line" smooth="yes"/>
      <point x="59" y="253" type="line" smooth="yes"/>
      <point x="62" y="277" type="line" smooth="yes"/>
      <point x="131" y="452" type="line" smooth="yes"/>
      <point x="278" y="516" type="line" smooth="yes"/>
      <point x="411" y="452" type="line" smooth="yes"/>
      <point x="439" y="277" type="line" smooth="yes"/>
      <point x="436" y="253" type="line" smooth="yes"/>
      <point x="367" y="78" type="line" smooth="yes"/>
    </contour>
    <contour>
      <point x="220" y="-6" type="line" smooth="yes"/>
      <point x="381" y="63" type="line" smooth="yes"/>
      <point x="456" y="253" type="line" smooth="yes"/>
      <point x="459" y="277" type="line" smooth="yes"/>
      <point x="426" y="467" type="line" smooth="yes"/>
      <point x="278" y="536" type="line" smooth="yes"/>
      <point x="117" y="467" type="line" smooth="yes"/>
      <point x="42" y="277" type="line" smooth="yes"/>
      <point x="39" y="253" type="line" smooth="yes"/>
      <point x="72" y="63" type="line" smooth="yes"/>
    </contour>
  </outline>
</glyph>
<glyph name="ohungarumlaut" format="1">
  <advance width="526"/>
  <unicode hex="0151"/>
  <outline>
    <contour>
      <point x="345" y="780" type="line" smooth="yes"/>
      <point x="234" y="620" type="line" smooth="yes"/>
      <point x="256" y="620" type="line" smooth="yes"/>
      <point x="367" y="780" type="line" smooth="yes"/>
    </contour>
    <contour>
      <point x="445" y="780" type="line" smooth="yes"/>
      <point x="334" y="620" type="line" smooth="yes"/>
      <point x="356" y="620" type="line" smooth="yes"/>
      <point x="467" y="780" type="line" smooth="yes"/>
    </contour>
    <contour>
      <point x="220" y="14" type="line" smooth="yes"/>
      <point x="87" y="78" type="line" smooth="yes"/>
      <point x="59" y="253" type="line" smooth="yes"/>
      <point x="62" y="277" type="line" smooth="yes"/>
      <point x="131" y="452" type="line" smooth="yes"/>
      <point x="278" y="516" type="line" smooth="yes"/>
      <point x="411" y="452" type="line" smooth="yes"/>
      <point x="439" y="277" type="line" smooth="yes"/>
      <point x="436" y="253" type="line" smooth="yes"/>
      <point x="367" y="78" type="line" smooth="yes"/>
    </contour>
    <contour>
      <point x="220" y="-6" type="line" smooth="yes"/>
      <point x="381" y="63" type="line" smooth="yes"/>
      <point x="456" y="253" type="line" smooth="yes"/>
      <point x="459" y="277" type="line" smooth="yes"/>
      <point x="426" y="467" type="line" smooth="yes"/>
      <point x="278" y="536" type="line" smooth="yes"/>
      <point x="117" y="467" type="line" smooth="yes"/>
      <point x="42" y="277" type="line" smooth="yes"/>
      <point x="39" y="253" type="line" smooth="yes"/>
      <point x="72" y="63" type="line" smooth="yes"/>
    </contour>
  </outline>
</glyph>
<glyph name="OE" format="1">
  <advance width="940"/>
  <unicode hex="0152"/>
  <outline>
    <contour>
      <point x="841" y="0" type="line" smooth="yes"/>
      <point x="844" y="20" type="line" smooth="yes"/>
      <point x="454" y="20" type="line" smooth="yes"/>
      <point x="502" y="388" type="line" smooth="yes"/>
      <point x="841" y="388" type="line" smooth="yes"/>
      <point x="844" y="408" type="line" smooth="yes"/>
      <point x="505" y="408" type="line" smooth="yes"/>
      <point x="551" y="760" type="line" smooth="yes"/>
      <point x="940" y="760" type="line" smooth="yes"/>
      <point x="943" y="780" type="line" smooth="yes"/>
      <point x="403" y="780" type="line" smooth="yes"/>
      <point x="184" y="696" type="line" smooth="yes"/>
      <point x="63" y="402" type="line" smooth="yes"/>
      <point x="60" y="378" type="line" smooth="yes"/>
      <point x="104" y="84" type="line" smooth="yes"/>
      <point x="297" y="0" type="line" smooth="yes"/>
    </contour>
    <contour>
      <point x="531" y="760" type="line" smooth="yes"/>
      <point x="434" y="20" type="line" smooth="yes"/>
      <point x="297" y="20" type="line" smooth="yes"/>
      <point x="117" y="101" type="line" smooth="yes"/>
      <point x="81" y="378" type="line" smooth="yes"/>
      <point x="84" y="402" type="line" smooth="yes"/>
      <point x="196" y="680" type="line" smooth="yes"/>
      <point x="403" y="760" type="line" smooth="yes"/>
    </contour>
  </outline>
</glyph>
<glyph name="oe" format="1">
  <advance width="921"/>
  <unicode hex="0153"/>
  <outline>
    <contour>
      <point x="855" y="255" type="line" smooth="yes"/>
      <point x="857" y="271" type="line" smooth="yes"/>
      <point x="833" y="461" type="line" smooth="yes"/>
      <point x="678" y="536" type="line" smooth="yes"/>
      <point x="540" y="490" type="line" smooth="yes"/>
      <point x="458" y="360" type="line" smooth="yes"/>
      <point x="406" y="490" type="line" smooth="yes"/>
      <point x="278" y="536" type="line" smooth="yes"/>
      <point x="117" y="467" type="line" smooth="yes"/>
      <point x="42" y="277" type="line" smooth="yes"/>
      <point x="39" y="253" type="line" smooth="yes"/>
      <point x="72" y="63" type="line" smooth="yes"/>
      <point x="220" y="-6" type="line" smooth="yes"/>
      <point x="357" y="41" type="line" smooth="yes"/>
      <point x="436" y="172" type="line" smooth="yes"/>
      <point x="495" y="41" type="line" smooth="yes"/>
      <point x="629" y="-6" type="line" smooth="yes"/>
      <point x="788" y="46" type="line" smooth="yes"/>
      <point x="842" y="154" type="line" smooth="yes"/>
      <point x="844" y="170" type="line" smooth="yes"/>
      <point x="824" y="170" type="line" smooth="yes"/>
      <point x="775" y="61" type="line" smooth="yes"/>
      <point x="629" y="14" type="line" smooth="yes"/>
      <point x="489" y="78" type="line" smooth="yes"/>
      <point x="455" y="255" type="line" smooth="yes"/>
    </contour>
    <contour>
      <point x="678" y="516" type="line" smooth="yes"/>
      <point x="815" y="448" type="line" smooth="yes"/>
      <point x="838" y="275" type="line" smooth="yes"/>
      <point x="458" y="275" type="line" smooth="yes"/>
      <point x="529" y="452" type="line" smooth="yes"/>
    </contour>
    <contour>
      <point x="220" y="14" type="line" smooth="yes"/>
      <point x="87" y="78" type="line" smooth="yes"/>
      <point x="59" y="253" type="line" smooth="yes"/>
      <point x="62" y="277" type="line" smooth="yes"/>
      <point x="131" y="452" type="line" smooth="yes"/>
      <point x="278" y="516" type="line" smooth="yes"/>
      <point x="411" y="452" type="line" smooth="yes"/>
      <point x="439" y="277" type="line" smooth="yes"/>
      <point x="436" y="253" type="line" smooth="yes"/>
      <point x="367" y="78" type="line" smooth="yes"/>
    </contour>
  </outline>
</glyph>
<glyph name="Rcommaaccent" format="1">
  <advance width="550"/>
  <unicode hex="0156"/>
  <outline>
    <contour>
      <point x="241" y="-70" type="line" smooth="yes"/>
      <point x="201" y="-70" type="line" smooth="yes"/>
      <point x="196" y="-110" type="line" smooth="yes"/>
      <point x="216" y="-110" type="line" smooth="yes"/>
      <point x="186" y="-173" type="line" smooth="yes"/>
      <point x="145" y="-186" type="line" smooth="yes"/>
      <point x="143" y="-206" type="line" smooth="yes"/>
      <point x="202" y="-183" type="line" smooth="yes"/>
      <point x="237" y="-102" type="line" smooth="yes"/>
    </contour>
    <contour>
      <point x="98" y="360" type="line" smooth="yes"/>
      <point x="150" y="760" type="line" smooth="yes"/>
      <point x="320" y="760" type="line" smooth="yes"/>
      <point x="448" y="725" type="line" smooth="yes"/>
      <point x="499" y="569" type="line" smooth="yes"/>
      <point x="496" y="545" type="line" smooth="yes"/>
      <point x="406" y="391" type="line" smooth="yes"/>
      <point x="270" y="360" type="line" smooth="yes"/>
    </contour>
    <contour>
      <point x="96" y="340" type="line" smooth="yes"/>
      <point x="270" y="340" type="line" smooth="yes"/>
      <point x="299" y="341" type="line" smooth="yes"/>
      <point x="328" y="344" type="line" smooth="yes"/>
      <point x="425" y="0" type="line" smooth="yes"/>
      <point x="445" y="0" type="line" smooth="yes"/>
      <point x="347" y="348" type="line" smooth="yes"/>
      <point x="456" y="406" type="line" smooth="yes"/>
      <point x="517" y="545" type="line" smooth="yes"/>
      <point x="520" y="569" type="line" smooth="yes"/>
      <point x="470" y="735" type="line" smooth="yes"/>
      <point x="320" y="780" type="line" smooth="yes"/>
      <point x="133" y="780" type="line" smooth="yes"/>
      <point x="31" y="0" type="line" smooth="yes"/>
      <point x="51" y="0" type="line" smooth="yes"/>
    </contour>
  </outline>
</glyph>
<glyph name="rcommaaccent" format="1">
  <advance width="297"/>
  <unicode hex="0157"/>
  <outline>
    <contour>
      <point x="46" y="-70" type="line" smooth="yes"/>
      <point x="6" y="-70" type="line" smooth="yes"/>
      <point x="1" y="-110" type="line" smooth="yes"/>
      <point x="21" y="-110" type="line" smooth="yes"/>
      <point x="-9" y="-173" type="line" smooth="yes"/>
      <point x="-50" y="-186" type="line" smooth="yes"/>
      <point x="-52" y="-206" type="line" smooth="yes"/>
      <point x="7" y="-183" type="line" smooth="yes"/>
      <point x="42" y="-102" type="line" smooth="yes"/>
    </contour>
    <contour>
      <point x="261" y="536" type="line" smooth="yes"/>
      <point x="159" y="506" type="line" smooth="yes"/>
      <point x="96" y="444" type="line" smooth="yes"/>
      <point x="101" y="530" type="line" smooth="yes"/>
      <point x="85" y="530" type="line" smooth="yes"/>
      <point x="75" y="412" type="line" smooth="yes"/>
      <point x="21" y="0" type="line" smooth="yes"/>
      <point x="41" y="0" type="line" smooth="yes"/>
      <point x="96" y="419" type="line" smooth="yes"/>
      <point x="156" y="482" type="line" smooth="yes"/>
      <point x="264" y="516" type="line" smooth="yes"/>
      <point x="273" y="516" type="line" smooth="yes"/>
      <point x="276" y="535" type="line" smooth="yes"/>
      <point x="272" y="536" type="line" smooth="yes"/>
    </contour>
  </outline>
</glyph>
<glyph name="Scircumflex" format="1">
  <advance width="576"/>
  <unicode hex="015C"/>
  <outline>
    <contour>
      <point x="266" y="840" type="line" smooth="yes"/>
      <point x="365" y="935" type="line" smooth="yes"/>
      <point x="438" y="840" type="line" smooth="yes"/>
      <point x="461" y="840" type="line" smooth="yes"/>
      <point x="376" y="950" type="line" smooth="yes"/>
      <point x="356" y="950" type="line" smooth="yes"/>
      <point x="241" y="840" type="line" smooth="yes"/>
    </contour>
    <contour>
      <point x="289" y="395" type="line" smooth="yes"/>
      <point x="451" y="332" type="line" smooth="yes"/>
      <point x="486" y="198" type="line" smooth="yes"/>
      <point x="483" y="174" type="line" smooth="yes"/>
      <point x="407" y="51" type="line" smooth="yes"/>
      <point x="249" y="14" type="line" smooth="yes"/>
      <point x="243" y="14" type="line" smooth="yes"/>
      <point x="83" y="71" type="line" smooth="yes"/>
      <point x="53" y="250" type="line" smooth="yes"/>
      <point x="33" y="250" type="line" smooth="yes"/>
      <point x="30" y="226" type="line" smooth="yes"/>
      <point x="69" y="55" type="line" smooth="yes"/>
      <point x="246" y="-6" type="line" smooth="yes"/>
      <point x="419" y="33" type="line" smooth="yes"/>
      <point x="504" y="174" type="line" smooth="yes"/>
      <point x="507" y="198" type="line" smooth="yes"/>
      <point x="472" y="341" type="line" smooth="yes"/>
      <point x="301" y="414" type="line" smooth="yes"/>
      <point x="138" y="472" type="line" smooth="yes"/>
      <point x="103" y="586" type="line" smooth="yes"/>
      <point x="106" y="610" type="line" smooth="yes"/>
      <point x="181" y="727" type="line" smooth="yes"/>
      <point x="331" y="766" type="line" smooth="yes"/>
      <point x="337" y="766" type="line" smooth="yes"/>
      <point x="493" y="710" type="line" smooth="yes"/>
      <point x="524" y="520" type="line" smooth="yes"/>
      <point x="544" y="520" type="line" smooth="yes"/>
      <point x="547" y="544" type="line" smooth="yes"/>
      <point x="509" y="723" type="line" smooth="yes"/>
      <point x="334" y="786" type="line" smooth="yes"/>
      <point x="166" y="744" type="line" smooth="yes"/>
      <point x="85" y="610" type="line" smooth="yes"/>
      <point x="82" y="586" type="line" smooth="yes"/>
      <point x="118" y="463" type="line" smooth="yes"/>
    </contour>
  </outline>
</glyph>
<glyph name="Scedilla" format="1">
  <advance width="576"/>
  <unicode hex="015E"/>
  <outline>
    <contour>
      <point x="137" y="-186" type="line" smooth="yes"/>
      <point x="175" y="-201" type="line" smooth="yes"/>
      <point x="218" y="-206" type="line" smooth="yes"/>
      <point x="284" y="-189" type="line" smooth="yes"/>
      <point x="314" y="-126" type="line" smooth="yes"/>
      <point x="289" y="-77" type="line" smooth="yes"/>
      <point x="236" y="-64" type="line" smooth="yes"/>
      <point x="226" y="-64" type="line" smooth="yes"/>
      <point x="217" y="-65" type="line" smooth="yes"/>
      <point x="246" y="-6" type="line" smooth="yes"/>
      <point x="419" y="33" type="line" smooth="yes"/>
      <point x="504" y="174" type="line" smooth="yes"/>
      <point x="507" y="198" type="line" smooth="yes"/>
      <point x="472" y="341" type="line" smooth="yes"/>
      <point x="301" y="414" type="line" smooth="yes"/>
      <point x="138" y="472" type="line" smooth="yes"/>
      <point x="103" y="586" type="line" smooth="yes"/>
      <point x="106" y="610" type="line" smooth="yes"/>
      <point x="181" y="727" type="line" smooth="yes"/>
      <point x="331" y="766" type="line" smooth="yes"/>
      <point x="337" y="766" type="line" smooth="yes"/>
      <point x="493" y="710" type="line" smooth="yes"/>
      <point x="524" y="520" type="line" smooth="yes"/>
      <point x="544" y="520" type="line" smooth="yes"/>
      <point x="547" y="544" type="line" smooth="yes"/>
      <point x="509" y="723" type="line" smooth="yes"/>
      <point x="334" y="786" type="line" smooth="yes"/>
      <point x="166" y="744" type="line" smooth="yes"/>
      <point x="85" y="610" type="line" smooth="yes"/>
      <point x="82" y="586" type="line" smooth="yes"/>
      <point x="118" y="463" type="line" smooth="yes"/>
      <point x="289" y="395" type="line" smooth="yes"/>
      <point x="451" y="332" type="line" smooth="yes"/>
      <point x="486" y="198" type="line" smooth="yes"/>
      <point x="483" y="174" type="line" smooth="yes"/>
      <point x="407" y="51" type="line" smooth="yes"/>
      <point x="249" y="14" type="line" smooth="yes"/>
      <point x="243" y="14" type="line" smooth="yes"/>
      <point x="83" y="71" type="line" smooth="yes"/>
      <point x="53" y="250" type="line" smooth="yes"/>
      <point x="33" y="250" type="line" smooth="yes"/>
      <point x="30" y="226" type="line" smooth="yes"/>
      <point x="64" y="60" type="line" smooth="yes"/>
      <point x="227" y="-5" type="line" smooth="yes"/>
      <point x="194" y="-73" type="line" smooth="yes"/>
      <point x="203" y="-84" type="line" smooth="yes"/>
      <point x="211" y="-83" type="line" smooth="yes"/>
      <point x="229" y="-82" type="line" smooth="yes"/>
      <point x="276" y="-89" type="line" smooth="yes"/>
      <point x="296" y="-126" type="line" smooth="yes"/>
      <point x="271" y="-176" type="line" smooth="yes"/>
      <point x="218" y="-188" type="line" smooth="yes"/>
      <point x="178" y="-183" type="line" smooth="yes"/>
      <point x="145" y="-170" type="line" smooth="yes"/>
    </contour>
  </outline>
</glyph>
<glyph name="scedilla" format="1">
  <advance width="478"/>
  <unicode hex="015F"/>
  <outline>
    <contour>
      <point x="91" y="-186" type="line" smooth="yes"/>
      <point x="129" y="-201" type="line" smooth="yes"/>
      <point x="172" y="-206" type="line" smooth="yes"/>
      <point x="238" y="-189" type="line" smooth="yes"/>
      <point x="268" y="-126" type="line" smooth="yes"/>
      <point x="243" y="-77" type="line" smooth="yes"/>
      <point x="190" y="-64" type="line" smooth="yes"/>
      <point x="180" y="-64" type="line" smooth="yes"/>
      <point x="171" y="-65" type="line" smooth="yes"/>
      <point x="200" y="-6" type="line" smooth="yes"/>
      <point x="340" y="33" type="line" smooth="yes"/>
      <point x="398" y="133" type="line" smooth="yes"/>
      <point x="399" y="141" type="line" smooth="yes"/>
      <point x="372" y="235" type="line" smooth="yes"/>
      <point x="237" y="278" type="line" smooth="yes"/>
      <point x="110" y="307" type="line" smooth="yes"/>
      <point x="76" y="375" type="line" smooth="yes"/>
      <point x="122" y="479" type="line" smooth="yes"/>
      <point x="250" y="516" type="line" smooth="yes"/>
      <point x="381" y="476" type="line" smooth="yes"/>
      <point x="403" y="360" type="line" smooth="yes"/>
      <point x="423" y="360" type="line" smooth="yes"/>
      <point x="425" y="376" type="line" smooth="yes"/>
      <point x="396" y="491" type="line" smooth="yes"/>
      <point x="250" y="536" type="line" smooth="yes"/>
      <point x="117" y="499" type="line" smooth="yes"/>
      <point x="58" y="400" type="line" smooth="yes"/>
      <point x="57" y="392" type="line" smooth="yes"/>
      <point x="80" y="306" type="line" smooth="yes"/>
      <point x="213" y="261" type="line" smooth="yes"/>
      <point x="342" y="231" type="line" smooth="yes"/>
      <point x="380" y="154" type="line" smooth="yes"/>
      <point x="331" y="53" type="line" smooth="yes"/>
      <point x="200" y="14" type="line" smooth="yes"/>
      <point x="64" y="54" type="line" smooth="yes"/>
      <point x="42" y="160" type="line" smooth="yes"/>
      <point x="22" y="160" type="line" smooth="yes"/>
      <point x="20" y="144" type="line" smooth="yes"/>
      <point x="47" y="43" type="line" smooth="yes"/>
      <point x="181" y="-5" type="line" smooth="yes"/>
      <point x="148" y="-73" type="line" smooth="yes"/>
      <point x="157" y="-84" type="line" smooth="yes"/>
      <point x="165" y="-83" type="line" smooth="yes"/>
      <point x="183" y="-82" type="line" smooth="yes"/>
      <point x="230" y="-89" type="line" smooth="yes"/>
      <point x="250" y="-126" type="line" smooth="yes"/>
      <point x="225" y="-176" type="line" smooth="yes"/>
      <point x="172" y="-188" type="line" smooth="yes"/>
      <point x="132" y="-183" type="line" smooth="yes"/>
      <point x="99" y="-170" type="line" smooth="yes"/>
    </contour>
  </outline>
</glyph>
<glyph name="Tcommaaccent" format="1">
  <advance width="490"/>
  <unicode hex="0162"/>
  <outline>
    <contour>
      <point x="206" y="-70" type="line" smooth="yes"/>
      <point x="166" y="-70" type="line" smooth="yes"/>
      <point x="161" y="-110" type="line" smooth="yes"/>
      <point x="181" y="-110" type="line" smooth="yes"/>
      <point x="151" y="-173" type="line" smooth="yes"/>
      <point x="110" y="-186" type="line" smooth="yes"/>
      <point x="108" y="-206" type="line" smooth="yes"/>
      <point x="167" y="-183" type="line" smooth="yes"/>
      <point x="202" y="-102" type="line" smooth="yes"/>
    </contour>
    <contour>
      <point x="305" y="760" type="line" smooth="yes"/>
      <point x="514" y="760" type="line" smooth="yes"/>
      <point x="517" y="780" type="line" smooth="yes"/>
      <point x="78" y="780" type="line" smooth="yes"/>
      <point x="75" y="760" type="line" smooth="yes"/>
      <point x="284" y="760" type="line" smooth="yes"/>
      <point x="185" y="0" type="line" smooth="yes"/>
      <point x="205" y="0" type="line" smooth="yes"/>
    </contour>
  </outline>
</glyph>
<glyph name="tcommaaccent" format="1">
  <advance width="360"/>
  <unicode hex="0163"/>
  <outline>
    <contour>
      <point x="171" y="-70" type="line" smooth="yes"/>
      <point x="131" y="-70" type="line" smooth="yes"/>
      <point x="126" y="-110" type="line" smooth="yes"/>
      <point x="146" y="-110" type="line" smooth="yes"/>
      <point x="116" y="-173" type="line" smooth="yes"/>
      <point x="75" y="-186" type="line" smooth="yes"/>
      <point x="73" y="-206" type="line" smooth="yes"/>
      <point x="132" y="-183" type="line" smooth="yes"/>
      <point x="167" y="-102" type="line" smooth="yes"/>
    </contour>
    <contour>
      <point x="155" y="530" type="line" smooth="yes"/>
      <point x="175" y="680" type="line" smooth="yes"/>
      <point x="155" y="680" type="line" smooth="yes"/>
      <point x="135" y="530" type="line" smooth="yes"/>
      <point x="50" y="530" type="line" smooth="yes"/>
      <point x="47" y="510" type="line" smooth="yes"/>
      <point x="133" y="510" type="line" smooth="yes"/>
      <point x="83" y="129" type="line" smooth="yes"/>
      <point x="109" y="21" type="line" smooth="yes"/>
      <point x="200" y="-6" type="line" smooth="yes"/>
      <point x="241" y="-2" type="line" smooth="yes"/>
      <point x="261" y="4" type="line" smooth="yes"/>
      <point x="264" y="24" type="line" smooth="yes"/>
      <point x="239" y="18" type="line" smooth="yes"/>
      <point x="200" y="14" type="line" smooth="yes"/>
      <point x="122" y="39" type="line" smooth="yes"/>
      <point x="104" y="137" type="line" smooth="yes"/>
      <point x="153" y="510" type="line" smooth="yes"/>
      <point x="337" y="510" type="line" smooth="yes"/>
      <point x="340" y="530" type="line" smooth="yes"/>
    </contour>
  </outline>
</glyph>
<glyph name="utilde" format="1">
  <advance width="490"/>
  <unicode hex="0169"/>
  <outline>
    <contour>
      <point x="404" y="732" type="line" smooth="yes"/>
      <point x="383" y="689" type="line" smooth="yes"/>
      <point x="350" y="680" type="line" smooth="yes"/>
      <point x="284" y="709" type="line" smooth="yes"/>
      <point x="215" y="738" type="line" smooth="yes"/>
      <point x="170" y="724" type="line" smooth="yes"/>
      <point x="143" y="668" type="line" smooth="yes"/>
      <point x="161" y="668" type="line" smooth="yes"/>
      <point x="182" y="711" type="line" smooth="yes"/>
      <point x="215" y="720" type="line" smooth="yes"/>
      <point x="281" y="691" type="line" smooth="yes"/>
      <point x="350" y="662" type="line" smooth="yes"/>
      <point x="395" y="676" type="line" smooth="yes"/>
      <point x="422" y="732" type="line" smooth="yes"/>
    </contour>
    <contour>
      <point x="80" y="530" type="line" smooth="yes"/>
      <point x="30" y="149" type="line" smooth="yes"/>
      <point x="61" y="31" type="line" smooth="yes"/>
      <point x="178" y="-6" type="line" smooth="yes"/>
      <point x="296" y="24" type="line" smooth="yes"/>
      <point x="365" y="86" type="line" smooth="yes"/>
      <point x="360" y="0" type="line" smooth="yes"/>
      <point x="376" y="0" type="line" smooth="yes"/>
      <point x="386" y="118" type="line" smooth="yes"/>
      <point x="440" y="530" type="line" smooth="yes"/>
      <point x="420" y="530" type="line" smooth="yes"/>
      <point x="365" y="111" type="line" smooth="yes"/>
      <point x="295" y="46" type="line" smooth="yes"/>
      <point x="178" y="14" type="line" smooth="yes"/>
      <point x="77" y="46" type="line" smooth="yes"/>
      <point x="51" y="156" type="line" smooth="yes"/>
      <point x="100" y="530" type="line" smooth="yes"/>
    </contour>
  </outline>
</glyph>
<glyph name="Umacron" format="1">
  <advance width="620"/>
  <unicode hex="016A"/>
  <outline>
    <contour>
      <point x="277" y="885" type="line" smooth="yes"/>
      <point x="477" y="885" type="line" smooth="yes"/>
      <point x="480" y="905" type="line" smooth="yes"/>
      <point x="280" y="905" type="line" smooth="yes"/>
    </contour>
    <contour>
      <point x="267" y="-6" type="line" smooth="yes"/>
      <point x="439" y="44" type="line" smooth="yes"/>
      <point x="525" y="239" type="line" smooth="yes"/>
      <point x="596" y="780" type="line" smooth="yes"/>
      <point x="576" y="780" type="line" smooth="yes"/>
      <point x="506" y="245" type="line" smooth="yes"/>
      <point x="428" y="62" type="line" smooth="yes"/>
      <point x="267" y="14" type="line" smooth="yes"/>
      <point x="114" y="61" type="line" smooth="yes"/>
      <point x="80" y="244" type="line" smooth="yes"/>
      <point x="150" y="780" type="line" smooth="yes"/>
      <point x="130" y="780" type="line" smooth="yes"/>
      <point x="59" y="239" type="line" smooth="yes"/>
      <point x="101" y="44" type="line" smooth="yes"/>
    </contour>
  </outline>
</glyph>
<glyph name="Ubreve" format="1">
  <advance width="620"/>
  <unicode hex="016C"/>
  <outline>
    <contour>
      <point x="370" y="852" type="line" smooth="yes"/>
      <point x="292" y="879" type="line" smooth="yes"/>
      <point x="273" y="950" type="line" smooth="yes"/>
      <point x="256" y="950" type="line" smooth="yes"/>
      <point x="278" y="866" type="line" smooth="yes"/>
      <point x="371" y="834" type="line" smooth="yes"/>
      <point x="471" y="866" type="line" smooth="yes"/>
      <point x="516" y="950" type="line" smooth="yes"/>
      <point x="497" y="950" type="line" smooth="yes"/>
      <point x="457" y="879" type="line" smooth="yes"/>
    </contour>
    <contour>
      <point x="267" y="-6" type="line" smooth="yes"/>
      <point x="439" y="44" type="line" smooth="yes"/>
      <point x="525" y="239" type="line" smooth="yes"/>
      <point x="596" y="780" type="line" smooth="yes"/>
      <point x="576" y="780" type="line" smooth="yes"/>
      <point x="506" y="245" type="line" smooth="yes"/>
      <point x="428" y="62" type="line" smooth="yes"/>
      <point x="267" y="14" type="line" smooth="yes"/>
      <point x="114" y="61" type="line" smooth="yes"/>
      <point x="80" y="244" type="line" smooth="yes"/>
      <point x="150" y="780" type="line" smooth="yes"/>
      <point x="130" y="780" type="line" smooth="yes"/>
      <point x="59" y="239" type="line" smooth="yes"/>
      <point x="101" y="44" type="line" smooth="yes"/>
    </contour>
  </outline>
</glyph>
<glyph name="ubreve" format="1">
  <advance width="490"/>
  <unicode hex="016D"/>
  <outline>
    <contour>
      <point x="272" y="614" type="line" smooth="yes"/>
      <point x="392" y="663" type="line" smooth="yes"/>
      <point x="443" y="780" type="line" smooth="yes"/>
      <point x="424" y="780" type="line" smooth="yes"/>
      <point x="379" y="676" type="line" smooth="yes"/>
      <point x="272" y="632" type="line" smooth="yes"/>
      <point x="178" y="676" type="line" smooth="yes"/>
      <point x="160" y="780" type="line" smooth="yes"/>
      <point x="143" y="780" type="line" smooth="yes"/>
      <point x="165" y="663" type="line" smooth="yes"/>
    </contour>
    <contour>
      <point x="80" y="530" type="line" smooth="yes"/>
      <point x="30" y="149" type="line" smooth="yes"/>
      <point x="61" y="31" type="line" smooth="yes"/>
      <point x="178" y="-6" type="line" smooth="yes"/>
      <point x="296" y="24" type="line" smooth="yes"/>
      <point x="365" y="86" type="line" smooth="yes"/>
      <point x="360" y="0" type="line" smooth="yes"/>
      <point x="376" y="0" type="line" smooth="yes"/>
      <point x="386" y="118" type="line" smooth="yes"/>
      <point x="440" y="530" type="line" smooth="yes"/>
      <point x="420" y="530" type="line" smooth="yes"/>
      <point x="365" y="111" type="line" smooth="yes"/>
      <point x="295" y="46" type="line" smooth="yes"/>
      <point x="178" y="14" type="line" smooth="yes"/>
      <point x="77" y="46" type="line" smooth="yes"/>
      <point x="51" y="156" type="line" smooth="yes"/>
      <point x="100" y="530" type="line" smooth="yes"/>
    </contour>
  </outline>
</glyph>
<glyph name="Uring" format="1">
  <advance width="620"/>
  <unicode hex="016E"/>
  <outline>
    <contour>
      <point x="383" y="956" type="line" smooth="yes"/>
      <point x="317" y="929" type="line" smooth="yes"/>
      <point x="288" y="862" type="line" smooth="yes"/>
      <point x="310" y="805" type="line" smooth="yes"/>
      <point x="368" y="784" type="line" smooth="yes"/>
      <point x="434" y="812" type="line" smooth="yes"/>
      <point x="463" y="878" type="line" smooth="yes"/>
      <point x="441" y="935" type="line" smooth="yes"/>
    </contour>
    <contour>
      <point x="383" y="938" type="line" smooth="yes"/>
      <point x="427" y="923" type="line" smooth="yes"/>
      <point x="444" y="878" type="line" smooth="yes"/>
      <point x="422" y="823" type="line" smooth="yes"/>
      <point x="368" y="802" type="line" smooth="yes"/>
      <point x="324" y="817" type="line" smooth="yes"/>
      <point x="307" y="862" type="line" smooth="yes"/>
      <point x="329" y="917" type="line" smooth="yes"/>
    </contour>
    <contour>
      <point x="267" y="-6" type="line" smooth="yes"/>
      <point x="439" y="44" type="line" smooth="yes"/>
      <point x="525" y="239" type="line" smooth="yes"/>
      <point x="596" y="780" type="line" smooth="yes"/>
      <point x="576" y="780" type="line" smooth="yes"/>
      <point x="506" y="245" type="line" smooth="yes"/>
      <point x="428" y="62" type="line" smooth="yes"/>
      <point x="267" y="14" type="line" smooth="yes"/>
      <point x="114" y="61" type="line" smooth="yes"/>
      <point x="80" y="244" type="line" smooth="yes"/>
      <point x="150" y="780" type="line" smooth="yes"/>
      <point x="130" y="780" type="line" smooth="yes"/>
      <point x="59" y="239" type="line" smooth="yes"/>
      <point x="101" y="44" type="line" smooth="yes"/>
    </contour>
  </outline>
</glyph>
<glyph name="uring" format="1">
  <advance width="490"/>
  <unicode hex="016F"/>
  <outline>
    <contour>
      <point x="290" y="786" type="line" smooth="yes"/>
      <point x="224" y="759" type="line" smooth="yes"/>
      <point x="195" y="692" type="line" smooth="yes"/>
      <point x="217" y="635" type="line" smooth="yes"/>
      <point x="275" y="614" type="line" smooth="yes"/>
      <point x="341" y="642" type="line" smooth="yes"/>
      <point x="370" y="708" type="line" smooth="yes"/>
      <point x="348" y="765" type="line" smooth="yes"/>
    </contour>
    <contour>
      <point x="290" y="768" type="line" smooth="yes"/>
      <point x="334" y="753" type="line" smooth="yes"/>
      <point x="351" y="708" type="line" smooth="yes"/>
      <point x="329" y="653" type="line" smooth="yes"/>
      <point x="275" y="632" type="line" smooth="yes"/>
      <point x="231" y="647" type="line" smooth="yes"/>
      <point x="214" y="692" type="line" smooth="yes"/>
      <point x="236" y="747" type="line" smooth="yes"/>
    </contour>
    <contour>
      <point x="80" y="530" type="line" smooth="yes"/>
      <point x="30" y="149" type="line" smooth="yes"/>
      <point x="61" y="31" type="line" smooth="yes"/>
      <point x="178" y="-6" type="line" smooth="yes"/>
      <point x="296" y="24" type="line" smooth="yes"/>
      <point x="365" y="86" type="line" smooth="yes"/>
      <point x="360" y="0" type="line" smooth="yes"/>
      <point x="376" y="0" type="line" smooth="yes"/>
      <point x="386" y="118" type="line" smooth="yes"/>
      <point x="440" y="530" type="line" smooth="yes"/>
      <point x="420" y="530" type="line" smooth="yes"/>
      <point x="365" y="111" type="line" smooth="yes"/>
      <point x="295" y="46" type="line" smooth="yes"/>
      <point x="178" y="14" type="line" smooth="yes"/>
      <point x="77" y="46" type="line" smooth="yes"/>
      <point x="51" y="156" type="line" smooth="yes"/>
      <point x="100" y="530" type="line" smooth="yes"/>
    </contour>
  </outline>
</glyph>
<glyph name="uhungarumlaut" format="1">
  <advance width="490"/>
  <unicode hex="0171"/>
  <outline>
    <contour>
      <point x="322" y="780" type="line" smooth="yes"/>
      <point x="211" y="620" type="line" smooth="yes"/>
      <point x="233" y="620" type="line" smooth="yes"/>
      <point x="344" y="780" type="line" smooth="yes"/>
    </contour>
    <contour>
      <point x="422" y="780" type="line" smooth="yes"/>
      <point x="311" y="620" type="line" smooth="yes"/>
      <point x="333" y="620" type="line" smooth="yes"/>
      <point x="444" y="780" type="line" smooth="yes"/>
    </contour>
    <contour>
      <point x="80" y="530" type="line" smooth="yes"/>
      <point x="30" y="149" type="line" smooth="yes"/>
      <point x="61" y="31" type="line" smooth="yes"/>
      <point x="178" y="-6" type="line" smooth="yes"/>
      <point x="296" y="24" type="line" smooth="yes"/>
      <point x="365" y="86" type="line" smooth="yes"/>
      <point x="360" y="0" type="line" smooth="yes"/>
      <point x="376" y="0" type="line" smooth="yes"/>
      <point x="386" y="118" type="line" smooth="yes"/>
      <point x="440" y="530" type="line" smooth="yes"/>
      <point x="420" y="530" type="line" smooth="yes"/>
      <point x="365" y="111" type="line" smooth="yes"/>
      <point x="295" y="46" type="line" smooth="yes"/>
      <point x="178" y="14" type="line" smooth="yes"/>
      <point x="77" y="46" type="line" smooth="yes"/>
      <point x="51" y="156" type="line" smooth="yes"/>
      <point x="100" y="530" type="line" smooth="yes"/>
    </contour>
  </outline>
</glyph>
<glyph name="Uogonek" format="1">
  <advance width="620"/>
  <unicode hex="0172"/>
  <outline>
    <contour>
      <point x="355" y="-170" type="line" smooth="yes"/>
      <point x="324" y="-182" type="line" smooth="yes"/>
      <point x="280" y="-188" type="line" smooth="yes"/>
      <point x="235" y="-175" type="line" smooth="yes"/>
      <point x="216" y="-129" type="line" smooth="yes"/>
      <point x="262" y="-37" type="line" smooth="yes"/>
      <point x="340" y="0" type="line" smooth="yes"/>
      <point x="462" y="68" type="line" smooth="yes"/>
      <point x="525" y="239" type="line" smooth="yes"/>
      <point x="596" y="780" type="line" smooth="yes"/>
      <point x="576" y="780" type="line" smooth="yes"/>
      <point x="506" y="245" type="line" smooth="yes"/>
      <point x="428" y="62" type="line" smooth="yes"/>
      <point x="267" y="14" type="line" smooth="yes"/>
      <point x="114" y="61" type="line" smooth="yes"/>
      <point x="80" y="244" type="line" smooth="yes"/>
      <point x="150" y="780" type="line" smooth="yes"/>
      <point x="130" y="780" type="line" smooth="yes"/>
      <point x="59" y="239" type="line" smooth="yes"/>
      <point x="101" y="44" type="line" smooth="yes"/>
      <point x="267" y="-6" type="line" smooth="yes"/>
      <point x="280" y="-6" type="line" smooth="yes"/>
      <point x="222" y="-53" type="line" smooth="yes"/>
      <point x="198" y="-129" type="line" smooth="yes"/>
      <point x="222" y="-187" type="line" smooth="yes"/>
      <point x="280" y="-206" type="line" smooth="yes"/>
      <point x="327" y="-200" type="line" smooth="yes"/>
      <point x="359" y="-187" type="line" smooth="yes"/>
    </contour>
  </outline>
</glyph>
<glyph name="ycircumflex" format="1">
  <advance width="460"/>
  <unicode hex="0177"/>
  <outline>
    <contour>
      <point x="397" y="620" type="line" smooth="yes"/>
      <point x="293" y="780" type="line" smooth="yes"/>
      <point x="273" y="780" type="line" smooth="yes"/>
      <point x="127" y="620" type="line" smooth="yes"/>
      <point x="153" y="620" type="line" smooth="yes"/>
      <point x="282" y="762" type="line" smooth="yes"/>
      <point x="373" y="620" type="line" smooth="yes"/>
    </contour>
    <contour>
      <point x="186" y="44" type="line" smooth="yes"/>
      <point x="68" y="530" type="line" smooth="yes"/>
      <point x="47" y="530" type="line" smooth="yes"/>
      <point x="174" y="17" type="line" smooth="yes"/>
      <point x="63" y="-200" type="line" smooth="yes"/>
      <point x="85" y="-200" type="line" smooth="yes"/>
      <point x="192" y="17" type="line" smooth="yes"/>
      <point x="453" y="530" type="line" smooth="yes"/>
      <point x="430" y="530" type="line" smooth="yes"/>
    </contour>
  </outline>
</glyph>
<glyph name="Scommaaccent" format="1">
  <advance width="576"/>
  <unicode hex="0218"/>
  <outline>
    <contour>
      <point x="251" y="-70" type="line" smooth="yes"/>
      <point x="211" y="-70" type="line" smooth="yes"/>
      <point x="206" y="-110" type="line" smooth="yes"/>
      <point x="226" y="-110" type="line" smooth="yes"/>
      <point x="196" y="-173" type="line" smooth="yes"/>
      <point x="155" y="-186" type="line" smooth="yes"/>
      <point x="153" y="-206" type="line" smooth="yes"/>
      <point x="212" y="-183" type="line" smooth="yes"/>
      <point x="247" y="-102" type="line" smooth="yes"/>
    </contour>
    <contour>
      <point x="289" y="395" type="line" smooth="yes"/>
      <point x="451" y="332" type="line" smooth="yes"/>
      <point x="486" y="198" type="line" smooth="yes"/>
      <point x="483" y="174" type="line" smooth="yes"/>
      <point x="407" y="51" type="line" smooth="yes"/>
      <point x="249" y="14" type="line" smooth="yes"/>
      <point x="243" y="14" type="line" smooth="yes"/>
      <point x="83" y="71" type="line" smooth="yes"/>
      <point x="53" y="250" type="line" smooth="yes"/>
      <point x="33" y="250" type="line" smooth="yes"/>
      <point x="30" y="226" type="line" smooth="yes"/>
      <point x="69" y="55" type="line" smooth="yes"/>
      <point x="246" y="-6" type="line" smooth="yes"/>
      <point x="419" y="33" type="line" smooth="yes"/>
      <point x="504" y="174" type="line" smooth="yes"/>
      <point x="507" y="198" type="line" smooth="yes"/>
      <point x="472" y="341" type="line" smooth="yes"/>
      <point x="301" y="414" type="line" smooth="yes"/>
      <point x="138" y="472" type="line" smooth="yes"/>
      <point x="103" y="586" type="line" smooth="yes"/>
      <point x="106" y="610" type="line" smooth="yes"/>
      <point x="181" y="727" type="line" smooth="yes"/>
      <point x="331" y="766" type="line" smooth="yes"/>
      <point x="337" y="766" type="line" smooth="yes"/>
      <point x="493" y="710" type="line" smooth="yes"/>
      <point x="524" y="520" type="line" smooth="yes"/>
      <point x="544" y="520" type="line" smooth="yes"/>
      <point x="547" y="544" type="line" smooth="yes"/>
      <point x="509" y="723" type="line" smooth="yes"/>
      <point x="334" y="786" type="line" smooth="yes"/>
      <point x="166" y="744" type="line" smooth="yes"/>
      <point x="85" y="610" type="line" smooth="yes"/>
      <point x="82" y="586" type="line" smooth="yes"/>
      <point x="118" y="463" type="line" smooth="yes"/>
    </contour>
  </outline>
</glyph>
<glyph name="scommaaccent" format="1">
  <advance width="478"/>
  <unicode hex="0219"/>
  <outline>
    <contour>
      <point x="201" y="-70" type="line" smooth="yes"/>
      <point x="161" y="-70" type="line" smooth="yes"/>
      <point x="156" y="-110" type="line" smooth="yes"/>
      <point x="176" y="-110" type="line" smooth="yes"/>
      <point x="146" y="-173" type="line" smooth="yes"/>
      <point x="105" y="-186" type="line" smooth="yes"/>
      <point x="103" y="-206" type="line" smooth="yes"/>
      <point x="162" y="-183" type="line" smooth="yes"/>
      <point x="197" y="-102" type="line" smooth="yes"/>
    </contour>
    <contour>
      <point x="213" y="261" type="line" smooth="yes"/>
      <point x="342" y="231" type="line" smooth="yes"/>
      <point x="380" y="154" type="line" smooth="yes"/>
      <point x="331" y="53" type="line" smooth="yes"/>
      <point x="200" y="14" type="line" smooth="yes"/>
      <point x="64" y="54" type="line" smooth="yes"/>
      <point x="42" y="160" type="line" smooth="yes"/>
      <point x="22" y="160" type="line" smooth="yes"/>
      <point x="20" y="144" type="line" smooth="yes"/>
      <point x="50" y="39" type="line" smooth="yes"/>
      <point x="200" y="-6" type="line" smooth="yes"/>
      <point x="340" y="33" type="line" smooth="yes"/>
      <point x="398" y="133" type="line" smooth="yes"/>
      <point x="399" y="141" type="line" smooth="yes"/>
      <point x="372" y="235" type="line" smooth="yes"/>
      <point x="237" y="278" type="line" smooth="yes"/>
      <point x="110" y="307" type="line" smooth="yes"/>
      <point x="76" y="375" type="line" smooth="yes"/>
      <point x="122" y="479" type="line" smooth="yes"/>
      <point x="250" y="516" type="line" smooth="yes"/>
      <point x="381" y="476" type="line" smooth="yes"/>
      <point x="403" y="360" type="line" smooth="yes"/>
      <point x="423" y="360" type="line" smooth="yes"/>
      <point x="425" y="376" type="line" smooth="yes"/>
      <point x="396" y="491" type="line" smooth="yes"/>
      <point x="250" y="536" type="line" smooth="yes"/>
      <point x="117" y="499" type="line" smooth="yes"/>
      <point x="58" y="400" type="line" smooth="yes"/>
      <point x="57" y="392" type="line" smooth="yes"/>
      <point x="80" y="306" type="line" smooth="yes"/>
    </contour>
  </outline>
</glyph>
<glyph name="dotlessj" format="1">
  <advance width="180"/>
  <unicode hex="0237"/>
  <outline>
    <contour>
      <point x="23" y="-63" type="line" smooth="yes"/>
      <point x="-22" y="-162" type="line" smooth="yes"/>
      <point x="-108" y="-186" type="line" smooth="yes"/>
      <point x="-144" y="-183" type="line" smooth="yes"/>
      <point x="-167" y="-176" type="line" smooth="yes"/>
      <point x="-169" y="-196" type="line" smooth="yes"/>
      <point x="-150" y="-202" type="line" smooth="yes"/>
      <point x="-107" y="-206" type="line" smooth="yes"/>
      <point x="-12" y="-178" type="line" smooth="yes"/>
      <point x="42" y="-69" type="line" smooth="yes"/>
      <point x="120" y="530" type="line" smooth="yes"/>
      <point x="100" y="530" type="line" smooth="yes"/>
    </contour>
  </outline>
</glyph>
<glyph name="breve" format="1">
  <advance width="500"/>
  <unicode hex="02D8"/>
  <outline>
    <contour>
      <point x="282" y="614" type="line" smooth="yes"/>
      <point x="402" y="663" type="line" smooth="yes"/>
      <point x="453" y="780" type="line" smooth="yes"/>
      <point x="434" y="780" type="line" smooth="yes"/>
      <point x="389" y="676" type="line" smooth="yes"/>
      <point x="282" y="632" type="line" smooth="yes"/>
      <point x="188" y="676" type="line" smooth="yes"/>
      <point x="170" y="780" type="line" smooth="yes"/>
      <point x="153" y="780" type="line" smooth="yes"/>
      <point x="175" y="663" type="line" smooth="yes"/>
    </contour>
  </outline>
</glyph>
<glyph name="ring" format="1">
  <advance width="500"/>
  <unicode hex="02DA"/>
  <outline>
    <contour>
      <point x="300" y="786" type="line" smooth="yes"/>
      <point x="234" y="759" type="line" smooth="yes"/>
      <point x="205" y="692" type="line" smooth="yes"/>
      <point x="227" y="635" type="line" smooth="yes"/>
      <point x="285" y="614" type="line" smooth="yes"/>
      <point x="351" y="642" type="line" smooth="yes"/>
      <point x="380" y="708" type="line" smooth="yes"/>
      <point x="358" y="765" type="line" smooth="yes"/>
    </contour>
    <contour>
      <point x="300" y="768" type="line" smooth="yes"/>
      <point x="344" y="753" type="line" smooth="yes"/>
      <point x="361" y="708" type="line" smooth="yes"/>
      <point x="339" y="653" type="line" smooth="yes"/>
      <point x="285" y="632" type="line" smooth="yes"/>
      <point x="241" y="647" type="line" smooth="yes"/>
      <point x="224" y="692" type="line" smooth="yes"/>
      <point x="246" y="747" type="line" smooth="yes"/>
    </contour>
  </outline>
</glyph>
